M48
METRIC,LZ,000.000
;FILE_FORMAT=3:3
;TYPE=PLATED
;Layer: PTH_Through
;EasyEDA v6.5.8, 2022-07-15 11:59:49
;d1191fb9e1b14548bd0f93557d019ec9,639d141a17be428fa5966410475b8b1a,10
;Gerber Generator version 0.2
;Holesize 1 = 0.306 mm
T01C0.306
;Holesize 2 = 0.650 mm
T02C0.650
;Holesize 3 = 0.712 mm
T03C0.712
;Holesize 4 = 0.762 mm
T04C0.762
;Holesize 5 = 0.900 mm
T05C0.900
;Holesize 6 = 0.901 mm
T06C0.901
;Holesize 7 = 0.915 mm
T07C0.915
;Holesize 8 = 1.000 mm
T08C1.000
;Holesize 9 = 1.021 mm
T09C1.021
;Holesize 10 = 1.200 mm
T10C1.200
;Holesize 11 = 1.701 mm
T11C1.701
;Holesize 12 = 2.000 mm
T12C2.000
;Holesize 13 = 3.000 mm
T13C3.000
%
G05
G90
T01
X055574Y-035310
X074037Y-041783
X085492Y-018063
X053251Y-028474
X053251Y-036835
X075492Y-055793
X065084Y-058847
X068433Y-001137
X081386Y-021933
X081167Y-020535
X084833Y-022159
X056981Y-067520
X048840Y-052051
X041766Y-058870
X035038Y-065261
X043467Y-047400
X097583Y-048143
X044653Y-047775
X093432Y-055299
X093432Y-044601
X070549Y-045804
X070111Y-038630
X074932Y-038999
X076959Y-043989
X091699Y-043989
X091699Y-055058
X059266Y-010766
X043909Y-028679
X046507Y-007724
X034244Y-022292
X024507Y-098907
X008841Y-097713
X095258Y-003602
X092640Y-006412
X076258Y-031049
X080519Y-015281
X097615Y-016793
X084953Y-023739
X077748Y-021330
X074543Y-034611
T02
X040386Y-065895
X040386Y-063645
X055390Y-051689
X057640Y-051689
T03
X049022Y-082804
X049022Y-080264
X055880Y-082804
X055880Y-080264
X062865Y-082677
X062865Y-080137
T04
X069977Y-082553G85X069977Y-082547
X069977Y-080013G85X069977Y-080007
X055242Y-065786G85X055248Y-065786
X057782Y-065786G85X057788Y-065786
X055242Y-058166G85X055248Y-058166
X057782Y-058166G85X057788Y-058166
X055369Y-046482G85X055375Y-046482
X057909Y-046482G85X057915Y-046482
X096520Y-029083
X096520Y-026543
X096520Y-024003
X096520Y-031623
X096520Y-034163
X096520Y-036703
X096520Y-039243
X096520Y-041783
X081280Y-041783
X081280Y-039243
X081280Y-036703
X081280Y-034163
X081280Y-031623
X081280Y-029083
X081280Y-026543
X081280Y-024003
X096520Y-051435
X096520Y-048895
X096520Y-046355
X096520Y-053975
X096520Y-056515
X096520Y-059055
X096520Y-061595
X096520Y-064135
X081280Y-064135
X081280Y-061595
X081280Y-059055
X081280Y-056515
X081280Y-053975
X081280Y-051435
X081280Y-048895
X081280Y-046355
T05
X052705Y-070231
X045085Y-070231
X066929Y-071120
X059309Y-071120
X050546Y-055372
X050546Y-062992
X046609Y-062230
X046609Y-054610
T06
X071761Y-054988G85X071761Y-054994
X069221Y-054988G85X069221Y-054994
X071761Y-052448G85X071761Y-052454
X069221Y-052448G85X069221Y-052454
X071761Y-049908G85X071761Y-049914
X069221Y-049908G85X069221Y-049914
X071761Y-047368G85X071761Y-047374
X069221Y-047368G85X069221Y-047374
X071761Y-044828G85X071761Y-044834
X069221Y-044828G85X069221Y-044834
X071761Y-042288G85X071761Y-042294
X069221Y-042288G85X069221Y-042294
X071761Y-039748G85X071761Y-039754
X069221Y-039748G85X069221Y-039754
X071761Y-037208G85X071761Y-037214
X069221Y-037208G85X069221Y-037214
X071761Y-034668G85X071761Y-034674
X069221Y-034668G85X069221Y-034674
X071761Y-032128G85X071761Y-032134
X069221Y-032128G85X069221Y-032134
X071761Y-029588G85X071761Y-029594
X069221Y-029588G85X069221Y-029594
X071761Y-027048G85X071761Y-027054
X069221Y-027048G85X069221Y-027054
X071761Y-024508G85X071761Y-024514
X069221Y-024508G85X069221Y-024514
X071761Y-021968G85X071761Y-021974
X069221Y-021968G85X069221Y-021974
X071761Y-019428G85X071761Y-019434
X069221Y-019428G85X069221Y-019434
X028569Y-054960G85X028569Y-054965
X026029Y-054960G85X026029Y-054965
X028569Y-052420G85X028569Y-052425
X026029Y-052420G85X026029Y-052425
X028569Y-049880G85X028569Y-049885
X026029Y-049880G85X026029Y-049885
X028569Y-047340G85X028569Y-047345
X026029Y-047340G85X026029Y-047345
X028569Y-044800G85X028569Y-044805
X026029Y-044800G85X026029Y-044805
X028575Y-042288G85X028575Y-042294
X026029Y-042260G85X026029Y-042265
X028569Y-039720G85X028569Y-039725
X026029Y-039720G85X026029Y-039725
X028569Y-037180G85X028569Y-037185
X026029Y-037180G85X026029Y-037185
X028569Y-034640G85X028569Y-034645
X026029Y-034640G85X026029Y-034645
X028575Y-032128G85X028575Y-032134
X026029Y-032100G85X026029Y-032105
X028569Y-029560G85X028569Y-029565
X026029Y-029560G85X026029Y-029565
X028569Y-027020G85X028569Y-027025
X026029Y-027020G85X026029Y-027025
X028569Y-024480G85X028569Y-024485
X026029Y-024480G85X026029Y-024485
X028569Y-021940G85X028569Y-021945
X026029Y-021940G85X026029Y-021945
X028569Y-019400G85X028569Y-019405
X026029Y-019400G85X026029Y-019405
X026029Y-057500G85X026029Y-057505
X028569Y-057500G85X028569Y-057505
X069221Y-057528G85X069221Y-057534
X071761Y-057528G85X071761Y-057534
T07
X008128Y-036322
X008128Y-033782
X008128Y-031242
X008128Y-028702
X008128Y-026162
X008128Y-023622
X016256Y-090424
X016256Y-087884
X016256Y-085344
X016256Y-082804
X016256Y-080264
X016256Y-077724
X016256Y-075184
X016256Y-072644
T08
X064389Y-004953
X061849Y-004953
X059309Y-004953
X056769Y-004953
X054229Y-004953
X051689Y-004953
X037592Y-004953
X035052Y-004953
X032512Y-004953
X029972Y-004953
X027432Y-004953
X024892Y-004953
X050038Y-094996
X052578Y-094996
X055118Y-094996
X057658Y-094996
X060198Y-094996
X062738Y-094996
X026035Y-094615
X028575Y-094615
X031115Y-094615
X033655Y-094615
X036195Y-094615
X038735Y-094615
X010162Y-058928
X010162Y-056388
X010162Y-053848
X010159Y-051308
X003556Y-005236
X003556Y-007776
X003556Y-010316
X003556Y-012856
X003556Y-015396
X003556Y-017936
X095250Y-005363
X095250Y-007903
X095250Y-010443
X095250Y-012983
X095250Y-015523
X095250Y-018063
X008509Y-004982
X008509Y-007522
X008509Y-010062
X008509Y-012602
X008509Y-015142
X008509Y-017682
X090170Y-005363
X090170Y-007903
X090170Y-010443
X090170Y-012983
X090170Y-015523
X090170Y-018063
T09
X084328Y-012573
X084328Y-010033
X084328Y-007493
X084328Y-004953
T10
X083821Y-094900G85X083821Y-095600
X079121Y-094900G85X079121Y-095600
X074421Y-094900G85X074421Y-095600
T11
X090297Y-090932
X090297Y-085852
T12
X026289Y-071801G85X026289Y-071201
X026298Y-016256G85X026293Y-016256
X071634Y-016259G85X071634Y-016253
X071501Y-071801G85X071501Y-071201
T13
X004191Y-089281
X004191Y-073787
M30
