G04 Layer: TopSilkscreenLayer*
G04 EasyEDA v6.5.8, 2022-07-15 11:59:49*
G04 d1191fb9e1b14548bd0f93557d019ec9,639d141a17be428fa5966410475b8b1a,10*
G04 Gerber Generator version 0.2*
G04 Scale: 100 percent, Rotated: No, Reflected: No *
G04 Dimensions in millimeters *
G04 leading zeros omitted , absolute positions ,4 integer and 5 decimal *
%FSLAX45Y45*%
%MOMM*%

%ADD10C,0.1500*%
%ADD11C,0.2000*%
%ADD12C,0.1524*%
%ADD13C,0.1801*%
%ADD14C,0.2032*%
%ADD15C,0.3000*%
%ADD16C,0.2500*%
%ADD17C,0.2540*%
%ADD18C,0.1999*%
%ADD19C,0.2007*%
%ADD20C,0.1778*%
%ADD21C,0.1270*%
%ADD22C,0.7000*%
%ADD23C,0.0148*%

%LPD*%
G36*
X7538720Y-8947912D02*
G01*
X7529830Y-8959342D01*
X7405370Y-8959342D01*
X7406640Y-8964422D01*
X7500366Y-8964422D01*
X7500366Y-9019286D01*
X7459725Y-9019286D01*
X7459725Y-8964422D01*
X7444994Y-8964422D01*
X7444994Y-9019286D01*
X7398258Y-9019286D01*
X7399781Y-9024366D01*
X7444740Y-9024366D01*
X7443978Y-9036151D01*
X7442250Y-9047429D01*
X7440930Y-9052864D01*
X7439304Y-9058198D01*
X7437323Y-9063431D01*
X7434935Y-9068511D01*
X7432141Y-9073489D01*
X7428890Y-9078366D01*
X7425131Y-9083090D01*
X7420914Y-9087713D01*
X7416139Y-9092184D01*
X7410805Y-9096552D01*
X7404862Y-9100769D01*
X7398258Y-9104884D01*
X7400036Y-9107170D01*
X7407046Y-9104223D01*
X7413447Y-9101124D01*
X7419340Y-9097822D01*
X7424724Y-9094419D01*
X7429601Y-9090863D01*
X7434021Y-9087104D01*
X7437983Y-9083294D01*
X7441539Y-9079280D01*
X7444689Y-9075216D01*
X7447483Y-9071000D01*
X7449870Y-9066682D01*
X7451953Y-9062313D01*
X7453731Y-9057792D01*
X7455255Y-9053220D01*
X7456474Y-9048546D01*
X7458252Y-9039047D01*
X7459218Y-9029293D01*
X7459472Y-9024366D01*
X7500366Y-9024366D01*
X7500366Y-9106916D01*
X7502906Y-9106916D01*
X7508036Y-9106357D01*
X7511846Y-9105087D01*
X7514285Y-9103614D01*
X7515098Y-9102344D01*
X7515098Y-9024366D01*
X7559294Y-9024366D01*
X7561072Y-9024213D01*
X7562494Y-9023756D01*
X7563510Y-9022842D01*
X7564120Y-9021572D01*
X7559090Y-9016542D01*
X7547864Y-9006586D01*
X7538974Y-9019286D01*
X7515098Y-9019286D01*
X7515098Y-8964422D01*
X7550403Y-8964422D01*
X7552181Y-8964269D01*
X7553553Y-8963761D01*
X7554620Y-8962898D01*
X7555230Y-8961628D01*
G37*
G36*
X8411210Y-8956294D02*
G01*
X8407450Y-8966504D01*
X8402878Y-8977426D01*
X8397849Y-8988298D01*
X8392668Y-8998204D01*
X8312658Y-8998204D01*
X8314181Y-9003538D01*
X8372602Y-9003538D01*
X8372551Y-9032748D01*
X8372043Y-9039606D01*
X8371586Y-9042908D01*
X8301481Y-9042908D01*
X8303006Y-9047988D01*
X8371078Y-9047988D01*
X8370011Y-9052814D01*
X8368639Y-9057589D01*
X8366912Y-9062313D01*
X8364778Y-9066987D01*
X8362289Y-9071559D01*
X8359292Y-9076080D01*
X8355888Y-9080550D01*
X8351926Y-9084919D01*
X8347456Y-9089288D01*
X8342426Y-9093504D01*
X8336788Y-9097670D01*
X8330539Y-9101785D01*
X8323630Y-9105798D01*
X8316061Y-9109710D01*
X8307730Y-9113570D01*
X8298688Y-9117330D01*
X8299958Y-9120124D01*
X8308949Y-9117584D01*
X8317280Y-9114942D01*
X8325053Y-9112097D01*
X8332216Y-9109100D01*
X8338820Y-9106001D01*
X8344865Y-9102801D01*
X8350402Y-9099448D01*
X8355482Y-9095994D01*
X8360054Y-9092438D01*
X8364220Y-9088780D01*
X8367928Y-9085072D01*
X8371230Y-9081262D01*
X8374176Y-9077401D01*
X8376716Y-9073489D01*
X8378952Y-9069527D01*
X8380882Y-9065514D01*
X8382508Y-9061450D01*
X8384946Y-9053322D01*
X8385809Y-9049258D01*
X8387994Y-9055862D01*
X8390432Y-9062161D01*
X8393074Y-9068155D01*
X8395970Y-9073845D01*
X8399119Y-9079280D01*
X8402523Y-9084360D01*
X8406130Y-9089186D01*
X8410041Y-9093708D01*
X8414258Y-9097924D01*
X8418728Y-9101886D01*
X8423452Y-9105595D01*
X8428532Y-9108998D01*
X8433866Y-9112097D01*
X8439556Y-9114942D01*
X8445550Y-9117533D01*
X8451850Y-9119870D01*
X8453780Y-9114586D01*
X8456726Y-9110472D01*
X8460435Y-9107525D01*
X8464804Y-9105646D01*
X8465058Y-9103868D01*
X8458606Y-9102445D01*
X8452358Y-9100718D01*
X8446312Y-9098686D01*
X8440420Y-9096349D01*
X8434781Y-9093758D01*
X8429345Y-9090863D01*
X8424164Y-9087713D01*
X8419236Y-9084310D01*
X8414512Y-9080652D01*
X8410041Y-9076690D01*
X8405876Y-9072524D01*
X8401964Y-9068054D01*
X8398357Y-9063380D01*
X8395055Y-9058503D01*
X8392058Y-9053372D01*
X8389366Y-9047988D01*
X8457692Y-9047988D01*
X8459470Y-9047835D01*
X8460994Y-9047327D01*
X8462111Y-9046464D01*
X8462772Y-9045194D01*
X8444230Y-9030716D01*
X8434324Y-9042908D01*
X8387080Y-9042908D01*
X8387537Y-9036050D01*
X8387588Y-9003538D01*
X8447024Y-9003538D01*
X8448649Y-9003334D01*
X8450072Y-9002826D01*
X8451088Y-9001912D01*
X8451596Y-9000744D01*
X8446008Y-8995816D01*
X8433816Y-8986266D01*
X8424418Y-8998204D01*
X8397494Y-8998204D01*
X8405672Y-8990482D01*
X8413496Y-8982252D01*
X8420557Y-8974023D01*
X8426450Y-8966454D01*
X8428990Y-8966352D01*
X8430869Y-8965641D01*
X8432241Y-8964574D01*
X8433054Y-8963152D01*
G37*
G36*
X8335518Y-8957310D02*
G01*
X8333740Y-8958580D01*
X8340598Y-8965895D01*
X8344001Y-8970060D01*
X8347202Y-8974429D01*
X8350148Y-8978950D01*
X8352688Y-8983472D01*
X8354669Y-8987993D01*
X8356092Y-8992362D01*
X8358886Y-8993886D01*
X8361527Y-8994495D01*
X8363915Y-8994292D01*
X8365947Y-8993327D01*
X8367572Y-8991752D01*
X8368741Y-8989618D01*
X8369300Y-8987028D01*
X8369249Y-8984081D01*
X8368436Y-8980830D01*
X8366810Y-8977376D01*
X8364270Y-8973769D01*
X8360816Y-8970162D01*
X8356244Y-8966657D01*
X8350605Y-8963253D01*
X8343696Y-8960104D01*
G37*
G36*
X8681974Y-919987D02*
G01*
X8680704Y-931671D01*
X8636000Y-958087D01*
X8600186Y-934974D01*
X8598408Y-922528D01*
X8593836Y-922528D01*
X8593836Y-954278D01*
X8598408Y-954278D01*
X8600186Y-942086D01*
X8631174Y-960882D01*
X8599932Y-979169D01*
X8598408Y-966216D01*
X8593836Y-966216D01*
X8593836Y-1005586D01*
X8598408Y-1005586D01*
X8599678Y-993140D01*
X8641842Y-968502D01*
X8680196Y-993140D01*
X8681974Y-1006348D01*
X8686800Y-1006348D01*
X8686800Y-974852D01*
X8682228Y-974852D01*
X8680196Y-986536D01*
X8646414Y-965708D01*
X8680704Y-945642D01*
X8681974Y-958596D01*
X8686800Y-958596D01*
X8686800Y-919987D01*
G37*
G36*
X8618474Y-1011174D02*
G01*
X8593836Y-1011936D01*
X8593836Y-1088390D01*
X8618474Y-1089406D01*
X8618474Y-1082294D01*
X8599678Y-1078738D01*
X8599678Y-1056640D01*
X8680450Y-1056640D01*
X8681974Y-1071118D01*
X8686800Y-1071118D01*
X8686800Y-1029208D01*
X8681974Y-1029208D01*
X8680450Y-1043686D01*
X8627567Y-1043940D01*
X8599678Y-1043686D01*
X8599678Y-1021842D01*
X8618474Y-1017778D01*
G37*
G36*
X8681974Y-1191514D02*
G01*
X8680704Y-1203452D01*
X8636000Y-1229614D01*
X8600186Y-1206754D01*
X8598408Y-1194308D01*
X8593836Y-1194308D01*
X8593836Y-1226058D01*
X8598408Y-1226058D01*
X8600186Y-1213612D01*
X8631174Y-1232662D01*
X8599932Y-1250950D01*
X8598408Y-1237996D01*
X8593836Y-1237996D01*
X8593836Y-1277112D01*
X8598408Y-1277112D01*
X8599678Y-1264920D01*
X8641842Y-1240282D01*
X8680196Y-1264920D01*
X8681974Y-1278128D01*
X8686800Y-1278128D01*
X8686800Y-1246632D01*
X8682228Y-1246632D01*
X8680196Y-1258062D01*
X8646414Y-1237488D01*
X8680704Y-1217422D01*
X8681974Y-1230376D01*
X8686800Y-1230376D01*
X8686800Y-1191514D01*
G37*
G36*
X8681974Y-1282954D02*
G01*
X8680958Y-1293622D01*
X8659114Y-1300226D01*
X8652154Y-1302816D01*
X8647125Y-1306271D01*
X8643670Y-1310843D01*
X8641588Y-1316736D01*
X8640216Y-1311198D01*
X8638286Y-1306372D01*
X8635847Y-1302258D01*
X8632952Y-1298905D01*
X8629700Y-1296263D01*
X8626094Y-1294384D01*
X8622233Y-1293215D01*
X8618220Y-1292860D01*
X8612733Y-1293418D01*
X8607856Y-1295146D01*
X8603691Y-1297889D01*
X8600236Y-1301699D01*
X8597442Y-1306525D01*
X8595461Y-1312265D01*
X8594242Y-1318869D01*
X8593836Y-1326388D01*
X8593836Y-1339342D01*
X8599170Y-1339342D01*
X8599170Y-1327150D01*
X8600440Y-1317701D01*
X8604097Y-1311046D01*
X8609990Y-1307134D01*
X8617966Y-1305814D01*
X8625941Y-1307185D01*
X8632291Y-1311351D01*
X8636508Y-1318361D01*
X8638032Y-1328166D01*
X8638032Y-1339342D01*
X8593836Y-1339342D01*
X8593836Y-1365504D01*
X8598408Y-1365504D01*
X8599932Y-1352296D01*
X8653119Y-1352042D01*
X8680704Y-1352296D01*
X8681974Y-1365504D01*
X8686800Y-1365504D01*
X8686800Y-1326388D01*
X8681974Y-1326388D01*
X8680450Y-1339342D01*
X8643366Y-1339342D01*
X8643366Y-1331976D01*
X8643924Y-1324610D01*
X8646058Y-1319326D01*
X8650325Y-1315669D01*
X8657336Y-1313180D01*
X8679180Y-1307592D01*
X8683396Y-1305814D01*
X8686241Y-1303070D01*
X8687816Y-1299006D01*
X8688324Y-1293368D01*
X8687866Y-1287475D01*
X8686800Y-1282954D01*
G37*
G36*
X8601202Y-730250D02*
G01*
X8594394Y-730656D01*
X8587994Y-731926D01*
X8582050Y-733907D01*
X8576513Y-736600D01*
X8571534Y-740003D01*
X8567115Y-744016D01*
X8563254Y-748639D01*
X8560003Y-753770D01*
X8557412Y-759409D01*
X8555532Y-765454D01*
X8554364Y-771956D01*
X8553958Y-778764D01*
X8554364Y-785723D01*
X8555482Y-792276D01*
X8557361Y-798372D01*
X8559901Y-804062D01*
X8563102Y-809193D01*
X8566962Y-813816D01*
X8571331Y-817829D01*
X8576259Y-821232D01*
X8581694Y-823925D01*
X8587638Y-825906D01*
X8593937Y-827125D01*
X8600694Y-827532D01*
X8608923Y-826973D01*
X8616594Y-825347D01*
X8623960Y-822807D01*
X8631174Y-819403D01*
X8631428Y-786892D01*
X8639810Y-785876D01*
X8639810Y-781304D01*
X8603742Y-781304D01*
X8603742Y-785876D01*
X8618474Y-787146D01*
X8618474Y-818641D01*
X8614714Y-819912D01*
X8610904Y-820826D01*
X8607044Y-821283D01*
X8602980Y-821436D01*
X8597798Y-821131D01*
X8592972Y-820166D01*
X8588552Y-818540D01*
X8584488Y-816356D01*
X8580831Y-813562D01*
X8577580Y-810209D01*
X8574786Y-806246D01*
X8572449Y-801776D01*
X8570620Y-796798D01*
X8569299Y-791260D01*
X8568436Y-785266D01*
X8568182Y-778764D01*
X8568486Y-772261D01*
X8569350Y-766267D01*
X8570772Y-760780D01*
X8572703Y-755802D01*
X8575090Y-751332D01*
X8577935Y-747471D01*
X8581186Y-744118D01*
X8584844Y-741375D01*
X8588857Y-739190D01*
X8593175Y-737616D01*
X8597849Y-736650D01*
X8602726Y-736346D01*
X8606840Y-736600D01*
X8610803Y-737311D01*
X8614664Y-738581D01*
X8618474Y-740410D01*
X8621776Y-757682D01*
X8629142Y-757682D01*
X8629142Y-737108D01*
X8623198Y-734110D01*
X8616696Y-731977D01*
X8609431Y-730656D01*
G37*
G36*
X8647938Y-732536D02*
G01*
X8647938Y-737108D01*
X8657844Y-738378D01*
X8659114Y-740410D01*
X8658860Y-818896D01*
X8647176Y-820674D01*
X8647176Y-825500D01*
X8680196Y-825500D01*
X8680196Y-820674D01*
X8665210Y-818896D01*
X8664956Y-748538D01*
X8721852Y-826262D01*
X8726678Y-826262D01*
X8726932Y-738886D01*
X8738616Y-737108D01*
X8738616Y-732536D01*
X8705596Y-732536D01*
X8705596Y-737108D01*
X8720582Y-738886D01*
X8720836Y-803656D01*
X8669274Y-732536D01*
G37*
G36*
X8749030Y-732536D02*
G01*
X8749030Y-737108D01*
X8755634Y-737870D01*
X8787384Y-737870D01*
X8792464Y-738174D01*
X8797137Y-739038D01*
X8801455Y-740511D01*
X8805316Y-742543D01*
X8808770Y-745185D01*
X8811818Y-748334D01*
X8814409Y-752094D01*
X8816543Y-756361D01*
X8818219Y-761238D01*
X8819438Y-766622D01*
X8820150Y-772566D01*
X8820404Y-779018D01*
X8820150Y-785215D01*
X8819438Y-790956D01*
X8818168Y-796239D01*
X8816492Y-801014D01*
X8814308Y-805332D01*
X8811615Y-809091D01*
X8808516Y-812342D01*
X8804960Y-815035D01*
X8800896Y-817118D01*
X8796426Y-818641D01*
X8791498Y-819607D01*
X8786114Y-819912D01*
X8775192Y-819912D01*
X8775192Y-737870D01*
X8755634Y-737870D01*
X8762238Y-738632D01*
X8762492Y-795680D01*
X8762238Y-819403D01*
X8749030Y-820674D01*
X8749030Y-825500D01*
X8787130Y-825500D01*
X8793886Y-825144D01*
X8800287Y-824128D01*
X8806281Y-822401D01*
X8811818Y-820064D01*
X8816848Y-817067D01*
X8821369Y-813409D01*
X8825331Y-809142D01*
X8828633Y-804265D01*
X8831326Y-798830D01*
X8833256Y-792784D01*
X8834475Y-786180D01*
X8834882Y-779018D01*
X8834526Y-771804D01*
X8833408Y-765149D01*
X8831580Y-759104D01*
X8829141Y-753668D01*
X8826042Y-748792D01*
X8822385Y-744524D01*
X8818118Y-740918D01*
X8813342Y-737920D01*
X8808110Y-735584D01*
X8802370Y-733907D01*
X8796223Y-732891D01*
X8789670Y-732536D01*
G37*
D10*
X9503409Y-1981962D02*
G01*
X9457943Y-1981962D01*
X9453372Y-2022855D01*
X9457943Y-2018284D01*
X9471406Y-2013712D01*
X9485122Y-2013712D01*
X9498838Y-2018284D01*
X9507981Y-2027428D01*
X9512554Y-2040889D01*
X9512554Y-2050034D01*
X9507981Y-2063750D01*
X9498838Y-2072894D01*
X9485122Y-2077465D01*
X9471406Y-2077465D01*
X9457943Y-2072894D01*
X9453372Y-2068321D01*
X9448800Y-2059178D01*
X9542525Y-1981962D02*
G01*
X9578847Y-2077465D01*
X9615170Y-1981962D02*
G01*
X9578847Y-2077465D01*
X8958072Y-1979168D02*
G01*
X8953754Y-1970023D01*
X8944609Y-1961134D01*
X8935465Y-1956562D01*
X8917177Y-1956562D01*
X8908288Y-1961134D01*
X8899143Y-1970023D01*
X8894572Y-1979168D01*
X8890000Y-1992884D01*
X8890000Y-2015489D01*
X8894572Y-2029205D01*
X8899143Y-2038350D01*
X8908288Y-2047494D01*
X8917177Y-2052065D01*
X8935465Y-2052065D01*
X8944609Y-2047494D01*
X8953754Y-2038350D01*
X8958072Y-2029205D01*
X8958072Y-2015489D01*
X8935465Y-2015489D02*
G01*
X8958072Y-2015489D01*
X8988297Y-1956562D02*
G01*
X8988297Y-2052065D01*
X8988297Y-1956562D02*
G01*
X9051797Y-2052065D01*
X9051797Y-1956562D02*
G01*
X9051797Y-2052065D01*
X9081770Y-1956562D02*
G01*
X9081770Y-2052065D01*
X9081770Y-1956562D02*
G01*
X9113520Y-1956562D01*
X9127236Y-1961134D01*
X9136379Y-1970023D01*
X9140952Y-1979168D01*
X9145524Y-1992884D01*
X9145524Y-2015489D01*
X9140952Y-2029205D01*
X9136379Y-2038350D01*
X9127236Y-2047494D01*
X9113520Y-2052065D01*
X9081770Y-2052065D01*
X791971Y-1953768D02*
G01*
X787654Y-1944623D01*
X778510Y-1935734D01*
X769365Y-1931162D01*
X751078Y-1931162D01*
X742187Y-1935734D01*
X733044Y-1944623D01*
X728471Y-1953768D01*
X723900Y-1967484D01*
X723900Y-1990089D01*
X728471Y-2003805D01*
X733044Y-2012950D01*
X742187Y-2022094D01*
X751078Y-2026665D01*
X769365Y-2026665D01*
X778510Y-2022094D01*
X787654Y-2012950D01*
X791971Y-2003805D01*
X791971Y-1990089D01*
X769365Y-1990089D02*
G01*
X791971Y-1990089D01*
X822197Y-1931162D02*
G01*
X822197Y-2026665D01*
X822197Y-1931162D02*
G01*
X885697Y-2026665D01*
X885697Y-1931162D02*
G01*
X885697Y-2026665D01*
X915670Y-1931162D02*
G01*
X915670Y-2026665D01*
X915670Y-1931162D02*
G01*
X947420Y-1931162D01*
X961136Y-1935734D01*
X970279Y-1944623D01*
X974852Y-1953768D01*
X979423Y-1967484D01*
X979423Y-1990089D01*
X974852Y-2003805D01*
X970279Y-2012950D01*
X961136Y-2022094D01*
X947420Y-2026665D01*
X915670Y-2026665D01*
X237744Y-1956562D02*
G01*
X287781Y-1956562D01*
X260350Y-1992884D01*
X274065Y-1992884D01*
X283210Y-1997455D01*
X287781Y-2002028D01*
X292354Y-2015489D01*
X292354Y-2024634D01*
X287781Y-2038350D01*
X278637Y-2047494D01*
X264921Y-2052065D01*
X251205Y-2052065D01*
X237744Y-2047494D01*
X233171Y-2042921D01*
X228600Y-2033778D01*
X326897Y-2029205D02*
G01*
X322326Y-2033778D01*
X326897Y-2038350D01*
X331215Y-2033778D01*
X326897Y-2029205D01*
X370331Y-1956562D02*
G01*
X420370Y-1956562D01*
X393192Y-1992884D01*
X406907Y-1992884D01*
X415797Y-1997455D01*
X420370Y-2002028D01*
X424942Y-2015489D01*
X424942Y-2024634D01*
X420370Y-2038350D01*
X411226Y-2047494D01*
X397763Y-2052065D01*
X384047Y-2052065D01*
X370331Y-2047494D01*
X365760Y-2042921D01*
X361442Y-2033778D01*
X454913Y-1956562D02*
G01*
X491236Y-2052065D01*
X527812Y-1956562D02*
G01*
X491236Y-2052065D01*
X712723Y-5968745D02*
G01*
X703834Y-5977889D01*
X699262Y-5991605D01*
X699262Y-6009894D01*
X703834Y-6023355D01*
X712723Y-6032500D01*
X721868Y-6032500D01*
X731012Y-6027928D01*
X735584Y-6023355D01*
X740155Y-6014212D01*
X749300Y-5987034D01*
X753618Y-5977889D01*
X758189Y-5973318D01*
X767334Y-5968745D01*
X781050Y-5968745D01*
X790194Y-5977889D01*
X794765Y-5991605D01*
X794765Y-6009894D01*
X790194Y-6023355D01*
X781050Y-6032500D01*
X699262Y-5938773D02*
G01*
X794765Y-5938773D01*
X699262Y-5938773D02*
G01*
X699262Y-5907023D01*
X703834Y-5893307D01*
X712723Y-5884418D01*
X721868Y-5879845D01*
X735584Y-5875273D01*
X758189Y-5875273D01*
X771905Y-5879845D01*
X781050Y-5884418D01*
X790194Y-5893307D01*
X794765Y-5907023D01*
X794765Y-5938773D01*
X699262Y-5808979D02*
G01*
X794765Y-5845302D01*
X699262Y-5808979D02*
G01*
X794765Y-5772404D01*
X762762Y-5831586D02*
G01*
X762762Y-5786120D01*
X712723Y-5689345D02*
G01*
X703834Y-5698489D01*
X699262Y-5712205D01*
X699262Y-5730494D01*
X703834Y-5743955D01*
X712723Y-5753100D01*
X721868Y-5753100D01*
X731012Y-5748528D01*
X735584Y-5743955D01*
X740155Y-5734812D01*
X749300Y-5707634D01*
X753618Y-5698489D01*
X758189Y-5693918D01*
X767334Y-5689345D01*
X781050Y-5689345D01*
X790194Y-5698489D01*
X794765Y-5712205D01*
X794765Y-5730494D01*
X790194Y-5743955D01*
X781050Y-5753100D01*
X721868Y-5591302D02*
G01*
X712723Y-5595873D01*
X703834Y-5605018D01*
X699262Y-5613907D01*
X699262Y-5632195D01*
X703834Y-5641339D01*
X712723Y-5650484D01*
X721868Y-5654802D01*
X735584Y-5659373D01*
X758189Y-5659373D01*
X771905Y-5654802D01*
X781050Y-5650484D01*
X790194Y-5641339D01*
X794765Y-5632195D01*
X794765Y-5613907D01*
X790194Y-5605018D01*
X781050Y-5595873D01*
X771905Y-5591302D01*
X699262Y-5561329D02*
G01*
X794765Y-5561329D01*
X794765Y-5561329D02*
G01*
X794765Y-5506720D01*
X711962Y-5464555D02*
G01*
X711962Y-5414518D01*
X748284Y-5441950D01*
X748284Y-5428234D01*
X752855Y-5419089D01*
X757428Y-5414518D01*
X770889Y-5409945D01*
X780034Y-5409945D01*
X793750Y-5414518D01*
X802894Y-5423662D01*
X807465Y-5437378D01*
X807465Y-5451094D01*
X802894Y-5464555D01*
X798321Y-5469128D01*
X789178Y-5473700D01*
X784605Y-5375402D02*
G01*
X789178Y-5379973D01*
X793750Y-5375402D01*
X789178Y-5371084D01*
X784605Y-5375402D01*
X711962Y-5331968D02*
G01*
X711962Y-5281929D01*
X748284Y-5309107D01*
X748284Y-5295392D01*
X752855Y-5286502D01*
X757428Y-5281929D01*
X770889Y-5277357D01*
X780034Y-5277357D01*
X793750Y-5281929D01*
X802894Y-5291073D01*
X807465Y-5304536D01*
X807465Y-5318252D01*
X802894Y-5331968D01*
X798321Y-5336539D01*
X789178Y-5340857D01*
X734568Y-5177028D02*
G01*
X725423Y-5181345D01*
X716534Y-5190489D01*
X711962Y-5199634D01*
X711962Y-5217921D01*
X716534Y-5226812D01*
X725423Y-5235955D01*
X734568Y-5240528D01*
X748284Y-5245100D01*
X770889Y-5245100D01*
X784605Y-5240528D01*
X793750Y-5235955D01*
X802894Y-5226812D01*
X807465Y-5217921D01*
X807465Y-5199634D01*
X802894Y-5190489D01*
X793750Y-5181345D01*
X784605Y-5177028D01*
X770889Y-5177028D01*
X770889Y-5199634D02*
G01*
X770889Y-5177028D01*
X711962Y-5146802D02*
G01*
X807465Y-5146802D01*
X711962Y-5146802D02*
G01*
X807465Y-5083302D01*
X711962Y-5083302D02*
G01*
X807465Y-5083302D01*
X711962Y-5053329D02*
G01*
X807465Y-5053329D01*
X711962Y-5053329D02*
G01*
X711962Y-5021579D01*
X716534Y-5007863D01*
X725423Y-4998720D01*
X734568Y-4994147D01*
X748284Y-4989576D01*
X770889Y-4989576D01*
X784605Y-4994147D01*
X793750Y-4998720D01*
X802894Y-5007863D01*
X807465Y-5021579D01*
X807465Y-5053329D01*
X5243068Y-9139428D02*
G01*
X5233924Y-9143745D01*
X5225034Y-9152889D01*
X5220461Y-9162034D01*
X5220461Y-9180321D01*
X5225034Y-9189212D01*
X5233924Y-9198355D01*
X5243068Y-9202928D01*
X5256784Y-9207500D01*
X5279390Y-9207500D01*
X5293106Y-9202928D01*
X5302250Y-9198355D01*
X5311393Y-9189212D01*
X5315965Y-9180321D01*
X5315965Y-9162034D01*
X5311393Y-9152889D01*
X5302250Y-9143745D01*
X5293106Y-9139428D01*
X5279390Y-9139428D01*
X5279390Y-9162034D02*
G01*
X5279390Y-9139428D01*
X5220461Y-9109202D02*
G01*
X5315965Y-9109202D01*
X5220461Y-9109202D02*
G01*
X5315965Y-9045702D01*
X5220461Y-9045702D02*
G01*
X5315965Y-9045702D01*
X5220461Y-9015729D02*
G01*
X5315965Y-9015729D01*
X5220461Y-9015729D02*
G01*
X5220461Y-8983979D01*
X5225034Y-8970263D01*
X5233924Y-8961120D01*
X5243068Y-8956547D01*
X5256784Y-8951976D01*
X5279390Y-8951976D01*
X5293106Y-8956547D01*
X5302250Y-8961120D01*
X5311393Y-8970263D01*
X5315965Y-8983979D01*
X5315965Y-9015729D01*
X6236461Y-9232900D02*
G01*
X6331965Y-9232900D01*
X6236461Y-9232900D02*
G01*
X6331965Y-9196578D01*
X6236461Y-9160255D02*
G01*
X6331965Y-9196578D01*
X6236461Y-9160255D02*
G01*
X6331965Y-9160255D01*
X6290818Y-9130284D02*
G01*
X6290818Y-9048242D01*
X4915661Y-9232900D02*
G01*
X5011165Y-9232900D01*
X4915661Y-9232900D02*
G01*
X5011165Y-9196578D01*
X4915661Y-9160255D02*
G01*
X5011165Y-9196578D01*
X4915661Y-9160255D02*
G01*
X5011165Y-9160255D01*
X4929124Y-9089389D02*
G01*
X5011165Y-9089389D01*
X4970018Y-9130284D02*
G01*
X4970018Y-9048242D01*
X5982461Y-9140189D02*
G01*
X5982461Y-9185655D01*
X6023356Y-9190228D01*
X6018784Y-9185655D01*
X6014211Y-9172194D01*
X6014211Y-9158478D01*
X6018784Y-9144762D01*
X6027927Y-9135618D01*
X6041390Y-9131045D01*
X6050534Y-9131045D01*
X6064250Y-9135618D01*
X6073393Y-9144762D01*
X6077965Y-9158478D01*
X6077965Y-9172194D01*
X6073393Y-9185655D01*
X6068822Y-9190228D01*
X6059677Y-9194800D01*
X5982461Y-9101074D02*
G01*
X6077965Y-9064752D01*
X5982461Y-9028429D02*
G01*
X6077965Y-9064752D01*
X5715761Y-9107678D02*
G01*
X5811265Y-9144000D01*
X5715761Y-9107678D02*
G01*
X5811265Y-9071355D01*
X5779261Y-9130284D02*
G01*
X5779261Y-9084818D01*
X5449061Y-9144000D02*
G01*
X5544565Y-9144000D01*
X5449061Y-9144000D02*
G01*
X5449061Y-9103105D01*
X5453634Y-9089389D01*
X5458206Y-9084818D01*
X5467095Y-9080245D01*
X5476240Y-9080245D01*
X5485384Y-9084818D01*
X5489956Y-9089389D01*
X5494527Y-9103105D01*
X5494527Y-9144000D02*
G01*
X5494527Y-9103105D01*
X5499100Y-9089389D01*
X5503418Y-9084818D01*
X5512561Y-9080245D01*
X5526277Y-9080245D01*
X5535422Y-9084818D01*
X5539993Y-9089389D01*
X5544565Y-9103105D01*
X5544565Y-9144000D01*
X2528061Y-9169400D02*
G01*
X2623565Y-9169400D01*
X2528061Y-9169400D02*
G01*
X2623565Y-9133078D01*
X2528061Y-9096755D02*
G01*
X2623565Y-9133078D01*
X2528061Y-9096755D02*
G01*
X2623565Y-9096755D01*
X2541524Y-9025889D02*
G01*
X2623565Y-9025889D01*
X2582418Y-9066784D02*
G01*
X2582418Y-8984742D01*
X2855468Y-9075928D02*
G01*
X2846324Y-9080245D01*
X2837434Y-9089389D01*
X2832861Y-9098534D01*
X2832861Y-9116821D01*
X2837434Y-9125712D01*
X2846324Y-9134855D01*
X2855468Y-9139428D01*
X2869184Y-9144000D01*
X2891790Y-9144000D01*
X2905506Y-9139428D01*
X2914650Y-9134855D01*
X2923793Y-9125712D01*
X2928365Y-9116821D01*
X2928365Y-9098534D01*
X2923793Y-9089389D01*
X2914650Y-9080245D01*
X2905506Y-9075928D01*
X2891790Y-9075928D01*
X2891790Y-9098534D02*
G01*
X2891790Y-9075928D01*
X2832861Y-9045702D02*
G01*
X2928365Y-9045702D01*
X2832861Y-9045702D02*
G01*
X2928365Y-8982202D01*
X2832861Y-8982202D02*
G01*
X2928365Y-8982202D01*
X2832861Y-8952229D02*
G01*
X2928365Y-8952229D01*
X2832861Y-8952229D02*
G01*
X2832861Y-8920479D01*
X2837434Y-8906763D01*
X2846324Y-8897620D01*
X2855468Y-8893047D01*
X2869184Y-8888476D01*
X2891790Y-8888476D01*
X2905506Y-8893047D01*
X2914650Y-8897620D01*
X2923793Y-8906763D01*
X2928365Y-8920479D01*
X2928365Y-8952229D01*
X3594861Y-9076689D02*
G01*
X3594861Y-9122155D01*
X3635756Y-9126728D01*
X3631184Y-9122155D01*
X3626611Y-9108694D01*
X3626611Y-9094978D01*
X3631184Y-9081262D01*
X3640327Y-9072118D01*
X3653790Y-9067545D01*
X3662934Y-9067545D01*
X3676650Y-9072118D01*
X3685793Y-9081262D01*
X3690365Y-9094978D01*
X3690365Y-9108694D01*
X3685793Y-9122155D01*
X3681222Y-9126728D01*
X3672077Y-9131300D01*
X3594861Y-9037574D02*
G01*
X3690365Y-9001252D01*
X3594861Y-8964929D02*
G01*
X3690365Y-9001252D01*
X3848861Y-9169400D02*
G01*
X3944365Y-9169400D01*
X3848861Y-9169400D02*
G01*
X3944365Y-9133078D01*
X3848861Y-9096755D02*
G01*
X3944365Y-9133078D01*
X3848861Y-9096755D02*
G01*
X3944365Y-9096755D01*
X3903218Y-9066784D02*
G01*
X3903218Y-8984742D01*
X6514338Y-762000D02*
G01*
X6418834Y-762000D01*
X6514338Y-762000D02*
G01*
X6418834Y-798321D01*
X6514338Y-834644D02*
G01*
X6418834Y-798321D01*
X6514338Y-834644D02*
G01*
X6418834Y-834644D01*
X6500875Y-905510D02*
G01*
X6418834Y-905510D01*
X6459981Y-864615D02*
G01*
X6459981Y-946657D01*
X6186931Y-855471D02*
G01*
X6196075Y-851154D01*
X6204965Y-842010D01*
X6209538Y-832865D01*
X6209538Y-814578D01*
X6204965Y-805687D01*
X6196075Y-796544D01*
X6186931Y-791971D01*
X6173215Y-787400D01*
X6150609Y-787400D01*
X6136893Y-791971D01*
X6127750Y-796544D01*
X6118606Y-805687D01*
X6114034Y-814578D01*
X6114034Y-832865D01*
X6118606Y-842010D01*
X6127750Y-851154D01*
X6136893Y-855471D01*
X6150609Y-855471D01*
X6150609Y-832865D02*
G01*
X6150609Y-855471D01*
X6209538Y-885697D02*
G01*
X6114034Y-885697D01*
X6209538Y-885697D02*
G01*
X6114034Y-949197D01*
X6209538Y-949197D02*
G01*
X6114034Y-949197D01*
X6209538Y-979170D02*
G01*
X6114034Y-979170D01*
X6209538Y-979170D02*
G01*
X6209538Y-1010920D01*
X6204965Y-1024636D01*
X6196075Y-1033779D01*
X6186931Y-1038352D01*
X6173215Y-1042923D01*
X6150609Y-1042923D01*
X6136893Y-1038352D01*
X6127750Y-1033779D01*
X6118606Y-1024636D01*
X6114034Y-1010920D01*
X6114034Y-979170D01*
X5968238Y-825500D02*
G01*
X5872734Y-825500D01*
X5968238Y-825500D02*
G01*
X5968238Y-866394D01*
X5963665Y-880110D01*
X5959093Y-884681D01*
X5950204Y-889254D01*
X5941059Y-889254D01*
X5931915Y-884681D01*
X5927343Y-880110D01*
X5922772Y-866394D01*
X5922772Y-825500D02*
G01*
X5922772Y-866394D01*
X5918200Y-880110D01*
X5913881Y-884681D01*
X5904738Y-889254D01*
X5891022Y-889254D01*
X5881877Y-884681D01*
X5877306Y-880110D01*
X5872734Y-866394D01*
X5872734Y-825500D01*
X5726938Y-849121D02*
G01*
X5631434Y-812800D01*
X5726938Y-849121D02*
G01*
X5631434Y-885444D01*
X5663438Y-826515D02*
G01*
X5663438Y-871981D01*
X5447538Y-854710D02*
G01*
X5447538Y-809244D01*
X5406643Y-804671D01*
X5411215Y-809244D01*
X5415788Y-822705D01*
X5415788Y-836421D01*
X5411215Y-850137D01*
X5402072Y-859281D01*
X5388609Y-863854D01*
X5379465Y-863854D01*
X5365750Y-859281D01*
X5356606Y-850137D01*
X5352034Y-836421D01*
X5352034Y-822705D01*
X5356606Y-809244D01*
X5361177Y-804671D01*
X5370322Y-800100D01*
X5447538Y-893826D02*
G01*
X5352034Y-930147D01*
X5447538Y-966470D02*
G01*
X5352034Y-930147D01*
X5193538Y-762000D02*
G01*
X5098034Y-762000D01*
X5193538Y-762000D02*
G01*
X5098034Y-798321D01*
X5193538Y-834644D02*
G01*
X5098034Y-798321D01*
X5193538Y-834644D02*
G01*
X5098034Y-834644D01*
X5139181Y-864615D02*
G01*
X5139181Y-946657D01*
X3847338Y-787400D02*
G01*
X3751834Y-787400D01*
X3847338Y-787400D02*
G01*
X3751834Y-823721D01*
X3847338Y-860044D02*
G01*
X3751834Y-823721D01*
X3847338Y-860044D02*
G01*
X3751834Y-860044D01*
X3833875Y-930910D02*
G01*
X3751834Y-930910D01*
X3792981Y-890015D02*
G01*
X3792981Y-972057D01*
X3519931Y-880871D02*
G01*
X3529075Y-876554D01*
X3537965Y-867410D01*
X3542538Y-858265D01*
X3542538Y-839978D01*
X3537965Y-831087D01*
X3529075Y-821944D01*
X3519931Y-817371D01*
X3506215Y-812800D01*
X3483609Y-812800D01*
X3469893Y-817371D01*
X3460750Y-821944D01*
X3451606Y-831087D01*
X3447034Y-839978D01*
X3447034Y-858265D01*
X3451606Y-867410D01*
X3460750Y-876554D01*
X3469893Y-880871D01*
X3483609Y-880871D01*
X3483609Y-858265D02*
G01*
X3483609Y-880871D01*
X3542538Y-911097D02*
G01*
X3447034Y-911097D01*
X3542538Y-911097D02*
G01*
X3447034Y-974597D01*
X3542538Y-974597D02*
G01*
X3447034Y-974597D01*
X3542538Y-1004570D02*
G01*
X3447034Y-1004570D01*
X3542538Y-1004570D02*
G01*
X3542538Y-1036320D01*
X3537965Y-1050036D01*
X3529075Y-1059179D01*
X3519931Y-1063752D01*
X3506215Y-1068323D01*
X3483609Y-1068323D01*
X3469893Y-1063752D01*
X3460750Y-1059179D01*
X3451606Y-1050036D01*
X3447034Y-1036320D01*
X3447034Y-1004570D01*
X3275838Y-889000D02*
G01*
X3180334Y-889000D01*
X3275838Y-889000D02*
G01*
X3275838Y-929894D01*
X3271265Y-943610D01*
X3266693Y-948181D01*
X3257804Y-952754D01*
X3248659Y-952754D01*
X3239515Y-948181D01*
X3234943Y-943610D01*
X3230372Y-929894D01*
X3230372Y-889000D02*
G01*
X3230372Y-929894D01*
X3225800Y-943610D01*
X3221481Y-948181D01*
X3212338Y-952754D01*
X3198622Y-952754D01*
X3189477Y-948181D01*
X3184906Y-943610D01*
X3180334Y-929894D01*
X3180334Y-889000D01*
X3021838Y-912621D02*
G01*
X2926334Y-876300D01*
X3021838Y-912621D02*
G01*
X2926334Y-948944D01*
X2958338Y-890015D02*
G01*
X2958338Y-935481D01*
X2780538Y-880110D02*
G01*
X2780538Y-834644D01*
X2739643Y-830071D01*
X2744215Y-834644D01*
X2748788Y-848105D01*
X2748788Y-861821D01*
X2744215Y-875537D01*
X2735072Y-884681D01*
X2721609Y-889254D01*
X2712465Y-889254D01*
X2698750Y-884681D01*
X2689606Y-875537D01*
X2685034Y-861821D01*
X2685034Y-848105D01*
X2689606Y-834644D01*
X2694177Y-830071D01*
X2703322Y-825500D01*
X2780538Y-919226D02*
G01*
X2685034Y-955547D01*
X2780538Y-991870D02*
G01*
X2685034Y-955547D01*
X2526538Y-787400D02*
G01*
X2431034Y-787400D01*
X2526538Y-787400D02*
G01*
X2431034Y-823721D01*
X2526538Y-860044D02*
G01*
X2431034Y-823721D01*
X2526538Y-860044D02*
G01*
X2431034Y-860044D01*
X2472181Y-890015D02*
G01*
X2472181Y-972057D01*
X6769861Y-533400D02*
G01*
X6865365Y-533400D01*
X6769861Y-533400D02*
G01*
X6865365Y-497078D01*
X6769861Y-460755D02*
G01*
X6865365Y-497078D01*
X6769861Y-460755D02*
G01*
X6865365Y-460755D01*
X6787895Y-430784D02*
G01*
X6783324Y-421639D01*
X6769861Y-407923D01*
X6865365Y-407923D01*
X4077461Y-533400D02*
G01*
X4172965Y-533400D01*
X4077461Y-533400D02*
G01*
X4172965Y-497078D01*
X4077461Y-460755D02*
G01*
X4172965Y-497078D01*
X4077461Y-460755D02*
G01*
X4172965Y-460755D01*
X4100068Y-426212D02*
G01*
X4095495Y-426212D01*
X4086606Y-421639D01*
X4082034Y-417068D01*
X4077461Y-407923D01*
X4077461Y-389889D01*
X4082034Y-380745D01*
X4086606Y-376173D01*
X4095495Y-371602D01*
X4104640Y-371602D01*
X4113784Y-376173D01*
X4127500Y-385318D01*
X4172965Y-430784D01*
X4172965Y-367029D01*
X6592061Y-9652000D02*
G01*
X6687565Y-9652000D01*
X6592061Y-9652000D02*
G01*
X6687565Y-9615678D01*
X6592061Y-9579355D02*
G01*
X6687565Y-9615678D01*
X6592061Y-9579355D02*
G01*
X6687565Y-9579355D01*
X6592061Y-9540239D02*
G01*
X6592061Y-9490202D01*
X6628384Y-9517379D01*
X6628384Y-9503918D01*
X6632956Y-9494774D01*
X6637527Y-9490202D01*
X6650990Y-9485629D01*
X6660134Y-9485629D01*
X6673850Y-9490202D01*
X6682993Y-9499345D01*
X6687565Y-9512808D01*
X6687565Y-9526524D01*
X6682993Y-9540239D01*
X6678422Y-9544812D01*
X6669277Y-9549384D01*
X4191761Y-9601200D02*
G01*
X4287265Y-9601200D01*
X4191761Y-9601200D02*
G01*
X4287265Y-9564878D01*
X4191761Y-9528555D02*
G01*
X4287265Y-9564878D01*
X4191761Y-9528555D02*
G01*
X4287265Y-9528555D01*
X4191761Y-9453118D02*
G01*
X4255261Y-9498584D01*
X4255261Y-9430258D01*
X4191761Y-9453118D02*
G01*
X4287265Y-9453118D01*
X3340861Y-9056878D02*
G01*
X3436365Y-9093200D01*
X3340861Y-9056878D02*
G01*
X3436365Y-9020555D01*
X3404361Y-9079484D02*
G01*
X3404361Y-9034018D01*
X3061461Y-9080500D02*
G01*
X3156965Y-9080500D01*
X3061461Y-9080500D02*
G01*
X3061461Y-9039605D01*
X3066034Y-9025889D01*
X3070606Y-9021318D01*
X3079495Y-9016745D01*
X3088640Y-9016745D01*
X3097784Y-9021318D01*
X3102356Y-9025889D01*
X3106927Y-9039605D01*
X3106927Y-9080500D02*
G01*
X3106927Y-9039605D01*
X3111500Y-9025889D01*
X3115818Y-9021318D01*
X3124961Y-9016745D01*
X3138677Y-9016745D01*
X3147822Y-9021318D01*
X3152393Y-9025889D01*
X3156965Y-9039605D01*
X3156965Y-9080500D01*
D11*
X8732011Y-9216897D02*
G01*
X8732011Y-9053321D01*
X8813800Y-9135110D02*
G01*
X8650224Y-9135110D01*
X8826500Y-8589010D02*
G01*
X8662924Y-8589010D01*
D12*
X6628891Y-8011921D02*
G01*
X6618477Y-8017255D01*
X6608063Y-8027670D01*
X6602984Y-8037829D01*
X6602984Y-8058658D01*
X6608063Y-8069071D01*
X6618477Y-8079486D01*
X6628891Y-8084820D01*
X6644640Y-8089900D01*
X6670547Y-8089900D01*
X6686041Y-8084820D01*
X6696456Y-8079486D01*
X6706870Y-8069071D01*
X6711950Y-8058658D01*
X6711950Y-8037829D01*
X6706870Y-8027670D01*
X6696456Y-8017255D01*
X6686041Y-8011921D01*
X6623811Y-7977631D02*
G01*
X6618477Y-7967218D01*
X6602984Y-7951723D01*
X6711950Y-7951723D01*
D13*
X7079234Y-7836915D02*
G01*
X7179056Y-7836915D01*
X7129018Y-7886700D02*
G01*
X7129018Y-7786878D01*
D12*
X5767577Y-6209792D02*
G01*
X5762243Y-6199378D01*
X5751829Y-6188963D01*
X5741670Y-6183884D01*
X5720841Y-6183884D01*
X5710427Y-6188963D01*
X5700013Y-6199378D01*
X5694679Y-6209792D01*
X5689600Y-6225539D01*
X5689600Y-6251447D01*
X5694679Y-6266942D01*
X5700013Y-6277355D01*
X5710427Y-6287770D01*
X5720841Y-6292850D01*
X5741670Y-6292850D01*
X5751829Y-6287770D01*
X5762243Y-6277355D01*
X5767577Y-6266942D01*
X5806947Y-6209792D02*
G01*
X5806947Y-6204712D01*
X5812281Y-6194297D01*
X5817361Y-6188963D01*
X5827775Y-6183884D01*
X5848604Y-6183884D01*
X5859018Y-6188963D01*
X5864097Y-6194297D01*
X5869431Y-6204712D01*
X5869431Y-6215126D01*
X5864097Y-6225539D01*
X5853684Y-6241034D01*
X5801868Y-6292850D01*
X5874511Y-6292850D01*
D13*
X5942584Y-6660134D02*
G01*
X5942584Y-6759955D01*
X5892800Y-6709918D02*
G01*
X5992622Y-6709918D01*
D12*
X5767577Y-5447792D02*
G01*
X5762243Y-5437378D01*
X5751829Y-5426963D01*
X5741670Y-5421884D01*
X5720841Y-5421884D01*
X5710427Y-5426963D01*
X5700013Y-5437378D01*
X5694679Y-5447792D01*
X5689600Y-5463539D01*
X5689600Y-5489447D01*
X5694679Y-5504942D01*
X5700013Y-5515355D01*
X5710427Y-5525770D01*
X5720841Y-5530850D01*
X5741670Y-5530850D01*
X5751829Y-5525770D01*
X5762243Y-5515355D01*
X5767577Y-5504942D01*
X5827775Y-5421884D02*
G01*
X5812281Y-5426963D01*
X5806947Y-5437378D01*
X5806947Y-5447792D01*
X5812281Y-5458205D01*
X5822695Y-5463539D01*
X5843270Y-5468620D01*
X5859018Y-5473700D01*
X5869431Y-5484113D01*
X5874511Y-5494528D01*
X5874511Y-5510276D01*
X5869431Y-5520689D01*
X5864097Y-5525770D01*
X5848604Y-5530850D01*
X5827775Y-5530850D01*
X5812281Y-5525770D01*
X5806947Y-5520689D01*
X5801868Y-5510276D01*
X5801868Y-5494528D01*
X5806947Y-5484113D01*
X5817361Y-5473700D01*
X5833109Y-5468620D01*
X5853684Y-5463539D01*
X5864097Y-5458205D01*
X5869431Y-5447792D01*
X5869431Y-5437378D01*
X5864097Y-5426963D01*
X5848604Y-5421884D01*
X5827775Y-5421884D01*
D13*
X5942584Y-5898134D02*
G01*
X5942584Y-5997955D01*
X5892800Y-5947918D02*
G01*
X5992622Y-5947918D01*
D12*
X5780277Y-4279392D02*
G01*
X5774943Y-4268978D01*
X5764529Y-4258563D01*
X5754370Y-4253484D01*
X5733541Y-4253484D01*
X5723127Y-4258563D01*
X5712713Y-4268978D01*
X5707379Y-4279392D01*
X5702300Y-4295139D01*
X5702300Y-4321047D01*
X5707379Y-4336542D01*
X5712713Y-4346955D01*
X5723127Y-4357370D01*
X5733541Y-4362450D01*
X5754370Y-4362450D01*
X5764529Y-4357370D01*
X5774943Y-4346955D01*
X5780277Y-4336542D01*
X5882131Y-4289805D02*
G01*
X5876797Y-4305300D01*
X5866384Y-4315713D01*
X5850890Y-4321047D01*
X5845809Y-4321047D01*
X5830061Y-4315713D01*
X5819647Y-4305300D01*
X5814568Y-4289805D01*
X5814568Y-4284726D01*
X5819647Y-4268978D01*
X5830061Y-4258563D01*
X5845809Y-4253484D01*
X5850890Y-4253484D01*
X5866384Y-4258563D01*
X5876797Y-4268978D01*
X5882131Y-4289805D01*
X5882131Y-4315713D01*
X5876797Y-4341876D01*
X5866384Y-4357370D01*
X5850890Y-4362450D01*
X5840475Y-4362450D01*
X5824981Y-4357370D01*
X5819647Y-4346955D01*
D13*
X5955284Y-4729734D02*
G01*
X5955284Y-4829555D01*
X5905500Y-4779518D02*
G01*
X6005322Y-4779518D01*
D12*
X4627372Y-8098281D02*
G01*
X4616958Y-8103615D01*
X4606543Y-8114029D01*
X4601463Y-8124189D01*
X4601463Y-8145018D01*
X4606543Y-8155431D01*
X4616958Y-8165845D01*
X4627372Y-8171179D01*
X4643120Y-8176260D01*
X4669027Y-8176260D01*
X4684522Y-8171179D01*
X4694936Y-8165845D01*
X4705350Y-8155431D01*
X4710429Y-8145018D01*
X4710429Y-8124189D01*
X4705350Y-8114029D01*
X4694936Y-8103615D01*
X4684522Y-8098281D01*
X4601463Y-8053578D02*
G01*
X4601463Y-7996428D01*
X4643120Y-8027670D01*
X4643120Y-8012176D01*
X4648200Y-8001762D01*
X4653279Y-7996428D01*
X4669027Y-7991347D01*
X4679441Y-7991347D01*
X4694936Y-7996428D01*
X4705350Y-8006842D01*
X4710429Y-8022589D01*
X4710429Y-8038084D01*
X4705350Y-8053578D01*
X4700270Y-8058912D01*
X4689856Y-8063992D01*
X5313172Y-8098281D02*
G01*
X5302758Y-8103615D01*
X5292343Y-8114029D01*
X5287263Y-8124189D01*
X5287263Y-8145018D01*
X5292343Y-8155431D01*
X5302758Y-8165845D01*
X5313172Y-8171179D01*
X5328920Y-8176260D01*
X5354827Y-8176260D01*
X5370322Y-8171179D01*
X5380736Y-8165845D01*
X5391150Y-8155431D01*
X5396229Y-8145018D01*
X5396229Y-8124189D01*
X5391150Y-8114029D01*
X5380736Y-8103615D01*
X5370322Y-8098281D01*
X5287263Y-8012176D02*
G01*
X5359908Y-8063992D01*
X5359908Y-7986013D01*
X5287263Y-8012176D02*
G01*
X5396229Y-8012176D01*
X6011672Y-8085581D02*
G01*
X6001258Y-8090915D01*
X5990843Y-8101329D01*
X5985763Y-8111489D01*
X5985763Y-8132318D01*
X5990843Y-8142731D01*
X6001258Y-8153145D01*
X6011672Y-8158479D01*
X6027420Y-8163560D01*
X6053327Y-8163560D01*
X6068822Y-8158479D01*
X6079236Y-8153145D01*
X6089650Y-8142731D01*
X6094729Y-8132318D01*
X6094729Y-8111489D01*
X6089650Y-8101329D01*
X6079236Y-8090915D01*
X6068822Y-8085581D01*
X5985763Y-7978647D02*
G01*
X6094729Y-8030463D01*
X5985763Y-8051292D02*
G01*
X5985763Y-7978647D01*
X4038600Y-6871715D02*
G01*
X4038600Y-6762750D01*
X4038600Y-6871715D02*
G01*
X4002277Y-6871715D01*
X3986529Y-6866636D01*
X3976370Y-6856221D01*
X3971036Y-6845808D01*
X3965956Y-6830060D01*
X3965956Y-6804152D01*
X3971036Y-6788658D01*
X3976370Y-6778244D01*
X3986529Y-6767829D01*
X4002277Y-6762750D01*
X4038600Y-6762750D01*
X3931665Y-6850887D02*
G01*
X3921252Y-6856221D01*
X3905504Y-6871715D01*
X3905504Y-6762750D01*
D10*
X3918270Y-6580728D02*
G01*
X3918270Y-6539834D01*
X3938590Y-6560154D02*
G01*
X3897696Y-6560154D01*
D12*
X5256784Y-5168900D02*
G01*
X5365750Y-5168900D01*
X5256784Y-5168900D02*
G01*
X5256784Y-5132578D01*
X5261863Y-5116829D01*
X5272277Y-5106670D01*
X5282691Y-5101336D01*
X5298440Y-5096255D01*
X5324347Y-5096255D01*
X5339841Y-5101336D01*
X5350256Y-5106670D01*
X5360670Y-5116829D01*
X5365750Y-5132578D01*
X5365750Y-5168900D01*
X5256784Y-5009895D02*
G01*
X5329427Y-5061965D01*
X5329427Y-4983987D01*
X5256784Y-5009895D02*
G01*
X5365750Y-5009895D01*
D10*
X5547771Y-5048570D02*
G01*
X5588665Y-5048570D01*
X5568345Y-5068890D02*
G01*
X5568345Y-5027996D01*
D12*
X-965200Y-4001515D02*
G01*
X-965200Y-3892550D01*
X-1037844Y-4001515D02*
G01*
X-1037844Y-3892550D01*
X-965200Y-3949700D02*
G01*
X-1037844Y-3949700D01*
X-1072134Y-3980687D02*
G01*
X-1082547Y-3986021D01*
X-1098295Y-4001515D01*
X-1098295Y-3892550D01*
D14*
X602995Y-3686810D02*
G01*
X616712Y-3700526D01*
X637031Y-3707384D01*
X664463Y-3707384D01*
X684784Y-3700526D01*
X698500Y-3686810D01*
X698500Y-3673347D01*
X691642Y-3659631D01*
X684784Y-3652773D01*
X671321Y-3645915D01*
X630428Y-3632454D01*
X616712Y-3625595D01*
X609854Y-3618737D01*
X602995Y-3605021D01*
X602995Y-3584702D01*
X616712Y-3570986D01*
X637031Y-3564128D01*
X664463Y-3564128D01*
X684784Y-3570986D01*
X698500Y-3584702D01*
X510286Y-3707384D02*
G01*
X510286Y-3564128D01*
X558037Y-3707384D02*
G01*
X462534Y-3707384D01*
X362965Y-3707384D02*
G01*
X417576Y-3564128D01*
X362965Y-3707384D02*
G01*
X308610Y-3564128D01*
X397255Y-3611879D02*
G01*
X328929Y-3611879D01*
X215645Y-3707384D02*
G01*
X215645Y-3564128D01*
X263397Y-3707384D02*
G01*
X168147Y-3707384D01*
X122936Y-3707384D02*
G01*
X122936Y-3564128D01*
X122936Y-3707384D02*
G01*
X34289Y-3707384D01*
X122936Y-3639057D02*
G01*
X68579Y-3639057D01*
X122936Y-3564128D02*
G01*
X34289Y-3564128D01*
X685800Y-3466084D02*
G01*
X685800Y-3322828D01*
X685800Y-3466084D02*
G01*
X624331Y-3466084D01*
X604012Y-3459226D01*
X597154Y-3452368D01*
X590295Y-3438905D01*
X590295Y-3425189D01*
X597154Y-3411473D01*
X604012Y-3404615D01*
X624331Y-3397757D01*
X685800Y-3397757D01*
X638047Y-3397757D02*
G01*
X590295Y-3322828D01*
X545337Y-3466084D02*
G01*
X449834Y-3322828D01*
X449834Y-3466084D02*
G01*
X545337Y-3322828D01*
X638047Y-3199384D02*
G01*
X638047Y-3056128D01*
X685800Y-3199384D02*
G01*
X590295Y-3199384D01*
X545337Y-3199384D02*
G01*
X449834Y-3056128D01*
X449834Y-3199384D02*
G01*
X545337Y-3056128D01*
X583437Y-2911347D02*
G01*
X590295Y-2924810D01*
X604012Y-2938526D01*
X617728Y-2945384D01*
X644905Y-2945384D01*
X658621Y-2938526D01*
X672084Y-2924810D01*
X678942Y-2911347D01*
X685800Y-2890773D01*
X685800Y-2856737D01*
X678942Y-2836163D01*
X672084Y-2822702D01*
X658621Y-2808986D01*
X644905Y-2802128D01*
X617728Y-2802128D01*
X604012Y-2808986D01*
X590295Y-2822702D01*
X583437Y-2836163D01*
X583437Y-2856737D01*
X617728Y-2856737D02*
G01*
X583437Y-2856737D01*
X538479Y-2945384D02*
G01*
X538479Y-2802128D01*
X538479Y-2945384D02*
G01*
X442976Y-2802128D01*
X442976Y-2945384D02*
G01*
X442976Y-2802128D01*
X398018Y-2945384D02*
G01*
X398018Y-2802128D01*
X398018Y-2945384D02*
G01*
X350265Y-2945384D01*
X329945Y-2938526D01*
X316229Y-2924810D01*
X309371Y-2911347D01*
X302513Y-2890773D01*
X302513Y-2856737D01*
X309371Y-2836163D01*
X316229Y-2822702D01*
X329945Y-2808986D01*
X350265Y-2802128D01*
X398018Y-2802128D01*
X685800Y-2678684D02*
G01*
X631189Y-2535428D01*
X576834Y-2678684D02*
G01*
X631189Y-2535428D01*
X429513Y-2644647D02*
G01*
X436371Y-2658110D01*
X449834Y-2671826D01*
X463550Y-2678684D01*
X490728Y-2678684D01*
X504444Y-2671826D01*
X518160Y-2658110D01*
X524763Y-2644647D01*
X531621Y-2624073D01*
X531621Y-2590037D01*
X524763Y-2569463D01*
X518160Y-2556002D01*
X504444Y-2542286D01*
X490728Y-2535428D01*
X463550Y-2535428D01*
X449834Y-2542286D01*
X436371Y-2556002D01*
X429513Y-2569463D01*
X282194Y-2644647D02*
G01*
X289052Y-2658110D01*
X302513Y-2671826D01*
X316229Y-2678684D01*
X343407Y-2678684D01*
X357123Y-2671826D01*
X370839Y-2658110D01*
X377697Y-2644647D01*
X384555Y-2624073D01*
X384555Y-2590037D01*
X377697Y-2569463D01*
X370839Y-2556002D01*
X357123Y-2542286D01*
X343407Y-2535428D01*
X316229Y-2535428D01*
X302513Y-2542286D01*
X289052Y-2556002D01*
X282194Y-2569463D01*
X673100Y-2437384D02*
G01*
X673100Y-2294128D01*
X673100Y-2437384D02*
G01*
X584454Y-2437384D01*
X673100Y-2369057D02*
G01*
X618489Y-2369057D01*
X673100Y-2294128D02*
G01*
X584454Y-2294128D01*
X539495Y-2437384D02*
G01*
X539495Y-2294128D01*
X539495Y-2437384D02*
G01*
X443992Y-2294128D01*
X443992Y-2437384D02*
G01*
X443992Y-2294128D01*
D15*
X63500Y-3084068D02*
G01*
X63500Y-2797555D01*
X-127507Y-3084068D02*
G01*
X-127507Y-2797555D01*
X63500Y-2947670D02*
G01*
X-127507Y-2947670D01*
X-421894Y-3015742D02*
G01*
X-408431Y-3043173D01*
X-381000Y-3070352D01*
X-353821Y-3084068D01*
X-299212Y-3084068D01*
X-272034Y-3070352D01*
X-244602Y-3043173D01*
X-231139Y-3015742D01*
X-217423Y-2974847D01*
X-217423Y-2906776D01*
X-231139Y-2865881D01*
X-244602Y-2838450D01*
X-272034Y-2811271D01*
X-299212Y-2797555D01*
X-353821Y-2797555D01*
X-381000Y-2811271D01*
X-408431Y-2838450D01*
X-421894Y-2865881D01*
X-593852Y-3084068D02*
G01*
X-552957Y-3070352D01*
X-525526Y-3029457D01*
X-512063Y-2961386D01*
X-512063Y-2920492D01*
X-525526Y-2852165D01*
X-552957Y-2811271D01*
X-593852Y-2797555D01*
X-621029Y-2797555D01*
X-661923Y-2811271D01*
X-689102Y-2852165D01*
X-702818Y-2920492D01*
X-702818Y-2961386D01*
X-689102Y-3029457D01*
X-661923Y-3070352D01*
X-621029Y-3084068D01*
X-593852Y-3084068D01*
X-956563Y-3084068D02*
G01*
X-820165Y-3084068D01*
X-806450Y-2961386D01*
X-820165Y-2974847D01*
X-861060Y-2988563D01*
X-901954Y-2988563D01*
X-942847Y-2974847D01*
X-970026Y-2947670D01*
X-983742Y-2906776D01*
X-983742Y-2879597D01*
X-970026Y-2838450D01*
X-942847Y-2811271D01*
X-901954Y-2797555D01*
X-861060Y-2797555D01*
X-820165Y-2811271D01*
X-806450Y-2824987D01*
X-792987Y-2852165D01*
X-1319276Y-3138678D02*
G01*
X-1073657Y-2702305D01*
X-1490979Y-3084068D02*
G01*
X-1450086Y-3070352D01*
X-1422907Y-3029457D01*
X-1409192Y-2961386D01*
X-1409192Y-2920492D01*
X-1422907Y-2852165D01*
X-1450086Y-2811271D01*
X-1490979Y-2797555D01*
X-1518412Y-2797555D01*
X-1559305Y-2811271D01*
X-1586484Y-2852165D01*
X-1600200Y-2920492D01*
X-1600200Y-2961386D01*
X-1586484Y-3029457D01*
X-1559305Y-3070352D01*
X-1518412Y-3084068D01*
X-1490979Y-3084068D01*
X-1853692Y-3043173D02*
G01*
X-1840229Y-3070352D01*
X-1799336Y-3084068D01*
X-1771904Y-3084068D01*
X-1731010Y-3070352D01*
X-1703831Y-3029457D01*
X-1690115Y-2961386D01*
X-1690115Y-2893060D01*
X-1703831Y-2838450D01*
X-1731010Y-2811271D01*
X-1771904Y-2797555D01*
X-1785620Y-2797555D01*
X-1826513Y-2811271D01*
X-1853692Y-2838450D01*
X-1867407Y-2879597D01*
X-1867407Y-2893060D01*
X-1853692Y-2933954D01*
X-1826513Y-2961386D01*
X-1785620Y-2974847D01*
X-1771904Y-2974847D01*
X-1731010Y-2961386D01*
X-1703831Y-2933954D01*
X-1690115Y-2893060D01*
X-2202942Y-3138678D02*
G01*
X-1957323Y-2702305D01*
X-2374645Y-3084068D02*
G01*
X-2333752Y-3070352D01*
X-2306573Y-3029457D01*
X-2292857Y-2961386D01*
X-2292857Y-2920492D01*
X-2306573Y-2852165D01*
X-2333752Y-2811271D01*
X-2374645Y-2797555D01*
X-2401823Y-2797555D01*
X-2442971Y-2811271D01*
X-2470150Y-2852165D01*
X-2483865Y-2920492D01*
X-2483865Y-2961386D01*
X-2470150Y-3029457D01*
X-2442971Y-3070352D01*
X-2401823Y-3084068D01*
X-2374645Y-3084068D01*
X-2641854Y-3084068D02*
G01*
X-2600960Y-3070352D01*
X-2587497Y-3043173D01*
X-2587497Y-3015742D01*
X-2600960Y-2988563D01*
X-2628392Y-2974847D01*
X-2682747Y-2961386D01*
X-2723642Y-2947670D01*
X-2751073Y-2920492D01*
X-2764789Y-2893060D01*
X-2764789Y-2852165D01*
X-2751073Y-2824987D01*
X-2737357Y-2811271D01*
X-2696463Y-2797555D01*
X-2641854Y-2797555D01*
X-2600960Y-2811271D01*
X-2587497Y-2824987D01*
X-2573781Y-2852165D01*
X-2573781Y-2893060D01*
X-2587497Y-2920492D01*
X-2614676Y-2947670D01*
X-2655570Y-2961386D01*
X-2710179Y-2974847D01*
X-2737357Y-2988563D01*
X-2751073Y-3015742D01*
X-2751073Y-3043173D01*
X-2737357Y-3070352D01*
X-2696463Y-3084068D01*
X-2641854Y-3084068D01*
D12*
X4890134Y-1268984D02*
G01*
X4890134Y-1377950D01*
X5002402Y-1294892D02*
G01*
X4997068Y-1284478D01*
X4986654Y-1274063D01*
X4976495Y-1268984D01*
X4955666Y-1268984D01*
X4945252Y-1274063D01*
X4934838Y-1284478D01*
X4929504Y-1294892D01*
X4924425Y-1310639D01*
X4924425Y-1336547D01*
X4929504Y-1352042D01*
X4934838Y-1362455D01*
X4945252Y-1372870D01*
X4955666Y-1377950D01*
X4976495Y-1377950D01*
X4986654Y-1372870D01*
X4997068Y-1362455D01*
X5002402Y-1352042D01*
X5036693Y-1289812D02*
G01*
X5047106Y-1284478D01*
X5062600Y-1268984D01*
X5062600Y-1377950D01*
X8177784Y-836929D02*
G01*
X8260841Y-836929D01*
X8276590Y-842263D01*
X8281670Y-847344D01*
X8286750Y-857757D01*
X8286750Y-868171D01*
X8281670Y-878586D01*
X8276590Y-883920D01*
X8260841Y-889000D01*
X8250427Y-889000D01*
X8177784Y-740410D02*
G01*
X8177784Y-792479D01*
X8224520Y-797560D01*
X8219440Y-792479D01*
X8214106Y-776731D01*
X8214106Y-761237D01*
X8219440Y-745489D01*
X8229600Y-735329D01*
X8245347Y-729995D01*
X8255761Y-729995D01*
X8271256Y-735329D01*
X8281670Y-745489D01*
X8286750Y-761237D01*
X8286750Y-776731D01*
X8281670Y-792479D01*
X8276590Y-797560D01*
X8266175Y-802639D01*
X1325473Y-5535828D02*
G01*
X1320393Y-5525414D01*
X1309979Y-5515000D01*
X1299565Y-5509666D01*
X1283817Y-5504586D01*
X1257909Y-5504586D01*
X1242415Y-5509666D01*
X1232001Y-5515000D01*
X1221587Y-5525414D01*
X1216507Y-5535828D01*
X1216507Y-5556656D01*
X1221587Y-5566816D01*
X1232001Y-5577230D01*
X1242415Y-5582564D01*
X1257909Y-5587644D01*
X1283817Y-5587644D01*
X1299565Y-5582564D01*
X1309979Y-5577230D01*
X1320393Y-5566816D01*
X1325473Y-5556656D01*
X1325473Y-5535828D01*
X1325473Y-5621934D02*
G01*
X1216507Y-5621934D01*
X1216507Y-5621934D02*
G01*
X1216507Y-5684418D01*
X1325473Y-5718708D02*
G01*
X1216507Y-5718708D01*
X1325473Y-5718708D02*
G01*
X1325473Y-5786272D01*
X1273657Y-5718708D02*
G01*
X1273657Y-5760110D01*
X1216507Y-5718708D02*
G01*
X1216507Y-5786272D01*
X1325473Y-5820562D02*
G01*
X1216507Y-5820562D01*
X1325473Y-5820562D02*
G01*
X1325473Y-5856884D01*
X1320393Y-5872378D01*
X1309979Y-5882792D01*
X1299565Y-5888126D01*
X1283817Y-5893206D01*
X1257909Y-5893206D01*
X1242415Y-5888126D01*
X1232001Y-5882792D01*
X1221587Y-5872378D01*
X1216507Y-5856884D01*
X1216507Y-5820562D01*
X1304645Y-5927496D02*
G01*
X1309979Y-5937910D01*
X1325473Y-5953404D01*
X1216507Y-5953404D01*
D16*
X56781Y-4936238D02*
G01*
X-57769Y-4936238D01*
X56781Y-4972306D02*
G01*
X-57769Y-4972306D01*
X29352Y-5090160D02*
G01*
X40266Y-5084569D01*
X51191Y-5073652D01*
X56781Y-5062728D01*
X56781Y-5040881D01*
X51191Y-5029964D01*
X40266Y-5019042D01*
X29352Y-5013705D01*
X13091Y-5008115D01*
X-14079Y-5008115D01*
X-30599Y-5013705D01*
X-41518Y-5019042D01*
X-52438Y-5029964D01*
X-57769Y-5040881D01*
X-57769Y-5062728D01*
X-52438Y-5073652D01*
X-41518Y-5084569D01*
X-30599Y-5090160D01*
X-8747Y-5125976D02*
G01*
X-8747Y-5224269D01*
X29352Y-5342128D02*
G01*
X40266Y-5336542D01*
X51191Y-5325615D01*
X56781Y-5314698D01*
X56781Y-5292854D01*
X51191Y-5281924D01*
X40266Y-5271010D01*
X29352Y-5265676D01*
X13091Y-5260088D01*
X-14079Y-5260088D01*
X-30599Y-5265676D01*
X-41518Y-5271010D01*
X-52438Y-5281924D01*
X-57769Y-5292854D01*
X-57769Y-5314698D01*
X-52438Y-5325615D01*
X-41518Y-5336542D01*
X-30599Y-5342128D01*
X18430Y-5405376D02*
G01*
X13091Y-5394454D01*
X2166Y-5383524D01*
X-14079Y-5377942D01*
X-25008Y-5377942D01*
X-41518Y-5383524D01*
X-52438Y-5394454D01*
X-57769Y-5405376D01*
X-57769Y-5421624D01*
X-52438Y-5432554D01*
X-41518Y-5443476D01*
X-25008Y-5448810D01*
X-14079Y-5448810D01*
X2166Y-5443476D01*
X13091Y-5432554D01*
X18430Y-5421624D01*
X18430Y-5405376D01*
X18430Y-5484873D02*
G01*
X-57769Y-5484873D01*
X-3418Y-5484873D02*
G01*
X13091Y-5501388D01*
X18430Y-5512310D01*
X18430Y-5528563D01*
X13091Y-5539488D01*
X-3418Y-5544820D01*
X-57769Y-5544820D01*
X18430Y-5580882D02*
G01*
X-57769Y-5580882D01*
X-3418Y-5580882D02*
G01*
X13091Y-5597146D01*
X18430Y-5608068D01*
X18430Y-5624573D01*
X13091Y-5635500D01*
X-3418Y-5640834D01*
X-57769Y-5640834D01*
X-14079Y-5676902D02*
G01*
X-14079Y-5742434D01*
X-3418Y-5742434D01*
X7500Y-5736846D01*
X13091Y-5731510D01*
X18430Y-5720582D01*
X18430Y-5704078D01*
X13091Y-5693155D01*
X2166Y-5682231D01*
X-14079Y-5676902D01*
X-25008Y-5676902D01*
X-41518Y-5682231D01*
X-52438Y-5693155D01*
X-57769Y-5704078D01*
X-57769Y-5720582D01*
X-52438Y-5731510D01*
X-41518Y-5742434D01*
X2166Y-5843778D02*
G01*
X13091Y-5832855D01*
X18430Y-5821931D01*
X18430Y-5805678D01*
X13091Y-5794755D01*
X2166Y-5783831D01*
X-14079Y-5778248D01*
X-25008Y-5778248D01*
X-41518Y-5783831D01*
X-52438Y-5794755D01*
X-57769Y-5805678D01*
X-57769Y-5821931D01*
X-52438Y-5832855D01*
X-41518Y-5843778D01*
X56781Y-5896104D02*
G01*
X-35933Y-5896104D01*
X-52438Y-5901692D01*
X-57769Y-5912614D01*
X-57769Y-5923531D01*
X18430Y-5879848D02*
G01*
X18430Y-5917948D01*
X18430Y-5986774D02*
G01*
X13091Y-5975860D01*
X2166Y-5964938D01*
X-14079Y-5959350D01*
X-25008Y-5959350D01*
X-41518Y-5964938D01*
X-52438Y-5975860D01*
X-57769Y-5986774D01*
X-57769Y-6003038D01*
X-52438Y-6013960D01*
X-41518Y-6024874D01*
X-25008Y-6030213D01*
X-14079Y-6030213D01*
X2166Y-6024874D01*
X13091Y-6013960D01*
X18430Y-6003038D01*
X18430Y-5986774D01*
X18430Y-6066284D02*
G01*
X-57769Y-6066284D01*
X-14079Y-6066284D02*
G01*
X2166Y-6071870D01*
X13091Y-6082792D01*
X18430Y-6093713D01*
X18430Y-6109970D01*
X281315Y-5144518D02*
G01*
X275981Y-5128260D01*
X259730Y-5117332D01*
X232290Y-5111752D01*
X216039Y-5111752D01*
X188610Y-5117332D01*
X172349Y-5128260D01*
X167015Y-5144518D01*
X167015Y-5155432D01*
X172349Y-5171950D01*
X188610Y-5182870D01*
X216039Y-5188206D01*
X232290Y-5188206D01*
X259730Y-5182870D01*
X275981Y-5171950D01*
X281315Y-5155432D01*
X281315Y-5144518D01*
X194190Y-5229605D02*
G01*
X188610Y-5224269D01*
X183273Y-5229605D01*
X188610Y-5235196D01*
X194190Y-5229605D01*
X243215Y-5342128D02*
G01*
X226961Y-5336542D01*
X216039Y-5325615D01*
X210449Y-5309364D01*
X210449Y-5303776D01*
X216039Y-5287515D01*
X226961Y-5276598D01*
X243215Y-5271010D01*
X248800Y-5271010D01*
X265061Y-5276598D01*
X275981Y-5287515D01*
X281315Y-5303776D01*
X281315Y-5309364D01*
X275981Y-5325615D01*
X265061Y-5336542D01*
X243215Y-5342128D01*
X216039Y-5342128D01*
X188610Y-5336542D01*
X172349Y-5325615D01*
X167015Y-5309364D01*
X167015Y-5298442D01*
X172349Y-5281924D01*
X183273Y-5276598D01*
X265061Y-5443476D02*
G01*
X275981Y-5438142D01*
X281315Y-5421624D01*
X281315Y-5410710D01*
X275981Y-5394454D01*
X259730Y-5383524D01*
X232290Y-5377942D01*
X205115Y-5377942D01*
X183273Y-5383524D01*
X172349Y-5394454D01*
X167015Y-5410710D01*
X167015Y-5416298D01*
X172349Y-5432554D01*
X183273Y-5443476D01*
X199524Y-5449064D01*
X205115Y-5449064D01*
X221373Y-5443476D01*
X232290Y-5432554D01*
X237881Y-5416298D01*
X237881Y-5410710D01*
X232290Y-5394454D01*
X221373Y-5383524D01*
X205115Y-5377942D01*
X270652Y-5495800D02*
G01*
X275981Y-5490463D01*
X281315Y-5495800D01*
X275981Y-5501388D01*
X265061Y-5501388D01*
X254139Y-5495800D01*
X248800Y-5490463D01*
X254139Y-5495800D02*
G01*
X243215Y-5484873D01*
X232290Y-5484873D01*
X226961Y-5490463D01*
X232290Y-5495800D01*
X237881Y-5490463D01*
X232290Y-5484873D01*
X281315Y-5569968D02*
G01*
X275981Y-5559046D01*
X265061Y-5548119D01*
X254139Y-5542782D01*
X237881Y-5537202D01*
X210449Y-5537202D01*
X194190Y-5542782D01*
X183273Y-5548119D01*
X172349Y-5559046D01*
X167015Y-5569968D01*
X167015Y-5591810D01*
X172349Y-5602734D01*
X183273Y-5613656D01*
X194190Y-5619242D01*
X210449Y-5624573D01*
X237881Y-5624573D01*
X254139Y-5619242D01*
X265061Y-5613656D01*
X275981Y-5602734D01*
X281315Y-5591810D01*
X281315Y-5569968D01*
X281315Y-5660646D02*
G01*
X167015Y-5660646D01*
X167015Y-5660646D02*
G01*
X167015Y-5725919D01*
X281315Y-5761992D02*
G01*
X167015Y-5761992D01*
X281315Y-5761992D02*
G01*
X281315Y-5832855D01*
X226961Y-5761992D02*
G01*
X226961Y-5805678D01*
X167015Y-5761992D02*
G01*
X167015Y-5832855D01*
X281315Y-5868926D02*
G01*
X167015Y-5868926D01*
X281315Y-5868926D02*
G01*
X281315Y-5907026D01*
X275981Y-5923531D01*
X265061Y-5934455D01*
X254139Y-5939792D01*
X237881Y-5945378D01*
X210449Y-5945378D01*
X194190Y-5939792D01*
X183273Y-5934455D01*
X172349Y-5923531D01*
X167015Y-5907026D01*
X167015Y-5868926D01*
D12*
X355600Y-265684D02*
G01*
X355600Y-374650D01*
X355600Y-265684D02*
G01*
X402336Y-265684D01*
X417829Y-270763D01*
X423163Y-276097D01*
X428244Y-286512D01*
X428244Y-302005D01*
X423163Y-312420D01*
X417829Y-317500D01*
X402336Y-322834D01*
X355600Y-322834D01*
X462534Y-286512D02*
G01*
X472947Y-281178D01*
X488695Y-265684D01*
X488695Y-374650D01*
X9525000Y-278384D02*
G01*
X9525000Y-387350D01*
X9525000Y-278384D02*
G01*
X9571736Y-278384D01*
X9587229Y-283463D01*
X9592563Y-288797D01*
X9597643Y-299212D01*
X9597643Y-314705D01*
X9592563Y-325120D01*
X9587229Y-330200D01*
X9571736Y-335534D01*
X9525000Y-335534D01*
X9637268Y-304292D02*
G01*
X9637268Y-299212D01*
X9642347Y-288797D01*
X9647681Y-283463D01*
X9658095Y-278384D01*
X9678670Y-278384D01*
X9689084Y-283463D01*
X9694418Y-288797D01*
X9699497Y-299212D01*
X9699497Y-309626D01*
X9694418Y-320039D01*
X9684004Y-335534D01*
X9631934Y-387350D01*
X9704831Y-387350D01*
X850900Y-240284D02*
G01*
X850900Y-349250D01*
X850900Y-240284D02*
G01*
X897636Y-240284D01*
X913129Y-245363D01*
X918463Y-250697D01*
X923544Y-261112D01*
X923544Y-276605D01*
X918463Y-287020D01*
X913129Y-292100D01*
X897636Y-297434D01*
X850900Y-297434D01*
X968247Y-240284D02*
G01*
X1025397Y-240284D01*
X994410Y-281939D01*
X1009904Y-281939D01*
X1020318Y-287020D01*
X1025397Y-292100D01*
X1030731Y-307847D01*
X1030731Y-318262D01*
X1025397Y-333755D01*
X1014984Y-344170D01*
X999489Y-349250D01*
X983995Y-349250D01*
X968247Y-344170D01*
X963168Y-339089D01*
X957834Y-328676D01*
X9017000Y-278384D02*
G01*
X9017000Y-387350D01*
X9017000Y-278384D02*
G01*
X9063736Y-278384D01*
X9079229Y-283463D01*
X9084563Y-288797D01*
X9089643Y-299212D01*
X9089643Y-314705D01*
X9084563Y-325120D01*
X9079229Y-330200D01*
X9063736Y-335534D01*
X9017000Y-335534D01*
X9176004Y-278384D02*
G01*
X9123934Y-351028D01*
X9201911Y-351028D01*
X9176004Y-278384D02*
G01*
X9176004Y-387350D01*
X4889500Y-7265415D02*
G01*
X4889500Y-7156450D01*
X4889500Y-7265415D02*
G01*
X4842763Y-7265415D01*
X4827270Y-7260336D01*
X4821936Y-7255002D01*
X4816856Y-7244587D01*
X4816856Y-7234173D01*
X4821936Y-7223760D01*
X4827270Y-7218679D01*
X4842763Y-7213600D01*
X4889500Y-7213600D01*
X4853177Y-7213600D02*
G01*
X4816856Y-7156450D01*
X4782565Y-7244587D02*
G01*
X4772152Y-7249921D01*
X4756404Y-7265415D01*
X4756404Y-7156450D01*
X6311900Y-7354315D02*
G01*
X6311900Y-7245350D01*
X6311900Y-7354315D02*
G01*
X6265163Y-7354315D01*
X6249670Y-7349236D01*
X6244336Y-7343902D01*
X6239256Y-7333487D01*
X6239256Y-7323073D01*
X6244336Y-7312660D01*
X6249670Y-7307579D01*
X6265163Y-7302500D01*
X6311900Y-7302500D01*
X6275577Y-7302500D02*
G01*
X6239256Y-7245350D01*
X6199631Y-7328408D02*
G01*
X6199631Y-7333487D01*
X6194552Y-7343902D01*
X6189218Y-7349236D01*
X6178804Y-7354315D01*
X6158229Y-7354315D01*
X6147815Y-7349236D01*
X6142481Y-7343902D01*
X6137402Y-7333487D01*
X6137402Y-7323073D01*
X6142481Y-7312660D01*
X6152895Y-7297165D01*
X6204965Y-7245350D01*
X6132068Y-7245350D01*
X5296915Y-5918200D02*
G01*
X5187950Y-5918200D01*
X5296915Y-5918200D02*
G01*
X5296915Y-5964936D01*
X5291836Y-5980429D01*
X5286502Y-5985763D01*
X5276088Y-5990844D01*
X5265674Y-5990844D01*
X5255259Y-5985763D01*
X5250179Y-5980429D01*
X5245100Y-5964936D01*
X5245100Y-5918200D01*
X5245100Y-5954521D02*
G01*
X5187950Y-5990844D01*
X5296915Y-6035547D02*
G01*
X5296915Y-6092697D01*
X5255259Y-6061710D01*
X5255259Y-6077204D01*
X5250179Y-6087618D01*
X5245100Y-6092697D01*
X5229352Y-6098031D01*
X5218938Y-6098031D01*
X5203443Y-6092697D01*
X5193029Y-6082284D01*
X5187950Y-6066789D01*
X5187950Y-6051295D01*
X5193029Y-6035547D01*
X5198109Y-6030468D01*
X5208524Y-6025134D01*
X4418584Y-5842000D02*
G01*
X4527550Y-5842000D01*
X4418584Y-5842000D02*
G01*
X4418584Y-5795263D01*
X4423663Y-5779770D01*
X4428997Y-5774436D01*
X4439411Y-5769355D01*
X4449825Y-5769355D01*
X4460240Y-5774436D01*
X4465320Y-5779770D01*
X4470400Y-5795263D01*
X4470400Y-5842000D01*
X4470400Y-5805678D02*
G01*
X4527550Y-5769355D01*
X4418584Y-5682995D02*
G01*
X4491227Y-5735065D01*
X4491227Y-5657087D01*
X4418584Y-5682995D02*
G01*
X4527550Y-5682995D01*
X7839456Y-10056621D02*
G01*
X7849870Y-10067036D01*
X7865363Y-10072115D01*
X7886191Y-10072115D01*
X7901686Y-10067036D01*
X7912100Y-10056621D01*
X7912100Y-10046208D01*
X7907020Y-10035794D01*
X7901686Y-10030460D01*
X7891272Y-10025379D01*
X7860029Y-10014965D01*
X7849870Y-10009886D01*
X7844536Y-10004552D01*
X7839456Y-9994137D01*
X7839456Y-9978644D01*
X7849870Y-9968229D01*
X7865363Y-9963150D01*
X7886191Y-9963150D01*
X7901686Y-9968229D01*
X7912100Y-9978644D01*
X7805165Y-10072115D02*
G01*
X7779004Y-9963150D01*
X7753095Y-10072115D02*
G01*
X7779004Y-9963150D01*
X7753095Y-10072115D02*
G01*
X7727188Y-9963150D01*
X7701279Y-10072115D02*
G01*
X7727188Y-9963150D01*
X7666990Y-10051287D02*
G01*
X7656575Y-10056621D01*
X7640827Y-10072115D01*
X7640827Y-9963150D01*
X8890000Y-2132584D02*
G01*
X8890000Y-2210562D01*
X8895079Y-2226055D01*
X8905493Y-2236470D01*
X8921241Y-2241550D01*
X8931656Y-2241550D01*
X8947150Y-2236470D01*
X8957563Y-2226055D01*
X8962643Y-2210562D01*
X8962643Y-2132584D01*
X8996934Y-2153412D02*
G01*
X9007347Y-2148078D01*
X9023095Y-2132584D01*
X9023095Y-2241550D01*
D14*
X8242300Y-2598928D02*
G01*
X8279129Y-2695955D01*
X8316213Y-2598928D02*
G01*
X8279129Y-2695955D01*
X8416036Y-2622042D02*
G01*
X8411209Y-2612644D01*
X8402065Y-2603500D01*
X8392922Y-2598928D01*
X8374379Y-2598928D01*
X8365236Y-2603500D01*
X8355838Y-2612644D01*
X8351265Y-2622042D01*
X8346693Y-2635757D01*
X8346693Y-2658871D01*
X8351265Y-2672842D01*
X8355838Y-2681986D01*
X8365236Y-2691129D01*
X8374379Y-2695955D01*
X8392922Y-2695955D01*
X8402065Y-2691129D01*
X8411209Y-2681986D01*
X8416036Y-2672842D01*
X8515604Y-2622042D02*
G01*
X8511031Y-2612644D01*
X8501888Y-2603500D01*
X8492490Y-2598928D01*
X8474202Y-2598928D01*
X8464804Y-2603500D01*
X8455659Y-2612644D01*
X8451088Y-2622042D01*
X8446515Y-2635757D01*
X8446515Y-2658871D01*
X8451088Y-2672842D01*
X8455659Y-2681986D01*
X8464804Y-2691129D01*
X8474202Y-2695955D01*
X8492490Y-2695955D01*
X8501888Y-2691129D01*
X8511031Y-2681986D01*
X8515604Y-2672842D01*
X8311641Y-2876042D02*
G01*
X8307070Y-2866644D01*
X8297672Y-2857500D01*
X8288527Y-2852928D01*
X8269986Y-2852928D01*
X8260841Y-2857500D01*
X8251443Y-2866644D01*
X8246872Y-2876042D01*
X8242300Y-2889757D01*
X8242300Y-2912871D01*
X8246872Y-2926842D01*
X8251443Y-2935986D01*
X8260841Y-2945129D01*
X8269986Y-2949955D01*
X8288527Y-2949955D01*
X8297672Y-2945129D01*
X8307070Y-2935986D01*
X8311641Y-2926842D01*
X8311641Y-2912871D01*
X8288527Y-2912871D02*
G01*
X8311641Y-2912871D01*
X8342122Y-2852928D02*
G01*
X8342122Y-2949955D01*
X8342122Y-2852928D02*
G01*
X8406638Y-2949955D01*
X8406638Y-2852928D02*
G01*
X8406638Y-2949955D01*
X8437118Y-2852928D02*
G01*
X8437118Y-2949955D01*
X8437118Y-2852928D02*
G01*
X8469629Y-2852928D01*
X8483345Y-2857500D01*
X8492490Y-2866644D01*
X8497315Y-2876042D01*
X8501888Y-2889757D01*
X8501888Y-2912871D01*
X8497315Y-2926842D01*
X8492490Y-2935986D01*
X8483345Y-2945129D01*
X8469629Y-2949955D01*
X8437118Y-2949955D01*
X8279129Y-3106928D02*
G01*
X8242300Y-3203955D01*
X8279129Y-3106928D02*
G01*
X8316213Y-3203955D01*
X8256270Y-3171444D02*
G01*
X8302243Y-3171444D01*
X8374379Y-3106928D02*
G01*
X8365236Y-3111500D01*
X8355838Y-3120644D01*
X8351265Y-3130042D01*
X8346693Y-3143757D01*
X8346693Y-3166871D01*
X8351265Y-3180842D01*
X8355838Y-3189986D01*
X8365236Y-3199129D01*
X8374379Y-3203955D01*
X8392922Y-3203955D01*
X8402065Y-3199129D01*
X8411209Y-3189986D01*
X8416036Y-3180842D01*
X8420608Y-3166871D01*
X8420608Y-3143757D01*
X8416036Y-3130042D01*
X8411209Y-3120644D01*
X8402065Y-3111500D01*
X8392922Y-3106928D01*
X8374379Y-3106928D01*
X8451088Y-3125470D02*
G01*
X8460231Y-3120644D01*
X8474202Y-3106928D01*
X8474202Y-3203955D01*
X8242300Y-3868928D02*
G01*
X8242300Y-3965955D01*
X8242300Y-3868928D02*
G01*
X8283956Y-3868928D01*
X8297672Y-3873500D01*
X8302243Y-3878071D01*
X8307070Y-3887470D01*
X8307070Y-3896613D01*
X8302243Y-3905757D01*
X8297672Y-3910329D01*
X8283956Y-3915155D01*
X8242300Y-3915155D02*
G01*
X8283956Y-3915155D01*
X8297672Y-3919728D01*
X8302243Y-3924300D01*
X8307070Y-3933444D01*
X8307070Y-3947413D01*
X8302243Y-3956557D01*
X8297672Y-3961129D01*
X8283956Y-3965955D01*
X8242300Y-3965955D01*
X8365236Y-3868928D02*
G01*
X8355838Y-3873500D01*
X8346693Y-3882644D01*
X8342122Y-3892042D01*
X8337550Y-3905757D01*
X8337550Y-3928871D01*
X8342122Y-3942842D01*
X8346693Y-3951986D01*
X8355838Y-3961129D01*
X8365236Y-3965955D01*
X8383524Y-3965955D01*
X8392922Y-3961129D01*
X8402065Y-3951986D01*
X8406638Y-3942842D01*
X8411209Y-3928871D01*
X8411209Y-3905757D01*
X8406638Y-3892042D01*
X8402065Y-3882644D01*
X8392922Y-3873500D01*
X8383524Y-3868928D01*
X8365236Y-3868928D01*
X8441690Y-3887470D02*
G01*
X8451088Y-3882644D01*
X8464804Y-3868928D01*
X8464804Y-3965955D01*
X8311641Y-4146042D02*
G01*
X8307070Y-4136644D01*
X8297672Y-4127500D01*
X8288527Y-4122928D01*
X8269986Y-4122928D01*
X8260841Y-4127500D01*
X8251443Y-4136644D01*
X8246872Y-4146042D01*
X8242300Y-4159757D01*
X8242300Y-4182871D01*
X8246872Y-4196842D01*
X8251443Y-4205986D01*
X8260841Y-4215129D01*
X8269986Y-4219955D01*
X8288527Y-4219955D01*
X8297672Y-4215129D01*
X8307070Y-4205986D01*
X8311641Y-4196842D01*
X8311641Y-4182871D01*
X8288527Y-4182871D02*
G01*
X8311641Y-4182871D01*
X8342122Y-4122928D02*
G01*
X8342122Y-4219955D01*
X8342122Y-4122928D02*
G01*
X8406638Y-4219955D01*
X8406638Y-4122928D02*
G01*
X8406638Y-4219955D01*
X8437118Y-4122928D02*
G01*
X8437118Y-4219955D01*
X8437118Y-4122928D02*
G01*
X8469629Y-4122928D01*
X8483345Y-4127500D01*
X8492490Y-4136644D01*
X8497315Y-4146042D01*
X8501888Y-4159757D01*
X8501888Y-4182871D01*
X8497315Y-4196842D01*
X8492490Y-4205986D01*
X8483345Y-4215129D01*
X8469629Y-4219955D01*
X8437118Y-4219955D01*
X9340341Y-4146042D02*
G01*
X9335770Y-4136644D01*
X9326372Y-4127500D01*
X9317227Y-4122928D01*
X9298686Y-4122928D01*
X9289541Y-4127500D01*
X9280143Y-4136644D01*
X9275572Y-4146042D01*
X9271000Y-4159757D01*
X9271000Y-4182871D01*
X9275572Y-4196842D01*
X9280143Y-4205986D01*
X9289541Y-4215129D01*
X9298686Y-4219955D01*
X9317227Y-4219955D01*
X9326372Y-4215129D01*
X9335770Y-4205986D01*
X9340341Y-4196842D01*
X9340341Y-4182871D01*
X9317227Y-4182871D02*
G01*
X9340341Y-4182871D01*
X9370822Y-4122928D02*
G01*
X9370822Y-4219955D01*
X9370822Y-4122928D02*
G01*
X9435338Y-4219955D01*
X9435338Y-4122928D02*
G01*
X9435338Y-4219955D01*
X9465818Y-4122928D02*
G01*
X9465818Y-4219955D01*
X9465818Y-4122928D02*
G01*
X9498329Y-4122928D01*
X9512045Y-4127500D01*
X9521190Y-4136644D01*
X9526015Y-4146042D01*
X9530588Y-4159757D01*
X9530588Y-4182871D01*
X9526015Y-4196842D01*
X9521190Y-4205986D01*
X9512045Y-4215129D01*
X9498329Y-4219955D01*
X9465818Y-4219955D01*
X9144000Y-3868928D02*
G01*
X9144000Y-3965955D01*
X9144000Y-3868928D02*
G01*
X9185656Y-3868928D01*
X9199372Y-3873500D01*
X9203943Y-3878071D01*
X9208770Y-3887470D01*
X9208770Y-3901186D01*
X9203943Y-3910329D01*
X9199372Y-3915155D01*
X9185656Y-3919728D01*
X9144000Y-3919728D01*
X9239250Y-3868928D02*
G01*
X9262109Y-3965955D01*
X9285224Y-3868928D02*
G01*
X9262109Y-3965955D01*
X9285224Y-3868928D02*
G01*
X9308338Y-3965955D01*
X9331452Y-3868928D02*
G01*
X9308338Y-3965955D01*
X9361931Y-3868928D02*
G01*
X9361931Y-3965955D01*
X9361931Y-3868928D02*
G01*
X9399015Y-3965955D01*
X9435845Y-3868928D02*
G01*
X9399015Y-3965955D01*
X9435845Y-3868928D02*
G01*
X9435845Y-3965955D01*
X9466325Y-3868928D02*
G01*
X9466325Y-3965955D01*
X9466325Y-3868928D02*
G01*
X9507981Y-3868928D01*
X9521697Y-3873500D01*
X9526270Y-3878071D01*
X9531095Y-3887470D01*
X9531095Y-3896613D01*
X9526270Y-3905757D01*
X9521697Y-3910329D01*
X9507981Y-3915155D01*
X9466325Y-3915155D02*
G01*
X9507981Y-3915155D01*
X9521697Y-3919728D01*
X9526270Y-3924300D01*
X9531095Y-3933444D01*
X9531095Y-3947413D01*
X9526270Y-3956557D01*
X9521697Y-3961129D01*
X9507981Y-3965955D01*
X9466325Y-3965955D01*
X9245600Y-3614928D02*
G01*
X9245600Y-3711955D01*
X9245600Y-3614928D02*
G01*
X9287256Y-3614928D01*
X9300972Y-3619500D01*
X9305543Y-3624071D01*
X9310370Y-3633470D01*
X9310370Y-3642613D01*
X9305543Y-3651757D01*
X9300972Y-3656329D01*
X9287256Y-3661155D01*
X9245600Y-3661155D02*
G01*
X9287256Y-3661155D01*
X9300972Y-3665728D01*
X9305543Y-3670300D01*
X9310370Y-3679444D01*
X9310370Y-3693413D01*
X9305543Y-3702557D01*
X9300972Y-3707129D01*
X9287256Y-3711955D01*
X9245600Y-3711955D01*
X9340850Y-3614928D02*
G01*
X9340850Y-3711955D01*
X9371329Y-3614928D02*
G01*
X9371329Y-3711955D01*
X9371329Y-3614928D02*
G01*
X9435845Y-3711955D01*
X9435845Y-3614928D02*
G01*
X9435845Y-3711955D01*
X9470897Y-3638042D02*
G01*
X9470897Y-3633470D01*
X9475470Y-3624071D01*
X9480295Y-3619500D01*
X9489440Y-3614928D01*
X9507981Y-3614928D01*
X9517125Y-3619500D01*
X9521697Y-3624071D01*
X9526270Y-3633470D01*
X9526270Y-3642613D01*
X9521697Y-3651757D01*
X9512554Y-3665728D01*
X9466325Y-3711955D01*
X9531095Y-3711955D01*
X9271000Y-3386328D02*
G01*
X9271000Y-3483355D01*
X9271000Y-3386328D02*
G01*
X9312656Y-3386328D01*
X9326372Y-3390900D01*
X9330943Y-3395471D01*
X9335770Y-3404870D01*
X9335770Y-3414013D01*
X9330943Y-3423157D01*
X9326372Y-3427729D01*
X9312656Y-3432555D01*
X9271000Y-3432555D02*
G01*
X9312656Y-3432555D01*
X9326372Y-3437128D01*
X9330943Y-3441700D01*
X9335770Y-3450844D01*
X9335770Y-3464813D01*
X9330943Y-3473957D01*
X9326372Y-3478529D01*
X9312656Y-3483355D01*
X9271000Y-3483355D01*
X9366250Y-3386328D02*
G01*
X9366250Y-3483355D01*
X9396729Y-3386328D02*
G01*
X9396729Y-3483355D01*
X9396729Y-3386328D02*
G01*
X9461245Y-3483355D01*
X9461245Y-3386328D02*
G01*
X9461245Y-3483355D01*
X9491725Y-3404870D02*
G01*
X9500870Y-3400044D01*
X9514840Y-3386328D01*
X9514840Y-3483355D01*
X9234170Y-3120644D02*
G01*
X9224772Y-3111500D01*
X9211056Y-3106928D01*
X9192513Y-3106928D01*
X9178543Y-3111500D01*
X9169400Y-3120644D01*
X9169400Y-3130042D01*
X9173972Y-3139186D01*
X9178543Y-3143757D01*
X9187941Y-3148329D01*
X9215627Y-3157728D01*
X9224772Y-3162300D01*
X9229343Y-3166871D01*
X9234170Y-3176270D01*
X9234170Y-3189986D01*
X9224772Y-3199129D01*
X9211056Y-3203955D01*
X9192513Y-3203955D01*
X9178543Y-3199129D01*
X9169400Y-3189986D01*
X9296908Y-3106928D02*
G01*
X9296908Y-3203955D01*
X9264650Y-3106928D02*
G01*
X9329165Y-3106928D01*
X9359645Y-3106928D02*
G01*
X9359645Y-3203955D01*
X9359645Y-3106928D02*
G01*
X9401302Y-3106928D01*
X9415018Y-3111500D01*
X9419590Y-3116071D01*
X9424415Y-3125470D01*
X9424415Y-3134613D01*
X9419590Y-3143757D01*
X9415018Y-3148329D01*
X9401302Y-3153155D01*
X9359645Y-3153155D02*
G01*
X9401302Y-3153155D01*
X9415018Y-3157728D01*
X9419590Y-3162300D01*
X9424415Y-3171444D01*
X9424415Y-3185413D01*
X9419590Y-3194557D01*
X9415018Y-3199129D01*
X9401302Y-3203955D01*
X9359645Y-3203955D01*
X9454895Y-3106928D02*
G01*
X9491725Y-3153155D01*
X9491725Y-3203955D01*
X9528809Y-3106928D02*
G01*
X9491725Y-3153155D01*
X9307829Y-2852928D02*
G01*
X9271000Y-2949955D01*
X9307829Y-2852928D02*
G01*
X9344913Y-2949955D01*
X9284970Y-2917444D02*
G01*
X9330943Y-2917444D01*
X9375393Y-2852928D02*
G01*
X9375393Y-2949955D01*
X9405874Y-2852928D02*
G01*
X9405874Y-2949955D01*
X9405874Y-2852928D02*
G01*
X9470390Y-2949955D01*
X9470390Y-2852928D02*
G01*
X9470390Y-2949955D01*
X9500870Y-2871470D02*
G01*
X9510268Y-2866644D01*
X9523984Y-2852928D01*
X9523984Y-2949955D01*
X9282429Y-2598928D02*
G01*
X9245600Y-2695955D01*
X9282429Y-2598928D02*
G01*
X9319513Y-2695955D01*
X9259570Y-2663444D02*
G01*
X9305543Y-2663444D01*
X9349993Y-2598928D02*
G01*
X9349993Y-2695955D01*
X9380474Y-2598928D02*
G01*
X9380474Y-2695955D01*
X9380474Y-2598928D02*
G01*
X9444990Y-2695955D01*
X9444990Y-2598928D02*
G01*
X9444990Y-2695955D01*
X9480295Y-2622042D02*
G01*
X9480295Y-2617470D01*
X9484868Y-2608071D01*
X9489440Y-2603500D01*
X9498584Y-2598928D01*
X9517125Y-2598928D01*
X9526270Y-2603500D01*
X9531095Y-2608071D01*
X9535668Y-2617470D01*
X9535668Y-2626613D01*
X9531095Y-2635757D01*
X9521697Y-2649728D01*
X9475470Y-2695955D01*
X9540240Y-2695955D01*
X9144000Y-2344928D02*
G01*
X9144000Y-2441955D01*
X9144000Y-2344928D02*
G01*
X9185656Y-2344928D01*
X9199372Y-2349500D01*
X9203943Y-2354071D01*
X9208770Y-2363470D01*
X9208770Y-2377186D01*
X9203943Y-2386329D01*
X9199372Y-2391155D01*
X9185656Y-2395728D01*
X9144000Y-2395728D01*
X9239250Y-2344928D02*
G01*
X9262109Y-2441955D01*
X9285224Y-2344928D02*
G01*
X9262109Y-2441955D01*
X9285224Y-2344928D02*
G01*
X9308338Y-2441955D01*
X9331452Y-2344928D02*
G01*
X9308338Y-2441955D01*
X9361931Y-2344928D02*
G01*
X9361931Y-2441955D01*
X9361931Y-2344928D02*
G01*
X9399015Y-2441955D01*
X9435845Y-2344928D02*
G01*
X9399015Y-2441955D01*
X9435845Y-2344928D02*
G01*
X9435845Y-2441955D01*
X9503409Y-2344928D02*
G01*
X9466325Y-2441955D01*
X9503409Y-2344928D02*
G01*
X9540240Y-2441955D01*
X9480295Y-2409444D02*
G01*
X9526270Y-2409444D01*
X8242300Y-2344928D02*
G01*
X8279129Y-2441955D01*
X8316213Y-2344928D02*
G01*
X8279129Y-2441955D01*
X8346693Y-2344928D02*
G01*
X8346693Y-2441955D01*
X8346693Y-2344928D02*
G01*
X8383524Y-2441955D01*
X8420608Y-2344928D02*
G01*
X8383524Y-2441955D01*
X8420608Y-2344928D02*
G01*
X8420608Y-2441955D01*
X8279129Y-3360928D02*
G01*
X8242300Y-3457955D01*
X8279129Y-3360928D02*
G01*
X8316213Y-3457955D01*
X8256270Y-3425444D02*
G01*
X8302243Y-3425444D01*
X8374379Y-3360928D02*
G01*
X8365236Y-3365500D01*
X8355838Y-3374644D01*
X8351265Y-3384042D01*
X8346693Y-3397757D01*
X8346693Y-3420871D01*
X8351265Y-3434842D01*
X8355838Y-3443986D01*
X8365236Y-3453129D01*
X8374379Y-3457955D01*
X8392922Y-3457955D01*
X8402065Y-3453129D01*
X8411209Y-3443986D01*
X8416036Y-3434842D01*
X8420608Y-3420871D01*
X8420608Y-3397757D01*
X8416036Y-3384042D01*
X8411209Y-3374644D01*
X8402065Y-3365500D01*
X8392922Y-3360928D01*
X8374379Y-3360928D01*
X8455659Y-3384042D02*
G01*
X8455659Y-3379470D01*
X8460231Y-3370071D01*
X8464804Y-3365500D01*
X8474202Y-3360928D01*
X8492490Y-3360928D01*
X8501888Y-3365500D01*
X8506459Y-3370071D01*
X8511031Y-3379470D01*
X8511031Y-3388613D01*
X8506459Y-3397757D01*
X8497315Y-3411728D01*
X8451088Y-3457955D01*
X8515604Y-3457955D01*
X8242300Y-3614928D02*
G01*
X8242300Y-3711955D01*
X8242300Y-3614928D02*
G01*
X8283956Y-3614928D01*
X8297672Y-3619500D01*
X8302243Y-3624071D01*
X8307070Y-3633470D01*
X8307070Y-3642613D01*
X8302243Y-3651757D01*
X8297672Y-3656329D01*
X8283956Y-3661155D01*
X8242300Y-3661155D02*
G01*
X8283956Y-3661155D01*
X8297672Y-3665728D01*
X8302243Y-3670300D01*
X8307070Y-3679444D01*
X8307070Y-3693413D01*
X8302243Y-3702557D01*
X8297672Y-3707129D01*
X8283956Y-3711955D01*
X8242300Y-3711955D01*
X8365236Y-3614928D02*
G01*
X8355838Y-3619500D01*
X8346693Y-3628644D01*
X8342122Y-3638042D01*
X8337550Y-3651757D01*
X8337550Y-3674871D01*
X8342122Y-3688842D01*
X8346693Y-3697986D01*
X8355838Y-3707129D01*
X8365236Y-3711955D01*
X8383524Y-3711955D01*
X8392922Y-3707129D01*
X8402065Y-3697986D01*
X8406638Y-3688842D01*
X8411209Y-3674871D01*
X8411209Y-3651757D01*
X8406638Y-3638042D01*
X8402065Y-3628644D01*
X8392922Y-3619500D01*
X8383524Y-3614928D01*
X8365236Y-3614928D01*
X8446515Y-3638042D02*
G01*
X8446515Y-3633470D01*
X8451088Y-3624071D01*
X8455659Y-3619500D01*
X8464804Y-3614928D01*
X8483345Y-3614928D01*
X8492490Y-3619500D01*
X8497315Y-3624071D01*
X8501888Y-3633470D01*
X8501888Y-3642613D01*
X8497315Y-3651757D01*
X8487918Y-3665728D01*
X8441690Y-3711955D01*
X8506459Y-3711955D01*
D12*
X8890000Y-4367784D02*
G01*
X8890000Y-4445762D01*
X8895079Y-4461255D01*
X8905493Y-4471670D01*
X8921241Y-4476750D01*
X8931656Y-4476750D01*
X8947150Y-4471670D01*
X8957563Y-4461255D01*
X8962643Y-4445762D01*
X8962643Y-4367784D01*
X9002268Y-4393692D02*
G01*
X9002268Y-4388612D01*
X9007347Y-4378197D01*
X9012681Y-4372863D01*
X9023095Y-4367784D01*
X9043670Y-4367784D01*
X9054084Y-4372863D01*
X9059418Y-4378197D01*
X9064497Y-4388612D01*
X9064497Y-4399026D01*
X9059418Y-4409439D01*
X9049004Y-4424934D01*
X8996934Y-4476750D01*
X9069831Y-4476750D01*
D14*
X8242300Y-4834128D02*
G01*
X8279129Y-4931155D01*
X8316213Y-4834128D02*
G01*
X8279129Y-4931155D01*
X8416036Y-4857242D02*
G01*
X8411209Y-4847844D01*
X8402065Y-4838700D01*
X8392922Y-4834128D01*
X8374379Y-4834128D01*
X8365236Y-4838700D01*
X8355838Y-4847844D01*
X8351265Y-4857242D01*
X8346693Y-4870957D01*
X8346693Y-4894071D01*
X8351265Y-4908042D01*
X8355838Y-4917186D01*
X8365236Y-4926329D01*
X8374379Y-4931155D01*
X8392922Y-4931155D01*
X8402065Y-4926329D01*
X8411209Y-4917186D01*
X8416036Y-4908042D01*
X8515604Y-4857242D02*
G01*
X8511031Y-4847844D01*
X8501888Y-4838700D01*
X8492490Y-4834128D01*
X8474202Y-4834128D01*
X8464804Y-4838700D01*
X8455659Y-4847844D01*
X8451088Y-4857242D01*
X8446515Y-4870957D01*
X8446515Y-4894071D01*
X8451088Y-4908042D01*
X8455659Y-4917186D01*
X8464804Y-4926329D01*
X8474202Y-4931155D01*
X8492490Y-4931155D01*
X8501888Y-4926329D01*
X8511031Y-4917186D01*
X8515604Y-4908042D01*
X8311641Y-5111242D02*
G01*
X8307070Y-5101844D01*
X8297672Y-5092700D01*
X8288527Y-5088128D01*
X8269986Y-5088128D01*
X8260841Y-5092700D01*
X8251443Y-5101844D01*
X8246872Y-5111242D01*
X8242300Y-5124957D01*
X8242300Y-5148071D01*
X8246872Y-5162042D01*
X8251443Y-5171186D01*
X8260841Y-5180329D01*
X8269986Y-5185155D01*
X8288527Y-5185155D01*
X8297672Y-5180329D01*
X8307070Y-5171186D01*
X8311641Y-5162042D01*
X8311641Y-5148071D01*
X8288527Y-5148071D02*
G01*
X8311641Y-5148071D01*
X8342122Y-5088128D02*
G01*
X8342122Y-5185155D01*
X8342122Y-5088128D02*
G01*
X8406638Y-5185155D01*
X8406638Y-5088128D02*
G01*
X8406638Y-5185155D01*
X8437118Y-5088128D02*
G01*
X8437118Y-5185155D01*
X8437118Y-5088128D02*
G01*
X8469629Y-5088128D01*
X8483345Y-5092700D01*
X8492490Y-5101844D01*
X8497315Y-5111242D01*
X8501888Y-5124957D01*
X8501888Y-5148071D01*
X8497315Y-5162042D01*
X8492490Y-5171186D01*
X8483345Y-5180329D01*
X8469629Y-5185155D01*
X8437118Y-5185155D01*
X8279129Y-5342128D02*
G01*
X8242300Y-5439155D01*
X8279129Y-5342128D02*
G01*
X8316213Y-5439155D01*
X8256270Y-5406644D02*
G01*
X8302243Y-5406644D01*
X8374379Y-5342128D02*
G01*
X8365236Y-5346700D01*
X8355838Y-5355844D01*
X8351265Y-5365242D01*
X8346693Y-5378957D01*
X8346693Y-5402071D01*
X8351265Y-5416042D01*
X8355838Y-5425186D01*
X8365236Y-5434329D01*
X8374379Y-5439155D01*
X8392922Y-5439155D01*
X8402065Y-5434329D01*
X8411209Y-5425186D01*
X8416036Y-5416042D01*
X8420608Y-5402071D01*
X8420608Y-5378957D01*
X8416036Y-5365242D01*
X8411209Y-5355844D01*
X8402065Y-5346700D01*
X8392922Y-5342128D01*
X8374379Y-5342128D01*
X8451088Y-5360670D02*
G01*
X8460231Y-5355844D01*
X8474202Y-5342128D01*
X8474202Y-5439155D01*
X8242300Y-6104128D02*
G01*
X8242300Y-6201155D01*
X8242300Y-6104128D02*
G01*
X8283956Y-6104128D01*
X8297672Y-6108700D01*
X8302243Y-6113271D01*
X8307070Y-6122670D01*
X8307070Y-6131813D01*
X8302243Y-6140957D01*
X8297672Y-6145529D01*
X8283956Y-6150355D01*
X8242300Y-6150355D02*
G01*
X8283956Y-6150355D01*
X8297672Y-6154928D01*
X8302243Y-6159500D01*
X8307070Y-6168644D01*
X8307070Y-6182613D01*
X8302243Y-6191757D01*
X8297672Y-6196329D01*
X8283956Y-6201155D01*
X8242300Y-6201155D01*
X8365236Y-6104128D02*
G01*
X8355838Y-6108700D01*
X8346693Y-6117844D01*
X8342122Y-6127242D01*
X8337550Y-6140957D01*
X8337550Y-6164071D01*
X8342122Y-6178042D01*
X8346693Y-6187186D01*
X8355838Y-6196329D01*
X8365236Y-6201155D01*
X8383524Y-6201155D01*
X8392922Y-6196329D01*
X8402065Y-6187186D01*
X8406638Y-6178042D01*
X8411209Y-6164071D01*
X8411209Y-6140957D01*
X8406638Y-6127242D01*
X8402065Y-6117844D01*
X8392922Y-6108700D01*
X8383524Y-6104128D01*
X8365236Y-6104128D01*
X8441690Y-6122670D02*
G01*
X8451088Y-6117844D01*
X8464804Y-6104128D01*
X8464804Y-6201155D01*
X8311641Y-6381242D02*
G01*
X8307070Y-6371844D01*
X8297672Y-6362700D01*
X8288527Y-6358128D01*
X8269986Y-6358128D01*
X8260841Y-6362700D01*
X8251443Y-6371844D01*
X8246872Y-6381242D01*
X8242300Y-6394957D01*
X8242300Y-6418071D01*
X8246872Y-6432042D01*
X8251443Y-6441186D01*
X8260841Y-6450329D01*
X8269986Y-6455155D01*
X8288527Y-6455155D01*
X8297672Y-6450329D01*
X8307070Y-6441186D01*
X8311641Y-6432042D01*
X8311641Y-6418071D01*
X8288527Y-6418071D02*
G01*
X8311641Y-6418071D01*
X8342122Y-6358128D02*
G01*
X8342122Y-6455155D01*
X8342122Y-6358128D02*
G01*
X8406638Y-6455155D01*
X8406638Y-6358128D02*
G01*
X8406638Y-6455155D01*
X8437118Y-6358128D02*
G01*
X8437118Y-6455155D01*
X8437118Y-6358128D02*
G01*
X8469629Y-6358128D01*
X8483345Y-6362700D01*
X8492490Y-6371844D01*
X8497315Y-6381242D01*
X8501888Y-6394957D01*
X8501888Y-6418071D01*
X8497315Y-6432042D01*
X8492490Y-6441186D01*
X8483345Y-6450329D01*
X8469629Y-6455155D01*
X8437118Y-6455155D01*
X9340341Y-6381242D02*
G01*
X9335770Y-6371844D01*
X9326372Y-6362700D01*
X9317227Y-6358128D01*
X9298686Y-6358128D01*
X9289541Y-6362700D01*
X9280143Y-6371844D01*
X9275572Y-6381242D01*
X9271000Y-6394957D01*
X9271000Y-6418071D01*
X9275572Y-6432042D01*
X9280143Y-6441186D01*
X9289541Y-6450329D01*
X9298686Y-6455155D01*
X9317227Y-6455155D01*
X9326372Y-6450329D01*
X9335770Y-6441186D01*
X9340341Y-6432042D01*
X9340341Y-6418071D01*
X9317227Y-6418071D02*
G01*
X9340341Y-6418071D01*
X9370822Y-6358128D02*
G01*
X9370822Y-6455155D01*
X9370822Y-6358128D02*
G01*
X9435338Y-6455155D01*
X9435338Y-6358128D02*
G01*
X9435338Y-6455155D01*
X9465818Y-6358128D02*
G01*
X9465818Y-6455155D01*
X9465818Y-6358128D02*
G01*
X9498329Y-6358128D01*
X9512045Y-6362700D01*
X9521190Y-6371844D01*
X9526015Y-6381242D01*
X9530588Y-6394957D01*
X9530588Y-6418071D01*
X9526015Y-6432042D01*
X9521190Y-6441186D01*
X9512045Y-6450329D01*
X9498329Y-6455155D01*
X9465818Y-6455155D01*
X9144000Y-6104128D02*
G01*
X9144000Y-6201155D01*
X9144000Y-6104128D02*
G01*
X9185656Y-6104128D01*
X9199372Y-6108700D01*
X9203943Y-6113271D01*
X9208770Y-6122670D01*
X9208770Y-6136386D01*
X9203943Y-6145529D01*
X9199372Y-6150355D01*
X9185656Y-6154928D01*
X9144000Y-6154928D01*
X9239250Y-6104128D02*
G01*
X9262109Y-6201155D01*
X9285224Y-6104128D02*
G01*
X9262109Y-6201155D01*
X9285224Y-6104128D02*
G01*
X9308338Y-6201155D01*
X9331452Y-6104128D02*
G01*
X9308338Y-6201155D01*
X9361931Y-6104128D02*
G01*
X9361931Y-6201155D01*
X9361931Y-6104128D02*
G01*
X9399015Y-6201155D01*
X9435845Y-6104128D02*
G01*
X9399015Y-6201155D01*
X9435845Y-6104128D02*
G01*
X9435845Y-6201155D01*
X9466325Y-6104128D02*
G01*
X9466325Y-6201155D01*
X9466325Y-6104128D02*
G01*
X9507981Y-6104128D01*
X9521697Y-6108700D01*
X9526270Y-6113271D01*
X9531095Y-6122670D01*
X9531095Y-6131813D01*
X9526270Y-6140957D01*
X9521697Y-6145529D01*
X9507981Y-6150355D01*
X9466325Y-6150355D02*
G01*
X9507981Y-6150355D01*
X9521697Y-6154928D01*
X9526270Y-6159500D01*
X9531095Y-6168644D01*
X9531095Y-6182613D01*
X9526270Y-6191757D01*
X9521697Y-6196329D01*
X9507981Y-6201155D01*
X9466325Y-6201155D01*
X9245600Y-5850128D02*
G01*
X9245600Y-5947155D01*
X9245600Y-5850128D02*
G01*
X9287256Y-5850128D01*
X9300972Y-5854700D01*
X9305543Y-5859271D01*
X9310370Y-5868670D01*
X9310370Y-5877813D01*
X9305543Y-5886957D01*
X9300972Y-5891529D01*
X9287256Y-5896355D01*
X9245600Y-5896355D02*
G01*
X9287256Y-5896355D01*
X9300972Y-5900928D01*
X9305543Y-5905500D01*
X9310370Y-5914644D01*
X9310370Y-5928613D01*
X9305543Y-5937757D01*
X9300972Y-5942329D01*
X9287256Y-5947155D01*
X9245600Y-5947155D01*
X9340850Y-5850128D02*
G01*
X9340850Y-5947155D01*
X9371329Y-5850128D02*
G01*
X9371329Y-5947155D01*
X9371329Y-5850128D02*
G01*
X9435845Y-5947155D01*
X9435845Y-5850128D02*
G01*
X9435845Y-5947155D01*
X9470897Y-5873242D02*
G01*
X9470897Y-5868670D01*
X9475470Y-5859271D01*
X9480295Y-5854700D01*
X9489440Y-5850128D01*
X9507981Y-5850128D01*
X9517125Y-5854700D01*
X9521697Y-5859271D01*
X9526270Y-5868670D01*
X9526270Y-5877813D01*
X9521697Y-5886957D01*
X9512554Y-5900928D01*
X9466325Y-5947155D01*
X9531095Y-5947155D01*
X9271000Y-5621528D02*
G01*
X9271000Y-5718555D01*
X9271000Y-5621528D02*
G01*
X9312656Y-5621528D01*
X9326372Y-5626100D01*
X9330943Y-5630671D01*
X9335770Y-5640070D01*
X9335770Y-5649213D01*
X9330943Y-5658357D01*
X9326372Y-5662929D01*
X9312656Y-5667755D01*
X9271000Y-5667755D02*
G01*
X9312656Y-5667755D01*
X9326372Y-5672328D01*
X9330943Y-5676900D01*
X9335770Y-5686044D01*
X9335770Y-5700013D01*
X9330943Y-5709157D01*
X9326372Y-5713729D01*
X9312656Y-5718555D01*
X9271000Y-5718555D01*
X9366250Y-5621528D02*
G01*
X9366250Y-5718555D01*
X9396729Y-5621528D02*
G01*
X9396729Y-5718555D01*
X9396729Y-5621528D02*
G01*
X9461245Y-5718555D01*
X9461245Y-5621528D02*
G01*
X9461245Y-5718555D01*
X9491725Y-5640070D02*
G01*
X9500870Y-5635244D01*
X9514840Y-5621528D01*
X9514840Y-5718555D01*
X9234170Y-5355844D02*
G01*
X9224772Y-5346700D01*
X9211056Y-5342128D01*
X9192513Y-5342128D01*
X9178543Y-5346700D01*
X9169400Y-5355844D01*
X9169400Y-5365242D01*
X9173972Y-5374386D01*
X9178543Y-5378957D01*
X9187941Y-5383529D01*
X9215627Y-5392928D01*
X9224772Y-5397500D01*
X9229343Y-5402071D01*
X9234170Y-5411470D01*
X9234170Y-5425186D01*
X9224772Y-5434329D01*
X9211056Y-5439155D01*
X9192513Y-5439155D01*
X9178543Y-5434329D01*
X9169400Y-5425186D01*
X9296908Y-5342128D02*
G01*
X9296908Y-5439155D01*
X9264650Y-5342128D02*
G01*
X9329165Y-5342128D01*
X9359645Y-5342128D02*
G01*
X9359645Y-5439155D01*
X9359645Y-5342128D02*
G01*
X9401302Y-5342128D01*
X9415018Y-5346700D01*
X9419590Y-5351271D01*
X9424415Y-5360670D01*
X9424415Y-5369813D01*
X9419590Y-5378957D01*
X9415018Y-5383529D01*
X9401302Y-5388355D01*
X9359645Y-5388355D02*
G01*
X9401302Y-5388355D01*
X9415018Y-5392928D01*
X9419590Y-5397500D01*
X9424415Y-5406644D01*
X9424415Y-5420613D01*
X9419590Y-5429757D01*
X9415018Y-5434329D01*
X9401302Y-5439155D01*
X9359645Y-5439155D01*
X9454895Y-5342128D02*
G01*
X9491725Y-5388355D01*
X9491725Y-5439155D01*
X9528809Y-5342128D02*
G01*
X9491725Y-5388355D01*
X9307829Y-5088128D02*
G01*
X9271000Y-5185155D01*
X9307829Y-5088128D02*
G01*
X9344913Y-5185155D01*
X9284970Y-5152644D02*
G01*
X9330943Y-5152644D01*
X9375393Y-5088128D02*
G01*
X9375393Y-5185155D01*
X9405874Y-5088128D02*
G01*
X9405874Y-5185155D01*
X9405874Y-5088128D02*
G01*
X9470390Y-5185155D01*
X9470390Y-5088128D02*
G01*
X9470390Y-5185155D01*
X9500870Y-5106670D02*
G01*
X9510268Y-5101844D01*
X9523984Y-5088128D01*
X9523984Y-5185155D01*
X9282429Y-4834128D02*
G01*
X9245600Y-4931155D01*
X9282429Y-4834128D02*
G01*
X9319513Y-4931155D01*
X9259570Y-4898644D02*
G01*
X9305543Y-4898644D01*
X9349993Y-4834128D02*
G01*
X9349993Y-4931155D01*
X9380474Y-4834128D02*
G01*
X9380474Y-4931155D01*
X9380474Y-4834128D02*
G01*
X9444990Y-4931155D01*
X9444990Y-4834128D02*
G01*
X9444990Y-4931155D01*
X9480295Y-4857242D02*
G01*
X9480295Y-4852670D01*
X9484868Y-4843271D01*
X9489440Y-4838700D01*
X9498584Y-4834128D01*
X9517125Y-4834128D01*
X9526270Y-4838700D01*
X9531095Y-4843271D01*
X9535668Y-4852670D01*
X9535668Y-4861813D01*
X9531095Y-4870957D01*
X9521697Y-4884928D01*
X9475470Y-4931155D01*
X9540240Y-4931155D01*
X9144000Y-4580128D02*
G01*
X9144000Y-4677155D01*
X9144000Y-4580128D02*
G01*
X9185656Y-4580128D01*
X9199372Y-4584700D01*
X9203943Y-4589271D01*
X9208770Y-4598670D01*
X9208770Y-4612386D01*
X9203943Y-4621529D01*
X9199372Y-4626355D01*
X9185656Y-4630928D01*
X9144000Y-4630928D01*
X9239250Y-4580128D02*
G01*
X9262109Y-4677155D01*
X9285224Y-4580128D02*
G01*
X9262109Y-4677155D01*
X9285224Y-4580128D02*
G01*
X9308338Y-4677155D01*
X9331452Y-4580128D02*
G01*
X9308338Y-4677155D01*
X9361931Y-4580128D02*
G01*
X9361931Y-4677155D01*
X9361931Y-4580128D02*
G01*
X9399015Y-4677155D01*
X9435845Y-4580128D02*
G01*
X9399015Y-4677155D01*
X9435845Y-4580128D02*
G01*
X9435845Y-4677155D01*
X9503409Y-4580128D02*
G01*
X9466325Y-4677155D01*
X9503409Y-4580128D02*
G01*
X9540240Y-4677155D01*
X9480295Y-4644644D02*
G01*
X9526270Y-4644644D01*
X8242300Y-4580128D02*
G01*
X8279129Y-4677155D01*
X8316213Y-4580128D02*
G01*
X8279129Y-4677155D01*
X8346693Y-4580128D02*
G01*
X8346693Y-4677155D01*
X8346693Y-4580128D02*
G01*
X8383524Y-4677155D01*
X8420608Y-4580128D02*
G01*
X8383524Y-4677155D01*
X8420608Y-4580128D02*
G01*
X8420608Y-4677155D01*
X8279129Y-5596128D02*
G01*
X8242300Y-5693155D01*
X8279129Y-5596128D02*
G01*
X8316213Y-5693155D01*
X8256270Y-5660644D02*
G01*
X8302243Y-5660644D01*
X8374379Y-5596128D02*
G01*
X8365236Y-5600700D01*
X8355838Y-5609844D01*
X8351265Y-5619242D01*
X8346693Y-5632957D01*
X8346693Y-5656071D01*
X8351265Y-5670042D01*
X8355838Y-5679186D01*
X8365236Y-5688329D01*
X8374379Y-5693155D01*
X8392922Y-5693155D01*
X8402065Y-5688329D01*
X8411209Y-5679186D01*
X8416036Y-5670042D01*
X8420608Y-5656071D01*
X8420608Y-5632957D01*
X8416036Y-5619242D01*
X8411209Y-5609844D01*
X8402065Y-5600700D01*
X8392922Y-5596128D01*
X8374379Y-5596128D01*
X8455659Y-5619242D02*
G01*
X8455659Y-5614670D01*
X8460231Y-5605271D01*
X8464804Y-5600700D01*
X8474202Y-5596128D01*
X8492490Y-5596128D01*
X8501888Y-5600700D01*
X8506459Y-5605271D01*
X8511031Y-5614670D01*
X8511031Y-5623813D01*
X8506459Y-5632957D01*
X8497315Y-5646928D01*
X8451088Y-5693155D01*
X8515604Y-5693155D01*
X8242300Y-5850128D02*
G01*
X8242300Y-5947155D01*
X8242300Y-5850128D02*
G01*
X8283956Y-5850128D01*
X8297672Y-5854700D01*
X8302243Y-5859271D01*
X8307070Y-5868670D01*
X8307070Y-5877813D01*
X8302243Y-5886957D01*
X8297672Y-5891529D01*
X8283956Y-5896355D01*
X8242300Y-5896355D02*
G01*
X8283956Y-5896355D01*
X8297672Y-5900928D01*
X8302243Y-5905500D01*
X8307070Y-5914644D01*
X8307070Y-5928613D01*
X8302243Y-5937757D01*
X8297672Y-5942329D01*
X8283956Y-5947155D01*
X8242300Y-5947155D01*
X8365236Y-5850128D02*
G01*
X8355838Y-5854700D01*
X8346693Y-5863844D01*
X8342122Y-5873242D01*
X8337550Y-5886957D01*
X8337550Y-5910071D01*
X8342122Y-5924042D01*
X8346693Y-5933186D01*
X8355838Y-5942329D01*
X8365236Y-5947155D01*
X8383524Y-5947155D01*
X8392922Y-5942329D01*
X8402065Y-5933186D01*
X8406638Y-5924042D01*
X8411209Y-5910071D01*
X8411209Y-5886957D01*
X8406638Y-5873242D01*
X8402065Y-5863844D01*
X8392922Y-5854700D01*
X8383524Y-5850128D01*
X8365236Y-5850128D01*
X8446515Y-5873242D02*
G01*
X8446515Y-5868670D01*
X8451088Y-5859271D01*
X8455659Y-5854700D01*
X8464804Y-5850128D01*
X8483345Y-5850128D01*
X8492490Y-5854700D01*
X8497315Y-5859271D01*
X8501888Y-5868670D01*
X8501888Y-5877813D01*
X8497315Y-5886957D01*
X8487918Y-5900928D01*
X8441690Y-5947155D01*
X8506459Y-5947155D01*
D12*
X977900Y-9348215D02*
G01*
X977900Y-9270237D01*
X972820Y-9254744D01*
X962405Y-9244329D01*
X946657Y-9239250D01*
X936244Y-9239250D01*
X920750Y-9244329D01*
X910336Y-9254744D01*
X905255Y-9270237D01*
X905255Y-9348215D01*
X860552Y-9348215D02*
G01*
X803402Y-9348215D01*
X834389Y-9306560D01*
X818895Y-9306560D01*
X808481Y-9301479D01*
X803402Y-9296400D01*
X798068Y-9280652D01*
X798068Y-9270237D01*
X803402Y-9254744D01*
X813815Y-9244329D01*
X829310Y-9239250D01*
X844804Y-9239250D01*
X860552Y-9244329D01*
X865631Y-9249410D01*
X870965Y-9259824D01*
D14*
X1485900Y-9093200D02*
G01*
X1430528Y-8963913D01*
X1375155Y-9093200D02*
G01*
X1430528Y-8963913D01*
X1203197Y-9065513D02*
G01*
X1221739Y-9083802D01*
X1240281Y-9093200D01*
X1267968Y-9093200D01*
X1286510Y-9083802D01*
X1304797Y-9065513D01*
X1314195Y-9037828D01*
X1314195Y-9019286D01*
X1304797Y-8991600D01*
X1286510Y-8973058D01*
X1267968Y-8963913D01*
X1240281Y-8963913D01*
X1221739Y-8973058D01*
X1203197Y-8991600D01*
X1031494Y-9065513D02*
G01*
X1050036Y-9083802D01*
X1068323Y-9093200D01*
X1096010Y-9093200D01*
X1114552Y-9083802D01*
X1133094Y-9065513D01*
X1142237Y-9037828D01*
X1142237Y-9019286D01*
X1133094Y-8991600D01*
X1114552Y-8973058D01*
X1096010Y-8963913D01*
X1068323Y-8963913D01*
X1050036Y-8973058D01*
X1031494Y-8991600D01*
X1375155Y-8849865D02*
G01*
X1375155Y-8702037D01*
X1384300Y-8674351D01*
X1393444Y-8665207D01*
X1411986Y-8655809D01*
X1439671Y-8655809D01*
X1458213Y-8665207D01*
X1375155Y-8822179D02*
G01*
X1393444Y-8840467D01*
X1411986Y-8849865D01*
X1439671Y-8849865D01*
X1458213Y-8840467D01*
X1476755Y-8822179D01*
X1485900Y-8794493D01*
X1485900Y-8775951D01*
X1476755Y-8748265D01*
X1458213Y-8729723D01*
X1439671Y-8720579D01*
X1411986Y-8720579D01*
X1393444Y-8729723D01*
X1375155Y-8748265D01*
X1314195Y-8849865D02*
G01*
X1314195Y-8720579D01*
X1314195Y-8812781D02*
G01*
X1286510Y-8840467D01*
X1267968Y-8849865D01*
X1240281Y-8849865D01*
X1221739Y-8840467D01*
X1212595Y-8812781D01*
X1212595Y-8720579D01*
X1040637Y-8914381D02*
G01*
X1040637Y-8720579D01*
X1040637Y-8822179D02*
G01*
X1059179Y-8840467D01*
X1077721Y-8849865D01*
X1105407Y-8849865D01*
X1123950Y-8840467D01*
X1142237Y-8822179D01*
X1151636Y-8794493D01*
X1151636Y-8775951D01*
X1142237Y-8748265D01*
X1123950Y-8729723D01*
X1105407Y-8720579D01*
X1077721Y-8720579D01*
X1059179Y-8729723D01*
X1040637Y-8748265D01*
X1384300Y-8514077D02*
G01*
X1393444Y-8532365D01*
X1421129Y-8541763D01*
X1449070Y-8541763D01*
X1476755Y-8532365D01*
X1485900Y-8514077D01*
X1476755Y-8495535D01*
X1458213Y-8486391D01*
X1411986Y-8476993D01*
X1393444Y-8467849D01*
X1384300Y-8449307D01*
X1384300Y-8440163D01*
X1393444Y-8421621D01*
X1421129Y-8412477D01*
X1449070Y-8412477D01*
X1476755Y-8421621D01*
X1485900Y-8440163D01*
X1212595Y-8514077D02*
G01*
X1230884Y-8532365D01*
X1249426Y-8541763D01*
X1277112Y-8541763D01*
X1295654Y-8532365D01*
X1314195Y-8514077D01*
X1323339Y-8486391D01*
X1323339Y-8467849D01*
X1314195Y-8440163D01*
X1295654Y-8421621D01*
X1277112Y-8412477D01*
X1249426Y-8412477D01*
X1230884Y-8421621D01*
X1212595Y-8440163D01*
X1151636Y-8606279D02*
G01*
X1151636Y-8412477D01*
X1384300Y-8270747D02*
G01*
X1393444Y-8289036D01*
X1421129Y-8298434D01*
X1449070Y-8298434D01*
X1476755Y-8289036D01*
X1485900Y-8270747D01*
X1476755Y-8252205D01*
X1458213Y-8243062D01*
X1411986Y-8233663D01*
X1393444Y-8224520D01*
X1384300Y-8205978D01*
X1384300Y-8196834D01*
X1393444Y-8178292D01*
X1421129Y-8169147D01*
X1449070Y-8169147D01*
X1476755Y-8178292D01*
X1485900Y-8196834D01*
X1212595Y-8362950D02*
G01*
X1212595Y-8169147D01*
X1212595Y-8270747D02*
G01*
X1230884Y-8289036D01*
X1249426Y-8298434D01*
X1277112Y-8298434D01*
X1295654Y-8289036D01*
X1314195Y-8270747D01*
X1323339Y-8243062D01*
X1323339Y-8224520D01*
X1314195Y-8196834D01*
X1295654Y-8178292D01*
X1277112Y-8169147D01*
X1249426Y-8169147D01*
X1230884Y-8178292D01*
X1212595Y-8196834D01*
X1040637Y-8298434D02*
G01*
X1040637Y-8169147D01*
X1040637Y-8270747D02*
G01*
X1059179Y-8289036D01*
X1077721Y-8298434D01*
X1105407Y-8298434D01*
X1123950Y-8289036D01*
X1142237Y-8270747D01*
X1151636Y-8243062D01*
X1151636Y-8224520D01*
X1142237Y-8196834D01*
X1123950Y-8178292D01*
X1105407Y-8169147D01*
X1077721Y-8169147D01*
X1059179Y-8178292D01*
X1040637Y-8196834D01*
X1485900Y-8055099D02*
G01*
X1384300Y-7925813D01*
X1384300Y-8055099D02*
G01*
X1485900Y-7925813D01*
X1212595Y-8119615D02*
G01*
X1212595Y-7925813D01*
X1212595Y-8027413D02*
G01*
X1230884Y-8045701D01*
X1249426Y-8055099D01*
X1277112Y-8055099D01*
X1295654Y-8045701D01*
X1314195Y-8027413D01*
X1323339Y-7999727D01*
X1323339Y-7981185D01*
X1314195Y-7953499D01*
X1295654Y-7934957D01*
X1277112Y-7925813D01*
X1249426Y-7925813D01*
X1230884Y-7934957D01*
X1212595Y-7953499D01*
X1040637Y-8055099D02*
G01*
X1040637Y-7925813D01*
X1040637Y-8027413D02*
G01*
X1059179Y-8045701D01*
X1077721Y-8055099D01*
X1105407Y-8055099D01*
X1123950Y-8045701D01*
X1142237Y-8027413D01*
X1151636Y-7999727D01*
X1151636Y-7981185D01*
X1142237Y-7953499D01*
X1123950Y-7934957D01*
X1105407Y-7925813D01*
X1077721Y-7925813D01*
X1059179Y-7934957D01*
X1040637Y-7953499D01*
X1375155Y-7568437D02*
G01*
X1375155Y-7439152D01*
X1375155Y-7540752D02*
G01*
X1393444Y-7559039D01*
X1411986Y-7568437D01*
X1439671Y-7568437D01*
X1458213Y-7559039D01*
X1476755Y-7540752D01*
X1485900Y-7513065D01*
X1485900Y-7494523D01*
X1476755Y-7466837D01*
X1458213Y-7448295D01*
X1439671Y-7439152D01*
X1411986Y-7439152D01*
X1393444Y-7448295D01*
X1375155Y-7466837D01*
X1203197Y-7632954D02*
G01*
X1203197Y-7439152D01*
X1203197Y-7540752D02*
G01*
X1221739Y-7559039D01*
X1240281Y-7568437D01*
X1267968Y-7568437D01*
X1286510Y-7559039D01*
X1304797Y-7540752D01*
X1314195Y-7513065D01*
X1314195Y-7494523D01*
X1304797Y-7466837D01*
X1286510Y-7448295D01*
X1267968Y-7439152D01*
X1240281Y-7439152D01*
X1221739Y-7448295D01*
X1203197Y-7466837D01*
X1096010Y-7568437D02*
G01*
X1114552Y-7559039D01*
X1133094Y-7540752D01*
X1142237Y-7513065D01*
X1142237Y-7494523D01*
X1133094Y-7466837D01*
X1114552Y-7448295D01*
X1096010Y-7439152D01*
X1068323Y-7439152D01*
X1050036Y-7448295D01*
X1031494Y-7466837D01*
X1022350Y-7494523D01*
X1022350Y-7513065D01*
X1031494Y-7540752D01*
X1050036Y-7559039D01*
X1068323Y-7568437D01*
X1096010Y-7568437D01*
X1485900Y-7811767D02*
G01*
X1384300Y-7682481D01*
X1384300Y-7811767D02*
G01*
X1485900Y-7682481D01*
X1212595Y-7784081D02*
G01*
X1230884Y-7802369D01*
X1249426Y-7811767D01*
X1277112Y-7811767D01*
X1295654Y-7802369D01*
X1314195Y-7784081D01*
X1323339Y-7756395D01*
X1323339Y-7737853D01*
X1314195Y-7710167D01*
X1295654Y-7691625D01*
X1277112Y-7682481D01*
X1249426Y-7682481D01*
X1230884Y-7691625D01*
X1212595Y-7710167D01*
X1151636Y-7876283D02*
G01*
X1151636Y-7682481D01*
X1485900Y-7380223D02*
G01*
X1476755Y-7371079D01*
X1467357Y-7380223D01*
X1476755Y-7389621D01*
X1485900Y-7380223D01*
X1476755Y-7315708D02*
G01*
X1476755Y-7186421D01*
X1406397Y-7315708D02*
G01*
X1406397Y-7186421D01*
X1406397Y-7278623D02*
G01*
X1378712Y-7306310D01*
X1360170Y-7315708D01*
X1332484Y-7315708D01*
X1314195Y-7306310D01*
X1304797Y-7278623D01*
X1304797Y-7186421D01*
X1216152Y-7380223D02*
G01*
X1216152Y-7223252D01*
X1207007Y-7195565D01*
X1188465Y-7186421D01*
X1169923Y-7186421D01*
X1243837Y-7315708D02*
G01*
X1179321Y-7315708D01*
X871730Y-7480302D02*
G01*
X742444Y-7480302D01*
X834646Y-7480302D02*
G01*
X862332Y-7507988D01*
X871730Y-7526530D01*
X871730Y-7554216D01*
X862332Y-7572758D01*
X834646Y-7581902D01*
X742444Y-7581902D01*
X834646Y-7581902D02*
G01*
X862332Y-7609588D01*
X871730Y-7628130D01*
X871730Y-7655816D01*
X862332Y-7674358D01*
X834646Y-7683502D01*
X742444Y-7683502D01*
X871730Y-7744462D02*
G01*
X677674Y-7744462D01*
X844044Y-7744462D02*
G01*
X862332Y-7763004D01*
X871730Y-7781292D01*
X871730Y-7809232D01*
X862332Y-7827520D01*
X844044Y-7846062D01*
X816358Y-7855206D01*
X797816Y-7855206D01*
X770130Y-7846062D01*
X751588Y-7827520D01*
X742444Y-7809232D01*
X742444Y-7781292D01*
X751588Y-7763004D01*
X770130Y-7744462D01*
X871730Y-7916166D02*
G01*
X779274Y-7916166D01*
X751588Y-7925564D01*
X742444Y-7943852D01*
X742444Y-7971792D01*
X751588Y-7990080D01*
X779274Y-8017766D01*
X871730Y-8017766D02*
G01*
X742444Y-8017766D01*
X908560Y-8189724D02*
G01*
X927102Y-8180326D01*
X936246Y-8152640D01*
X936246Y-8134352D01*
X927102Y-8106412D01*
X899416Y-8088124D01*
X853188Y-8078726D01*
X806960Y-8078726D01*
X770130Y-8088124D01*
X751588Y-8106412D01*
X742444Y-8134352D01*
X742444Y-8143496D01*
X751588Y-8171182D01*
X770130Y-8189724D01*
X797816Y-8198868D01*
X806960Y-8198868D01*
X834646Y-8189724D01*
X853188Y-8171182D01*
X862332Y-8143496D01*
X862332Y-8134352D01*
X853188Y-8106412D01*
X834646Y-8088124D01*
X806960Y-8078726D01*
X936246Y-8315200D02*
G01*
X927102Y-8287514D01*
X899416Y-8268972D01*
X853188Y-8259828D01*
X825502Y-8259828D01*
X779274Y-8268972D01*
X751588Y-8287514D01*
X742444Y-8315200D01*
X742444Y-8333742D01*
X751588Y-8361428D01*
X779274Y-8379970D01*
X825502Y-8389114D01*
X853188Y-8389114D01*
X899416Y-8379970D01*
X927102Y-8361428D01*
X936246Y-8333742D01*
X936246Y-8315200D01*
X936246Y-8561072D02*
G01*
X936246Y-8468616D01*
X853188Y-8459472D01*
X862332Y-8468616D01*
X871730Y-8496302D01*
X871730Y-8523988D01*
X862332Y-8551674D01*
X844044Y-8570216D01*
X816358Y-8579360D01*
X797816Y-8579360D01*
X770130Y-8570216D01*
X751588Y-8551674D01*
X742444Y-8523988D01*
X742444Y-8496302D01*
X751588Y-8468616D01*
X760732Y-8459472D01*
X779274Y-8450074D01*
X936246Y-8695692D02*
G01*
X927102Y-8668006D01*
X899416Y-8649718D01*
X853188Y-8640320D01*
X825502Y-8640320D01*
X779274Y-8649718D01*
X751588Y-8668006D01*
X742444Y-8695692D01*
X742444Y-8714234D01*
X751588Y-8741920D01*
X779274Y-8760462D01*
X825502Y-8769606D01*
X853188Y-8769606D01*
X899416Y-8760462D01*
X927102Y-8741920D01*
X936246Y-8714234D01*
X936246Y-8695692D01*
D12*
X5689600Y-2665984D02*
G01*
X5689600Y-2743962D01*
X5694679Y-2759455D01*
X5705093Y-2769870D01*
X5720841Y-2774950D01*
X5731256Y-2774950D01*
X5746750Y-2769870D01*
X5757163Y-2759455D01*
X5762243Y-2743962D01*
X5762243Y-2665984D01*
X5864097Y-2702305D02*
G01*
X5859018Y-2717800D01*
X5848604Y-2728213D01*
X5833109Y-2733547D01*
X5827775Y-2733547D01*
X5812281Y-2728213D01*
X5801868Y-2717800D01*
X5796534Y-2702305D01*
X5796534Y-2697226D01*
X5801868Y-2681478D01*
X5812281Y-2671063D01*
X5827775Y-2665984D01*
X5833109Y-2665984D01*
X5848604Y-2671063D01*
X5859018Y-2681478D01*
X5864097Y-2702305D01*
X5864097Y-2728213D01*
X5859018Y-2754376D01*
X5848604Y-2769870D01*
X5833109Y-2774950D01*
X5822695Y-2774950D01*
X5806947Y-2769870D01*
X5801868Y-2759455D01*
X3987800Y-3186684D02*
G01*
X3987800Y-3264662D01*
X3992879Y-3280155D01*
X4003293Y-3290570D01*
X4019041Y-3295650D01*
X4029456Y-3295650D01*
X4044950Y-3290570D01*
X4055363Y-3280155D01*
X4060443Y-3264662D01*
X4060443Y-3186684D01*
X4094734Y-3207512D02*
G01*
X4105147Y-3202178D01*
X4120895Y-3186684D01*
X4120895Y-3295650D01*
X4186174Y-3186684D02*
G01*
X4170679Y-3191763D01*
X4160265Y-3207512D01*
X4155186Y-3233420D01*
X4155186Y-3248913D01*
X4160265Y-3275076D01*
X4170679Y-3290570D01*
X4186174Y-3295650D01*
X4196588Y-3295650D01*
X4212336Y-3290570D01*
X4222750Y-3275076D01*
X4227829Y-3248913D01*
X4227829Y-3233420D01*
X4222750Y-3207512D01*
X4212336Y-3191763D01*
X4196588Y-3186684D01*
X4186174Y-3186684D01*
D17*
X8711463Y-2681584D02*
G01*
X8851163Y-2541884D01*
X8978163Y-2668884D01*
X8711463Y-2668884D01*
X8800363Y-2668884D01*
X8800363Y-2897484D01*
X8901963Y-2897484D01*
X8901963Y-2668884D01*
X8661400Y-5118100D02*
G01*
X8801100Y-4978400D01*
X8928100Y-5105400D01*
X8661400Y-5105400D01*
X8750300Y-5105400D01*
X8750300Y-5334000D01*
X8851900Y-5334000D01*
X8851900Y-5105400D01*
D18*
X7208520Y-7998460D02*
G01*
X7127240Y-7998460D01*
X6873240Y-7998460D02*
G01*
X6784340Y-7998460D01*
X5781040Y-6789420D02*
G01*
X5781040Y-6708139D01*
X5781040Y-6454139D02*
G01*
X5781040Y-6365239D01*
X5781040Y-6027420D02*
G01*
X5781040Y-5946139D01*
X5781040Y-5692139D02*
G01*
X5781040Y-5603239D01*
X5793740Y-4859020D02*
G01*
X5793740Y-4777739D01*
X5793740Y-4523739D02*
G01*
X5793740Y-4434839D01*
D19*
X4775454Y-7899654D02*
G01*
X4775454Y-8407654D01*
X5029454Y-8407654D01*
X5029454Y-7899654D01*
X4775454Y-7899654D01*
X5461254Y-7899654D02*
G01*
X5461254Y-8407654D01*
X5715254Y-8407654D01*
X5715254Y-7899654D01*
X5461254Y-7899654D01*
X6159754Y-7886954D02*
G01*
X6159754Y-8394954D01*
X6413754Y-8394954D01*
X6413754Y-7886954D01*
X6159754Y-7886954D01*
D17*
X8929700Y-8482921D02*
G01*
X8929700Y-8331200D01*
X8929700Y-8950086D02*
G01*
X8929700Y-8687478D01*
X8929700Y-9347200D02*
G01*
X8929700Y-9236313D01*
X8929700Y-9347200D02*
G01*
X9939700Y-9347200D01*
X9939700Y-9347200D02*
G01*
X9939700Y-8331200D01*
X8929700Y-8331200D02*
G01*
X9939703Y-8331200D01*
D10*
X3923583Y-6354498D02*
G01*
X3891086Y-6354498D01*
X4186100Y-6354500D02*
G01*
X4153598Y-6354500D01*
X5774001Y-5053883D02*
G01*
X5774001Y-5021386D01*
X5773999Y-5316400D02*
G01*
X5773999Y-5283898D01*
D17*
X1012799Y-3847185D02*
G01*
X-2987192Y-3847185D01*
X-2987192Y-2147188D01*
X1012799Y-2147188D01*
X1012799Y-3847185D01*
D12*
X2438400Y-7213600D02*
G01*
X2451734Y-1625600D01*
X7340600Y-7239000D02*
G01*
X7343033Y-1637096D01*
X2616200Y-7391400D02*
G01*
X7181850Y-7393371D01*
D11*
X6795134Y-1816100D02*
G01*
X6795134Y-5918200D01*
X7303134Y-5918200D01*
X7303134Y-1816100D01*
X6795134Y-1816100D01*
X2475865Y-1813305D02*
G01*
X2475865Y-5930900D01*
X2983865Y-5930900D01*
X2983865Y-1813305D01*
X2475865Y-1813305D01*
D12*
X2629540Y-1446001D02*
G01*
X7163434Y-1447800D01*
D20*
X5084086Y-734695D02*
G01*
X5084086Y-635000D01*
X5252720Y-635000D01*
X5252720Y-735304D01*
X6358409Y-735304D01*
X6358409Y-635000D01*
X6521500Y-635000D01*
X6521500Y-735304D01*
X6678904Y-735304D01*
X6678904Y-145287D01*
X4924907Y-145287D01*
X4924907Y-735304D01*
X5082542Y-735304D01*
X2404386Y-734695D02*
G01*
X2404386Y-635000D01*
X2573020Y-635000D01*
X2573020Y-735304D01*
X3678709Y-735304D01*
X3678709Y-635000D01*
X3841800Y-635000D01*
X3841800Y-735304D01*
X3999204Y-735304D01*
X3999204Y-145287D01*
X2245207Y-145287D01*
X2245207Y-735304D01*
X2402842Y-735304D01*
X6358613Y-9260204D02*
G01*
X6358613Y-9359900D01*
X6189979Y-9359900D01*
X6189979Y-9259595D01*
X5084290Y-9259595D01*
X5084290Y-9359900D01*
X4921199Y-9359900D01*
X4921199Y-9259595D01*
X4763795Y-9259595D01*
X4763795Y-9849612D01*
X6517792Y-9849612D01*
X6517792Y-9259595D01*
X6360157Y-9259595D01*
X3958313Y-9222104D02*
G01*
X3958313Y-9321800D01*
X3789679Y-9321800D01*
X3789679Y-9221495D01*
X2683990Y-9221495D01*
X2683990Y-9321800D01*
X2520899Y-9321800D01*
X2520899Y-9221495D01*
X2363495Y-9221495D01*
X2363495Y-9811512D01*
X4117492Y-9811512D01*
X4117492Y-9221495D01*
X3959857Y-9221495D01*
D17*
X-1733918Y-6211547D02*
G01*
X-1733918Y-7011903D01*
X-1534020Y-4811496D02*
G01*
X-1534020Y-6211547D01*
X-1733821Y-6211547D02*
G01*
X-1533918Y-6211547D01*
X-1733918Y-4811542D02*
G01*
X-1534020Y-4811542D01*
X520839Y-5257548D02*
G01*
X1155839Y-5257548D01*
X1166124Y-5511548D02*
G01*
X520839Y-5511548D01*
X520839Y-5765548D02*
G01*
X1155839Y-5765548D01*
X520839Y-6036538D02*
G01*
X1166253Y-6036538D01*
X516138Y-4986558D02*
G01*
X516013Y-5821931D01*
X516138Y-6036538D01*
X1166124Y-4986558D02*
G01*
X520839Y-4986558D01*
X1166101Y-4011902D02*
G01*
X1166101Y-6711541D01*
X-1733918Y-4311548D02*
G01*
X-1733918Y-4811542D01*
X866132Y-7011903D02*
G01*
X-1733872Y-7011903D01*
X1166101Y-4011902D02*
G01*
X-1433870Y-4011902D01*
X414273Y-1903597D02*
G01*
X296926Y-1903597D01*
X205600Y-413600D02*
G01*
X505599Y-413600D01*
X414273Y-1903597D02*
G01*
X505599Y-1903597D01*
X205600Y-1903597D02*
G01*
X296926Y-1903597D01*
X205600Y-413600D02*
G01*
X205600Y-1903597D01*
X505599Y-413600D02*
G01*
X505599Y-1903597D01*
X9583674Y-1916297D02*
G01*
X9466325Y-1916297D01*
X9375000Y-426300D02*
G01*
X9674999Y-426300D01*
X9583674Y-1916297D02*
G01*
X9674999Y-1916297D01*
X9375000Y-1916297D02*
G01*
X9466325Y-1916297D01*
X9375000Y-426300D02*
G01*
X9375000Y-1916297D01*
X9674999Y-426300D02*
G01*
X9674999Y-1916297D01*
X909573Y-1878197D02*
G01*
X792226Y-1878197D01*
X700900Y-388200D02*
G01*
X1000899Y-388200D01*
X909573Y-1878197D02*
G01*
X1000899Y-1878197D01*
X700900Y-1878197D02*
G01*
X792226Y-1878197D01*
X700900Y-388200D02*
G01*
X700900Y-1878197D01*
X1000899Y-388200D02*
G01*
X1000899Y-1878197D01*
X9075674Y-1916297D02*
G01*
X8958325Y-1916297D01*
X8867000Y-426300D02*
G01*
X9166999Y-426300D01*
X9075674Y-1916297D02*
G01*
X9166999Y-1916297D01*
X8867000Y-1916297D02*
G01*
X8958325Y-1916297D01*
X8867000Y-426300D02*
G01*
X8867000Y-1916297D01*
X9166999Y-426300D02*
G01*
X9166999Y-1916297D01*
X5143500Y-7023100D02*
G01*
X5168900Y-7023100D01*
X4635500Y-7023100D02*
G01*
X4610100Y-7023100D01*
X5143500Y-7023100D02*
G01*
X5143500Y-7099300D01*
X5143500Y-6946900D02*
G01*
X5143500Y-7023100D01*
X4635500Y-6946900D02*
G01*
X5143500Y-6946900D01*
X4635500Y-7023100D02*
G01*
X4635500Y-6946900D01*
X4635500Y-7099300D02*
G01*
X4635500Y-7023100D01*
X5143500Y-7099300D02*
G01*
X4635500Y-7099300D01*
X6565900Y-7112000D02*
G01*
X6591300Y-7112000D01*
X6057900Y-7112000D02*
G01*
X6032500Y-7112000D01*
X6565900Y-7112000D02*
G01*
X6565900Y-7188200D01*
X6565900Y-7035800D02*
G01*
X6565900Y-7112000D01*
X6057900Y-7035800D02*
G01*
X6565900Y-7035800D01*
X6057900Y-7112000D02*
G01*
X6057900Y-7035800D01*
X6057900Y-7188200D02*
G01*
X6057900Y-7112000D01*
X6565900Y-7188200D02*
G01*
X6057900Y-7188200D01*
X5054600Y-5664200D02*
G01*
X5054600Y-5638800D01*
X5054600Y-6172200D02*
G01*
X5054600Y-6197600D01*
X5054600Y-5664200D02*
G01*
X5130800Y-5664200D01*
X4978400Y-5664200D02*
G01*
X5054600Y-5664200D01*
X4978400Y-6172200D02*
G01*
X4978400Y-5664200D01*
X5054600Y-6172200D02*
G01*
X4978400Y-6172200D01*
X5130800Y-6172200D02*
G01*
X5054600Y-6172200D01*
X5130800Y-5664200D02*
G01*
X5130800Y-6172200D01*
X4660900Y-6096000D02*
G01*
X4660900Y-6121400D01*
X4660900Y-5588000D02*
G01*
X4660900Y-5562600D01*
X4660900Y-6096000D02*
G01*
X4584700Y-6096000D01*
X4737100Y-6096000D02*
G01*
X4660900Y-6096000D01*
X4737100Y-5588000D02*
G01*
X4737100Y-6096000D01*
X4660900Y-5588000D02*
G01*
X4737100Y-5588000D01*
X4584700Y-5588000D02*
G01*
X4660900Y-5588000D01*
X4584700Y-6096000D02*
G01*
X4584700Y-5588000D01*
X8064500Y-9690100D02*
G01*
X8064500Y-9359900D01*
X8115300Y-9690100D02*
G01*
X8115300Y-9359900D01*
X8153400Y-9690100D02*
G01*
X8153400Y-9359900D01*
X8204200Y-9690100D02*
G01*
X8204200Y-9359900D01*
X7262098Y-9884996D02*
G01*
X7262098Y-9165000D01*
X8562101Y-9165000D02*
G01*
X7262098Y-9165000D01*
X8562101Y-9884996D02*
G01*
X8562101Y-9165000D01*
X8562101Y-9884999D02*
G01*
X7262098Y-9884999D01*
X8248650Y-9702800D02*
G01*
X7581900Y-9702800D01*
X7581900Y-9347200D01*
X8248650Y-9347200D01*
X8248650Y-9702800D01*
D21*
X9753600Y-4305300D02*
G01*
X8001000Y-4305300D01*
X8001000Y-2273300D01*
X9779000Y-2273300D01*
X9779000Y-3289300D01*
X9779000Y-4305300D01*
X9753600Y-6540500D02*
G01*
X8001000Y-6540500D01*
X8001000Y-4508500D01*
X9779000Y-4508500D01*
X9779000Y-5524500D01*
X9779000Y-6540500D01*
D17*
X1752600Y-9202394D02*
G01*
X152603Y-9202394D01*
X152603Y-7102398D01*
X1752600Y-7102398D01*
X1752600Y-9202394D01*
D11*
X5354599Y-3083499D02*
G01*
X5354599Y-3393500D01*
X6024600Y-3393500D01*
X6024600Y-3083499D01*
X5354599Y-3083499D01*
X3652799Y-3604199D02*
G01*
X3652799Y-3914200D01*
X4322800Y-3914200D01*
X4322800Y-3604199D01*
X3652799Y-3604199D01*
D18*
G75*
G01*
X6997700Y-7874000D02*
G03*
X6998310Y-7874000I305J-254000D01*
G75*
G01*
X5905500Y-6578600D02*
G03*
X5905500Y-6579210I-254000J-305D01*
G75*
G01*
X5905500Y-5816600D02*
G03*
X5905500Y-5817210I-254000J-305D01*
G75*
G01*
X5918200Y-4648200D02*
G03*
X5918200Y-4648810I-254000J-305D01*
D10*
G75*
G01*
X4143599Y-6637000D02*
G03*
X4186034Y-6354983I-104999J160001D01*
G75*
G01*
X3933604Y-6637000D02*
G02*
X3891168Y-6354978I104996J160002D01*
G75*
G01*
X5491500Y-5273899D02*
G03*
X5773517Y-5316334I160001J104999D01*
G75*
G01*
X5491500Y-5063904D02*
G02*
X5773522Y-5021468I160002J-104996D01*
D12*
G75*
G01*
X7186823Y-7391466D02*
G03*
X7340173Y-7238939I-24450J177934D01*
G75*
G01*
X2437498Y-7212698D02*
G03*
X2617104Y-7392302I179605J1D01*
G75*
G01*
X2629543Y-1446002D02*
G03*
X2449937Y-1625605I-1J-179605D01*
G75*
G01*
X7342596Y-1638397D02*
G03*
X7150638Y-1446459I-179150J12789D01*
D17*
G75*
G01*
X1166254Y-6711699D02*
G02*
X866023Y-7011670I-300000J28D01*
G75*
G01*
X-1733918Y-4311653D02*
G02*
X-1433949Y-4011673I299999J-20D01*
D16*
G75*
G01*
X5367099Y-3531001D02*
G03*
X5367089Y-3531555I-12500J-48D01*
G75*
G01*
X3665299Y-4051701D02*
G03*
X3665289Y-4052255I-12500J-48D01*
D10*
G75*
G01
X4268597Y-6477000D02*
G03X4268597Y-6477000I-229997J0D01*
G75*
G01
X5881497Y-5168900D02*
G03X5881497Y-5168900I-229997J0D01*
D22*
G75*
G01
X6508902Y-495300D02*
G03X6508902Y-495300I-70002J0D01*
G75*
G01
X6254902Y-495300D02*
G03X6254902Y-495300I-70002J0D01*
G75*
G01
X6000902Y-495300D02*
G03X6000902Y-495300I-70002J0D01*
G75*
G01
X5746902Y-495300D02*
G03X5746902Y-495300I-70002J0D01*
G75*
G01
X5492902Y-495300D02*
G03X5492902Y-495300I-70002J0D01*
G75*
G01
X5238902Y-495300D02*
G03X5238902Y-495300I-70002J0D01*
G75*
G01
X3829202Y-495300D02*
G03X3829202Y-495300I-70002J0D01*
G75*
G01
X3575202Y-495300D02*
G03X3575202Y-495300I-70002J0D01*
G75*
G01
X3321202Y-495300D02*
G03X3321202Y-495300I-70002J0D01*
G75*
G01
X3067202Y-495300D02*
G03X3067202Y-495300I-70002J0D01*
G75*
G01
X2813202Y-495300D02*
G03X2813202Y-495300I-70002J0D01*
G75*
G01
X2559202Y-495300D02*
G03X2559202Y-495300I-70002J0D01*
G75*
G01
X5073802Y-9499600D02*
G03X5073802Y-9499600I-70002J0D01*
G75*
G01
X5327802Y-9499600D02*
G03X5327802Y-9499600I-70002J0D01*
G75*
G01
X5581802Y-9499600D02*
G03X5581802Y-9499600I-70002J0D01*
G75*
G01
X5835802Y-9499600D02*
G03X5835802Y-9499600I-70002J0D01*
G75*
G01
X6089802Y-9499600D02*
G03X6089802Y-9499600I-70002J0D01*
G75*
G01
X6343802Y-9499600D02*
G03X6343802Y-9499600I-70002J0D01*
G75*
G01
X2673502Y-9461500D02*
G03X2673502Y-9461500I-70002J0D01*
G75*
G01
X2927502Y-9461500D02*
G03X2927502Y-9461500I-70002J0D01*
G75*
G01
X3181502Y-9461500D02*
G03X3181502Y-9461500I-70002J0D01*
G75*
G01
X3435502Y-9461500D02*
G03X3435502Y-9461500I-70002J0D01*
G75*
G01
X3689502Y-9461500D02*
G03X3689502Y-9461500I-70002J0D01*
G75*
G01
X3943502Y-9461500D02*
G03X3943502Y-9461500I-70002J0D01*
D17*
G75*
G01
X250596Y-463601D02*
G03X250596Y-463601I-5004J0D01*
G75*
G01
X9419996Y-476301D02*
G03X9419996Y-476301I-5004J0D01*
G75*
G01
X745896Y-438201D02*
G03X745896Y-438201I-5004J0D01*
G75*
G01
X8911996Y-476301D02*
G03X8911996Y-476301I-5004J0D01*
G75*
G01
X629107Y-8928100D02*
G03X629107Y-8928100I-210007J0D01*
G75*
G01
X629107Y-7378700D02*
G03X629107Y-7378700I-210007J0D01*
M02*
