G04 Layer: BottomSolderMaskLayer*
G04 EasyEDA v6.5.8, 2022-07-15 11:59:49*
G04 d1191fb9e1b14548bd0f93557d019ec9,639d141a17be428fa5966410475b8b1a,10*
G04 Gerber Generator version 0.2*
G04 Scale: 100 percent, Rotated: No, Reflected: No *
G04 Dimensions in millimeters *
G04 leading zeros omitted , absolute positions ,4 integer and 5 decimal *
%FSLAX45Y45*%
%MOMM*%

%ADD10C,3.2032*%
%ADD11C,1.9000*%
%ADD12C,1.6017*%
%ADD13C,1.2954*%
%ADD14C,2.5016*%
%ADD15C,1.6016*%
%ADD16C,1.6256*%
%ADD17C,1.7032*%
%ADD18C,2.4032*%
%ADD19C,1.8032*%
%ADD20C,1.7516*%
%ADD21C,1.9812*%
%ADD22C,1.7272*%
%ADD23C,2.0032*%
%ADD24C,3.7032*%
%ADD25C,3.6016*%

%LPD*%
D10*
X2628900Y-7100100D02*
G01*
X2628900Y-7200099D01*
X7150100Y-7100100D02*
G01*
X7150100Y-7200099D01*
D11*
X8382101Y-9570001D02*
G01*
X8382101Y-9480001D01*
X7912100Y-9570001D02*
G01*
X7912100Y-9480001D01*
X7442098Y-9570001D02*
G01*
X7442098Y-9480001D01*
D12*
G01*
X6997700Y-8255000D03*
G36*
X6917690Y-8081010D02*
G01*
X6917690Y-7920989D01*
X7077709Y-7920989D01*
X7077709Y-8081010D01*
G37*
G01*
X5524500Y-6578600D03*
G36*
X5698490Y-6658610D02*
G01*
X5698490Y-6498589D01*
X5858509Y-6498589D01*
X5858509Y-6658610D01*
G37*
G01*
X5524500Y-5816600D03*
G36*
X5698490Y-5896610D02*
G01*
X5698490Y-5736589D01*
X5858509Y-5736589D01*
X5858509Y-5896610D01*
G37*
G01*
X5537200Y-4648200D03*
G36*
X5711190Y-4728210D02*
G01*
X5711190Y-4568189D01*
X5871209Y-4568189D01*
X5871209Y-4728210D01*
G37*
D13*
G01*
X4902200Y-8280400D03*
G01*
X4902200Y-8026400D03*
G01*
X5588000Y-8280400D03*
G01*
X5588000Y-8026400D03*
G01*
X6286500Y-8267700D03*
G01*
X6286500Y-8013700D03*
G36*
X8904731Y-9218168D02*
G01*
X8904731Y-8968231D01*
X9154668Y-8968231D01*
X9154668Y-9218168D01*
G37*
D14*
G01*
X9029700Y-8585200D03*
D15*
G01*
X4038600Y-6589496D03*
G01*
X4038600Y-6364503D03*
G01*
X5539003Y-5168900D03*
G01*
X5763996Y-5168900D03*
G36*
X731520Y-3713479D02*
G01*
X731520Y-3550920D01*
X894079Y-3550920D01*
X894079Y-3713479D01*
G37*
D16*
G01*
X812800Y-3378200D03*
G01*
X812800Y-3124200D03*
G01*
X812800Y-2870200D03*
G01*
X812800Y-2616200D03*
G01*
X812800Y-2362200D03*
D10*
G01*
X2629534Y-1625600D03*
G01*
X7163434Y-1625600D03*
D17*
G01*
X7176134Y-5499100D03*
G01*
X6922134Y-5499100D03*
G01*
X7176134Y-5245100D03*
G01*
X6922134Y-5245100D03*
G01*
X7176134Y-4991100D03*
G01*
X6922134Y-4991100D03*
G01*
X7176134Y-4737100D03*
G01*
X6922134Y-4737100D03*
G01*
X7176134Y-4483100D03*
G01*
X6922134Y-4483100D03*
G01*
X7176134Y-4229100D03*
G01*
X6922134Y-4229100D03*
G01*
X7176134Y-3975100D03*
G01*
X6922134Y-3975100D03*
G01*
X7176134Y-3721100D03*
G01*
X6922134Y-3721100D03*
G01*
X7176134Y-3467100D03*
G01*
X6922134Y-3467100D03*
G01*
X7176134Y-3213100D03*
G01*
X6922134Y-3213100D03*
G01*
X7176134Y-2959100D03*
G01*
X6922134Y-2959100D03*
G01*
X7176134Y-2705100D03*
G01*
X6922134Y-2705100D03*
G01*
X7176134Y-2451100D03*
G01*
X6922134Y-2451100D03*
G01*
X7176134Y-2197100D03*
G01*
X6922134Y-2197100D03*
G01*
X7176134Y-1943100D03*
G36*
X6836918Y-2028189D02*
G01*
X6836918Y-1858010D01*
X7007352Y-1858010D01*
X7007352Y-2028189D01*
G37*
G01*
X2856865Y-5496229D03*
G01*
X2602865Y-5496229D03*
G01*
X2856865Y-5242229D03*
G01*
X2602865Y-5242229D03*
G01*
X2856865Y-4988229D03*
G01*
X2602865Y-4988229D03*
G01*
X2856865Y-4734229D03*
G01*
X2602865Y-4734229D03*
G01*
X2856865Y-4480229D03*
G01*
X2602865Y-4480229D03*
G01*
X2857500Y-4229100D03*
G01*
X2602865Y-4226229D03*
G01*
X2856865Y-3972229D03*
G01*
X2602865Y-3972229D03*
G01*
X2856865Y-3718229D03*
G01*
X2602865Y-3718229D03*
G01*
X2856865Y-3464229D03*
G01*
X2602865Y-3464229D03*
G01*
X2857500Y-3213100D03*
G01*
X2602865Y-3210229D03*
G01*
X2856865Y-2956229D03*
G01*
X2602865Y-2956229D03*
G01*
X2856865Y-2702229D03*
G01*
X2602865Y-2702229D03*
G01*
X2856865Y-2448229D03*
G01*
X2602865Y-2448229D03*
G01*
X2856865Y-2194229D03*
G01*
X2602865Y-2194229D03*
G01*
X2856865Y-1940229D03*
G36*
X2517647Y-2025395D02*
G01*
X2517647Y-1854962D01*
X2688081Y-1854962D01*
X2688081Y-2025395D01*
G37*
G01*
X2602865Y-5750229D03*
G01*
X2856865Y-5750229D03*
G01*
X6922134Y-5753100D03*
G01*
X7176134Y-5753100D03*
D18*
G01*
X6438900Y-495300D03*
G01*
X6184900Y-495300D03*
G01*
X5930900Y-495300D03*
G01*
X5676900Y-495300D03*
G01*
X5422900Y-495300D03*
G01*
X5168900Y-495300D03*
G01*
X3759200Y-495300D03*
G01*
X3505200Y-495300D03*
G01*
X3251200Y-495300D03*
G01*
X2997200Y-495300D03*
G01*
X2743200Y-495300D03*
G01*
X2489200Y-495300D03*
G01*
X5003800Y-9499600D03*
G01*
X5257800Y-9499600D03*
G01*
X5511800Y-9499600D03*
G01*
X5765800Y-9499600D03*
G01*
X6019800Y-9499600D03*
G01*
X6273800Y-9499600D03*
G01*
X2603500Y-9461500D03*
G01*
X2857500Y-9461500D03*
G01*
X3111500Y-9461500D03*
G01*
X3365500Y-9461500D03*
G01*
X3619500Y-9461500D03*
G01*
X3873500Y-9461500D03*
D19*
G01*
X8432800Y-1257300D03*
G01*
X8432800Y-1003300D03*
G01*
X8432800Y-749300D03*
G01*
X8432800Y-495300D03*
D20*
G01*
X1016127Y-5892800D03*
G01*
X1016127Y-5638800D03*
G01*
X1016127Y-5384800D03*
G01*
X1015872Y-5130800D03*
D16*
G01*
X355600Y-523595D03*
G01*
X355600Y-777595D03*
G01*
X355600Y-1031595D03*
G01*
X355600Y-1285595D03*
G01*
X355600Y-1539595D03*
G01*
X355600Y-1793595D03*
G01*
X9525000Y-536295D03*
G01*
X9525000Y-790295D03*
G01*
X9525000Y-1044295D03*
G01*
X9525000Y-1298295D03*
G01*
X9525000Y-1552295D03*
G01*
X9525000Y-1806295D03*
G01*
X850900Y-498195D03*
G01*
X850900Y-752195D03*
G01*
X850900Y-1006195D03*
G01*
X850900Y-1260195D03*
G01*
X850900Y-1514195D03*
G01*
X850900Y-1768195D03*
G01*
X9017000Y-536295D03*
G01*
X9017000Y-790295D03*
G01*
X9017000Y-1044295D03*
G01*
X9017000Y-1298295D03*
G01*
X9017000Y-1552295D03*
G01*
X9017000Y-1806295D03*
D21*
G01*
X5270500Y-7023100D03*
G01*
X4508500Y-7023100D03*
G01*
X6692900Y-7112000D03*
G01*
X5930900Y-7112000D03*
G01*
X5054600Y-5537200D03*
G01*
X5054600Y-6299200D03*
G01*
X4660900Y-6223000D03*
G01*
X4660900Y-5461000D03*
D22*
G01*
X9652000Y-2908300D03*
G01*
X9652000Y-2654300D03*
G01*
X9652000Y-2400300D03*
G01*
X9652000Y-3162300D03*
G01*
X9652000Y-3416300D03*
G01*
X9652000Y-3670300D03*
G01*
X9652000Y-3924300D03*
G01*
X9652000Y-4178300D03*
G01*
X8128000Y-4178300D03*
G01*
X8128000Y-3924300D03*
G01*
X8128000Y-3670300D03*
G01*
X8128000Y-3416300D03*
G01*
X8128000Y-3162300D03*
G01*
X8128000Y-2908300D03*
G01*
X8128000Y-2654300D03*
G01*
X8128000Y-2400300D03*
G01*
X9652000Y-5143500D03*
G01*
X9652000Y-4889500D03*
G01*
X9652000Y-4635500D03*
G01*
X9652000Y-5397500D03*
G01*
X9652000Y-5651500D03*
G01*
X9652000Y-5905500D03*
G01*
X9652000Y-6159500D03*
G01*
X9652000Y-6413500D03*
G01*
X8128000Y-6413500D03*
G01*
X8128000Y-6159500D03*
G01*
X8128000Y-5905500D03*
G01*
X8128000Y-5651500D03*
G01*
X8128000Y-5397500D03*
G01*
X8128000Y-5143500D03*
G01*
X8128000Y-4889500D03*
G01*
X8128000Y-4635500D03*
D23*
G01*
X1625600Y-9042400D03*
G01*
X1625600Y-8788400D03*
G01*
X1625600Y-8534400D03*
G01*
X1625600Y-8280400D03*
G01*
X1625600Y-8026400D03*
G01*
X1625600Y-7772400D03*
G01*
X1625600Y-7518400D03*
G01*
X1625600Y-7264400D03*
D24*
G01*
X419100Y-8928100D03*
D25*
G01*
X419100Y-7378700D03*
M02*
