G04 Layer: BottomSilkscreenLayer*
G04 EasyEDA v6.5.8, 2022-07-15 11:59:49*
G04 d1191fb9e1b14548bd0f93557d019ec9,639d141a17be428fa5966410475b8b1a,10*
G04 Gerber Generator version 0.2*
G04 Scale: 100 percent, Rotated: No, Reflected: No *
G04 Dimensions in millimeters *
G04 leading zeros omitted , absolute positions ,4 integer and 5 decimal *
%FSLAX45Y45*%
%MOMM*%

%ADD10C,0.3500*%
%ADD11C,0.2000*%

%LPD*%
D10*
X1625600Y-1102827D02*
G01*
X1625600Y-816462D01*
X1625600Y-1102827D02*
G01*
X1734690Y-816462D01*
X1843780Y-1102827D02*
G01*
X1734690Y-816462D01*
X1843780Y-1102827D02*
G01*
X1843780Y-816462D01*
X1947418Y-1034646D02*
G01*
X1947418Y-1048280D01*
X1961052Y-1075552D01*
X1974689Y-1089190D01*
X2001961Y-1102827D01*
X2056508Y-1102827D01*
X2083780Y-1089190D01*
X2097417Y-1075552D01*
X2111052Y-1048280D01*
X2111052Y-1021008D01*
X2097417Y-993736D01*
X2070145Y-952827D01*
X1933780Y-816462D01*
X2124689Y-816462D01*
X4356100Y-1115527D02*
G01*
X4356100Y-829162D01*
X4356100Y-1115527D02*
G01*
X4465190Y-829162D01*
X4574280Y-1115527D02*
G01*
X4465190Y-829162D01*
X4574280Y-1115527D02*
G01*
X4574280Y-829162D01*
X4664280Y-1060980D02*
G01*
X4691552Y-1074618D01*
X4732461Y-1115527D01*
X4732461Y-829162D01*
X6859739Y-9216387D02*
G01*
X6859739Y-8930022D01*
X6859739Y-9216387D02*
G01*
X6968830Y-8930022D01*
X7077920Y-9216387D02*
G01*
X6968830Y-8930022D01*
X7077920Y-9216387D02*
G01*
X7077920Y-8930022D01*
X7195192Y-9216387D02*
G01*
X7345192Y-9216387D01*
X7263376Y-9107296D01*
X7304285Y-9107296D01*
X7331557Y-9093659D01*
X7345192Y-9080022D01*
X7358829Y-9039113D01*
X7358829Y-9011841D01*
X7345192Y-8970932D01*
X7317920Y-8943660D01*
X7277011Y-8930022D01*
X7236101Y-8930022D01*
X7195192Y-8943660D01*
X7181557Y-8957297D01*
X7167920Y-8984569D01*
X4216400Y-9180027D02*
G01*
X4216400Y-8893662D01*
X4216400Y-9180027D02*
G01*
X4325490Y-8893662D01*
X4434580Y-9180027D02*
G01*
X4325490Y-8893662D01*
X4434580Y-9180027D02*
G01*
X4434580Y-8893662D01*
X4660945Y-9180027D02*
G01*
X4524580Y-8989118D01*
X4729126Y-8989118D01*
X4660945Y-9180027D02*
G01*
X4660945Y-8893662D01*
D11*
X2512862Y-888309D02*
G01*
X2476500Y-792853D01*
X2512862Y-888309D02*
G01*
X2549227Y-792853D01*
X2490137Y-824671D02*
G01*
X2535590Y-824671D01*
X2476500Y-1066109D02*
G01*
X2476500Y-970653D01*
X2476500Y-1066109D02*
G01*
X2517409Y-1066109D01*
X2531046Y-1061562D01*
X2535590Y-1057018D01*
X2540137Y-1047927D01*
X2540137Y-1038837D01*
X2535590Y-1029746D01*
X2531046Y-1025199D01*
X2517409Y-1020653D01*
X2476500Y-1020653D02*
G01*
X2517409Y-1020653D01*
X2531046Y-1016109D01*
X2535590Y-1011562D01*
X2540137Y-1002471D01*
X2540137Y-988837D01*
X2535590Y-979746D01*
X2531046Y-975199D01*
X2517409Y-970653D01*
X2476500Y-970653D01*
X3073400Y-901009D02*
G01*
X3073400Y-805553D01*
X3073400Y-901009D02*
G01*
X3114309Y-901009D01*
X3127946Y-896462D01*
X3132490Y-891918D01*
X3137037Y-882827D01*
X3137037Y-869190D01*
X3132490Y-860099D01*
X3127946Y-855553D01*
X3114309Y-851009D01*
X3073400Y-851009D01*
X3167037Y-901009D02*
G01*
X3167037Y-805553D01*
X3167037Y-901009D02*
G01*
X3207946Y-901009D01*
X3221581Y-896462D01*
X3226127Y-891918D01*
X3230671Y-882827D01*
X3230671Y-873737D01*
X3226127Y-864646D01*
X3221581Y-860099D01*
X3207946Y-855553D01*
X3167037Y-855553D02*
G01*
X3207946Y-855553D01*
X3221581Y-851009D01*
X3226127Y-846462D01*
X3230671Y-837371D01*
X3230671Y-823737D01*
X3226127Y-814646D01*
X3221581Y-810099D01*
X3207946Y-805553D01*
X3167037Y-805553D01*
X3315218Y-887371D02*
G01*
X3310671Y-896462D01*
X3297036Y-901009D01*
X3287946Y-901009D01*
X3274308Y-896462D01*
X3265218Y-882827D01*
X3260671Y-860099D01*
X3260671Y-837371D01*
X3265218Y-819190D01*
X3274308Y-810099D01*
X3287946Y-805553D01*
X3292490Y-805553D01*
X3306127Y-810099D01*
X3315218Y-819190D01*
X3319762Y-832827D01*
X3319762Y-837371D01*
X3315218Y-851009D01*
X3306127Y-860099D01*
X3292490Y-864646D01*
X3287946Y-864646D01*
X3274308Y-860099D01*
X3265218Y-851009D01*
X3260671Y-837371D01*
X3086100Y-1078809D02*
G01*
X3086100Y-983353D01*
X3086100Y-1078809D02*
G01*
X3127009Y-1078809D01*
X3140646Y-1074262D01*
X3145190Y-1069718D01*
X3149737Y-1060627D01*
X3149737Y-1046990D01*
X3145190Y-1037899D01*
X3140646Y-1033353D01*
X3127009Y-1028809D01*
X3086100Y-1028809D01*
X3179737Y-1078809D02*
G01*
X3179737Y-983353D01*
X3179737Y-1078809D02*
G01*
X3220646Y-1078809D01*
X3234281Y-1074262D01*
X3238827Y-1069718D01*
X3243371Y-1060627D01*
X3243371Y-1051537D01*
X3238827Y-1042446D01*
X3234281Y-1037899D01*
X3220646Y-1033353D01*
X3179737Y-1033353D02*
G01*
X3220646Y-1033353D01*
X3234281Y-1028809D01*
X3238827Y-1024262D01*
X3243371Y-1015171D01*
X3243371Y-1001537D01*
X3238827Y-992446D01*
X3234281Y-987899D01*
X3220646Y-983353D01*
X3179737Y-983353D01*
X3337008Y-1078809D02*
G01*
X3291552Y-983353D01*
X3273371Y-1078809D02*
G01*
X3337008Y-1078809D01*
X2413000Y-1231209D02*
G01*
X2413000Y-1135753D01*
X2442999Y-1231209D02*
G01*
X2442999Y-1135753D01*
X2442999Y-1231209D02*
G01*
X2506637Y-1135753D01*
X2506637Y-1231209D02*
G01*
X2506637Y-1135753D01*
X2536637Y-1213027D02*
G01*
X2545727Y-1217571D01*
X2559362Y-1231209D01*
X2559362Y-1135753D01*
X2400300Y-1421709D02*
G01*
X2400300Y-1326253D01*
X2430299Y-1421709D02*
G01*
X2430299Y-1326253D01*
X2430299Y-1421709D02*
G01*
X2493937Y-1326253D01*
X2493937Y-1421709D02*
G01*
X2493937Y-1326253D01*
X2528481Y-1398981D02*
G01*
X2528481Y-1403527D01*
X2533027Y-1412618D01*
X2537571Y-1417162D01*
X2546662Y-1421709D01*
X2564846Y-1421709D01*
X2573936Y-1417162D01*
X2578481Y-1412618D01*
X2583027Y-1403527D01*
X2583027Y-1394437D01*
X2578481Y-1385346D01*
X2569390Y-1371709D01*
X2523937Y-1326253D01*
X2587571Y-1326253D01*
X3098800Y-1269309D02*
G01*
X3098800Y-1173853D01*
X3098800Y-1269309D02*
G01*
X3139709Y-1269309D01*
X3153346Y-1264762D01*
X3157890Y-1260218D01*
X3162437Y-1251127D01*
X3162437Y-1237490D01*
X3157890Y-1228399D01*
X3153346Y-1223853D01*
X3139709Y-1219309D01*
X3098800Y-1219309D01*
X3260618Y-1246581D02*
G01*
X3256071Y-1255671D01*
X3246981Y-1264762D01*
X3237890Y-1269309D01*
X3219709Y-1269309D01*
X3210618Y-1264762D01*
X3201527Y-1255671D01*
X3196981Y-1246581D01*
X3192437Y-1232946D01*
X3192437Y-1210218D01*
X3196981Y-1196581D01*
X3201527Y-1187490D01*
X3210618Y-1178399D01*
X3219709Y-1173853D01*
X3237890Y-1173853D01*
X3246981Y-1178399D01*
X3256071Y-1187490D01*
X3260618Y-1196581D01*
X3295162Y-1246581D02*
G01*
X3295162Y-1251127D01*
X3299708Y-1260218D01*
X3304252Y-1264762D01*
X3313346Y-1269309D01*
X3331527Y-1269309D01*
X3340618Y-1264762D01*
X3345162Y-1260218D01*
X3349708Y-1251127D01*
X3349708Y-1242037D01*
X3345162Y-1232946D01*
X3336071Y-1219309D01*
X3290618Y-1173853D01*
X3354252Y-1173853D01*
X3098800Y-1409009D02*
G01*
X3098800Y-1313553D01*
X3098800Y-1409009D02*
G01*
X3139709Y-1409009D01*
X3153346Y-1404462D01*
X3157890Y-1399918D01*
X3162437Y-1390827D01*
X3162437Y-1377190D01*
X3157890Y-1368099D01*
X3153346Y-1363553D01*
X3139709Y-1359009D01*
X3098800Y-1359009D01*
X3260618Y-1386281D02*
G01*
X3256071Y-1395371D01*
X3246981Y-1404462D01*
X3237890Y-1409009D01*
X3219709Y-1409009D01*
X3210618Y-1404462D01*
X3201527Y-1395371D01*
X3196981Y-1386281D01*
X3192437Y-1372646D01*
X3192437Y-1349918D01*
X3196981Y-1336281D01*
X3201527Y-1327190D01*
X3210618Y-1318099D01*
X3219709Y-1313553D01*
X3237890Y-1313553D01*
X3246981Y-1318099D01*
X3256071Y-1327190D01*
X3260618Y-1336281D01*
X3299708Y-1409009D02*
G01*
X3349708Y-1409009D01*
X3322436Y-1372646D01*
X3336071Y-1372646D01*
X3345162Y-1368099D01*
X3349708Y-1363553D01*
X3354252Y-1349918D01*
X3354252Y-1340827D01*
X3349708Y-1327190D01*
X3340618Y-1318099D01*
X3326980Y-1313553D01*
X3313346Y-1313553D01*
X3299708Y-1318099D01*
X3295162Y-1322646D01*
X3290618Y-1331737D01*
X5129062Y-901009D02*
G01*
X5092700Y-805553D01*
X5129062Y-901009D02*
G01*
X5165427Y-805553D01*
X5106337Y-837371D02*
G01*
X5151790Y-837371D01*
X5092700Y-1078809D02*
G01*
X5092700Y-983353D01*
X5092700Y-1078809D02*
G01*
X5133609Y-1078809D01*
X5147246Y-1074262D01*
X5151790Y-1069718D01*
X5156337Y-1060627D01*
X5156337Y-1051537D01*
X5151790Y-1042446D01*
X5147246Y-1037899D01*
X5133609Y-1033353D01*
X5092700Y-1033353D02*
G01*
X5133609Y-1033353D01*
X5147246Y-1028809D01*
X5151790Y-1024262D01*
X5156337Y-1015171D01*
X5156337Y-1001537D01*
X5151790Y-992446D01*
X5147246Y-987899D01*
X5133609Y-983353D01*
X5092700Y-983353D01*
X5029200Y-1243909D02*
G01*
X5029200Y-1148453D01*
X5059199Y-1243909D02*
G01*
X5059199Y-1148453D01*
X5059199Y-1243909D02*
G01*
X5122837Y-1148453D01*
X5122837Y-1243909D02*
G01*
X5122837Y-1148453D01*
X5152837Y-1225727D02*
G01*
X5161927Y-1230271D01*
X5175562Y-1243909D01*
X5175562Y-1148453D01*
X5016500Y-1434409D02*
G01*
X5016500Y-1338953D01*
X5046499Y-1434409D02*
G01*
X5046499Y-1338953D01*
X5046499Y-1434409D02*
G01*
X5110137Y-1338953D01*
X5110137Y-1434409D02*
G01*
X5110137Y-1338953D01*
X5144681Y-1411681D02*
G01*
X5144681Y-1416227D01*
X5149227Y-1425318D01*
X5153771Y-1429862D01*
X5162862Y-1434409D01*
X5181046Y-1434409D01*
X5190136Y-1429862D01*
X5194681Y-1425318D01*
X5199227Y-1416227D01*
X5199227Y-1407137D01*
X5194681Y-1398046D01*
X5185590Y-1384409D01*
X5140137Y-1338953D01*
X5203771Y-1338953D01*
X5613400Y-875609D02*
G01*
X5613400Y-780153D01*
X5613400Y-875609D02*
G01*
X5654309Y-875609D01*
X5667946Y-871062D01*
X5672490Y-866518D01*
X5677037Y-857427D01*
X5677037Y-843790D01*
X5672490Y-834699D01*
X5667946Y-830153D01*
X5654309Y-825609D01*
X5613400Y-825609D01*
X5743399Y-875609D02*
G01*
X5707037Y-780153D01*
X5743399Y-875609D02*
G01*
X5779762Y-780153D01*
X5720671Y-811971D02*
G01*
X5766127Y-811971D01*
X5864308Y-861971D02*
G01*
X5859762Y-871062D01*
X5846127Y-875609D01*
X5837036Y-875609D01*
X5823399Y-871062D01*
X5814308Y-857427D01*
X5809762Y-834699D01*
X5809762Y-811971D01*
X5814308Y-793790D01*
X5823399Y-784699D01*
X5837036Y-780153D01*
X5841580Y-780153D01*
X5855218Y-784699D01*
X5864308Y-793790D01*
X5868852Y-807427D01*
X5868852Y-811971D01*
X5864308Y-825609D01*
X5855218Y-834699D01*
X5841580Y-839246D01*
X5837036Y-839246D01*
X5823399Y-834699D01*
X5814308Y-825609D01*
X5809762Y-811971D01*
X5613400Y-1066109D02*
G01*
X5613400Y-970653D01*
X5613400Y-1066109D02*
G01*
X5654309Y-1066109D01*
X5667946Y-1061562D01*
X5672490Y-1057018D01*
X5677037Y-1047927D01*
X5677037Y-1034290D01*
X5672490Y-1025199D01*
X5667946Y-1020653D01*
X5654309Y-1016109D01*
X5613400Y-1016109D01*
X5743399Y-1066109D02*
G01*
X5707037Y-970653D01*
X5743399Y-1066109D02*
G01*
X5779762Y-970653D01*
X5720671Y-1002471D02*
G01*
X5766127Y-1002471D01*
X5873399Y-1066109D02*
G01*
X5827946Y-970653D01*
X5809762Y-1066109D02*
G01*
X5873399Y-1066109D01*
X5613400Y-1231209D02*
G01*
X5613400Y-1135753D01*
X5613400Y-1231209D02*
G01*
X5654309Y-1231209D01*
X5667946Y-1226662D01*
X5672490Y-1222118D01*
X5677037Y-1213027D01*
X5677037Y-1199390D01*
X5672490Y-1190299D01*
X5667946Y-1185753D01*
X5654309Y-1181209D01*
X5613400Y-1181209D01*
X5775218Y-1208481D02*
G01*
X5770671Y-1217571D01*
X5761581Y-1226662D01*
X5752490Y-1231209D01*
X5734309Y-1231209D01*
X5725218Y-1226662D01*
X5716127Y-1217571D01*
X5711581Y-1208481D01*
X5707037Y-1194846D01*
X5707037Y-1172118D01*
X5711581Y-1158481D01*
X5716127Y-1149390D01*
X5725218Y-1140299D01*
X5734309Y-1135753D01*
X5752490Y-1135753D01*
X5761581Y-1140299D01*
X5770671Y-1149390D01*
X5775218Y-1158481D01*
X5832490Y-1231209D02*
G01*
X5818852Y-1226662D01*
X5809762Y-1213027D01*
X5805218Y-1190299D01*
X5805218Y-1176662D01*
X5809762Y-1153937D01*
X5818852Y-1140299D01*
X5832490Y-1135753D01*
X5841580Y-1135753D01*
X5855218Y-1140299D01*
X5864308Y-1153937D01*
X5868852Y-1176662D01*
X5868852Y-1190299D01*
X5864308Y-1213027D01*
X5855218Y-1226662D01*
X5841580Y-1231209D01*
X5832490Y-1231209D01*
X5613400Y-1409009D02*
G01*
X5613400Y-1313553D01*
X5613400Y-1409009D02*
G01*
X5654309Y-1409009D01*
X5667946Y-1404462D01*
X5672490Y-1399918D01*
X5677037Y-1390827D01*
X5677037Y-1377190D01*
X5672490Y-1368099D01*
X5667946Y-1363553D01*
X5654309Y-1359009D01*
X5613400Y-1359009D01*
X5775218Y-1386281D02*
G01*
X5770671Y-1395371D01*
X5761581Y-1404462D01*
X5752490Y-1409009D01*
X5734309Y-1409009D01*
X5725218Y-1404462D01*
X5716127Y-1395371D01*
X5711581Y-1386281D01*
X5707037Y-1372646D01*
X5707037Y-1349918D01*
X5711581Y-1336281D01*
X5716127Y-1327190D01*
X5725218Y-1318099D01*
X5734309Y-1313553D01*
X5752490Y-1313553D01*
X5761581Y-1318099D01*
X5770671Y-1327190D01*
X5775218Y-1336281D01*
X5805218Y-1390827D02*
G01*
X5814308Y-1395371D01*
X5827946Y-1409009D01*
X5827946Y-1313553D01*
X5903762Y-9117909D02*
G01*
X5867400Y-9022453D01*
X5903762Y-9117909D02*
G01*
X5940127Y-9022453D01*
X5881037Y-9054271D02*
G01*
X5926490Y-9054271D01*
X5867400Y-8965509D02*
G01*
X5867400Y-8870053D01*
X5867400Y-8965509D02*
G01*
X5908309Y-8965509D01*
X5921946Y-8960962D01*
X5926490Y-8956418D01*
X5931037Y-8947327D01*
X5931037Y-8938237D01*
X5926490Y-8929146D01*
X5921946Y-8924599D01*
X5908309Y-8920053D01*
X5867400Y-8920053D02*
G01*
X5908309Y-8920053D01*
X5921946Y-8915509D01*
X5926490Y-8910962D01*
X5931037Y-8901871D01*
X5931037Y-8888237D01*
X5926490Y-8879146D01*
X5921946Y-8874599D01*
X5908309Y-8870053D01*
X5867400Y-8870053D01*
X5842000Y-8800409D02*
G01*
X5842000Y-8704953D01*
X5871999Y-8800409D02*
G01*
X5871999Y-8704953D01*
X5871999Y-8800409D02*
G01*
X5935637Y-8704953D01*
X5935637Y-8800409D02*
G01*
X5935637Y-8704953D01*
X5965637Y-8782227D02*
G01*
X5974727Y-8786771D01*
X5988362Y-8800409D01*
X5988362Y-8704953D01*
X5829300Y-8622609D02*
G01*
X5829300Y-8527153D01*
X5859299Y-8622609D02*
G01*
X5859299Y-8527153D01*
X5859299Y-8622609D02*
G01*
X5922937Y-8527153D01*
X5922937Y-8622609D02*
G01*
X5922937Y-8527153D01*
X5957481Y-8599881D02*
G01*
X5957481Y-8604427D01*
X5962027Y-8613518D01*
X5966571Y-8618062D01*
X5975662Y-8622609D01*
X5993846Y-8622609D01*
X6002936Y-8618062D01*
X6007481Y-8613518D01*
X6012027Y-8604427D01*
X6012027Y-8595337D01*
X6007481Y-8586246D01*
X5998390Y-8572609D01*
X5952937Y-8527153D01*
X6016571Y-8527153D01*
X6159500Y-9117909D02*
G01*
X6159500Y-9022453D01*
X6159500Y-9117909D02*
G01*
X6200409Y-9117909D01*
X6214046Y-9113362D01*
X6218590Y-9108818D01*
X6223137Y-9099727D01*
X6223137Y-9086090D01*
X6218590Y-9076999D01*
X6214046Y-9072453D01*
X6200409Y-9067909D01*
X6159500Y-9067909D01*
X6289499Y-9117909D02*
G01*
X6253137Y-9022453D01*
X6289499Y-9117909D02*
G01*
X6325862Y-9022453D01*
X6266771Y-9054271D02*
G01*
X6312227Y-9054271D01*
X6383136Y-9117909D02*
G01*
X6369499Y-9113362D01*
X6360408Y-9099727D01*
X6355862Y-9076999D01*
X6355862Y-9063362D01*
X6360408Y-9040637D01*
X6369499Y-9026999D01*
X6383136Y-9022453D01*
X6392227Y-9022453D01*
X6405862Y-9026999D01*
X6414952Y-9040637D01*
X6419499Y-9063362D01*
X6419499Y-9076999D01*
X6414952Y-9099727D01*
X6405862Y-9113362D01*
X6392227Y-9117909D01*
X6383136Y-9117909D01*
X6159500Y-8965509D02*
G01*
X6159500Y-8870053D01*
X6159500Y-8965509D02*
G01*
X6200409Y-8965509D01*
X6214046Y-8960962D01*
X6218590Y-8956418D01*
X6223137Y-8947327D01*
X6223137Y-8933690D01*
X6218590Y-8924599D01*
X6214046Y-8920053D01*
X6200409Y-8915509D01*
X6159500Y-8915509D01*
X6289499Y-8965509D02*
G01*
X6253137Y-8870053D01*
X6289499Y-8965509D02*
G01*
X6325862Y-8870053D01*
X6266771Y-8901871D02*
G01*
X6312227Y-8901871D01*
X6355862Y-8947327D02*
G01*
X6364952Y-8951871D01*
X6378590Y-8965509D01*
X6378590Y-8870053D01*
X6146800Y-8813109D02*
G01*
X6146800Y-8717653D01*
X6146800Y-8813109D02*
G01*
X6187709Y-8813109D01*
X6201346Y-8808562D01*
X6205890Y-8804018D01*
X6210437Y-8794927D01*
X6210437Y-8781290D01*
X6205890Y-8772199D01*
X6201346Y-8767653D01*
X6187709Y-8763109D01*
X6146800Y-8763109D01*
X6240437Y-8813109D02*
G01*
X6240437Y-8717653D01*
X6240437Y-8813109D02*
G01*
X6281346Y-8813109D01*
X6294981Y-8808562D01*
X6299527Y-8804018D01*
X6304071Y-8794927D01*
X6304071Y-8785837D01*
X6299527Y-8776746D01*
X6294981Y-8772199D01*
X6281346Y-8767653D01*
X6240437Y-8767653D02*
G01*
X6281346Y-8767653D01*
X6294981Y-8763109D01*
X6299527Y-8758562D01*
X6304071Y-8749471D01*
X6304071Y-8735837D01*
X6299527Y-8726746D01*
X6294981Y-8722199D01*
X6281346Y-8717653D01*
X6240437Y-8717653D01*
X6334071Y-8794927D02*
G01*
X6343162Y-8799471D01*
X6356799Y-8813109D01*
X6356799Y-8717653D01*
X6441346Y-8813109D02*
G01*
X6395890Y-8813109D01*
X6391346Y-8772199D01*
X6395890Y-8776746D01*
X6409527Y-8781290D01*
X6423162Y-8781290D01*
X6436799Y-8776746D01*
X6445890Y-8767653D01*
X6450436Y-8754018D01*
X6450436Y-8744927D01*
X6445890Y-8731290D01*
X6436799Y-8722199D01*
X6423162Y-8717653D01*
X6409527Y-8717653D01*
X6395890Y-8722199D01*
X6391346Y-8726746D01*
X6386799Y-8735837D01*
X6146800Y-8622609D02*
G01*
X6146800Y-8527153D01*
X6146800Y-8622609D02*
G01*
X6187709Y-8622609D01*
X6201346Y-8618062D01*
X6205890Y-8613518D01*
X6210437Y-8604427D01*
X6210437Y-8590790D01*
X6205890Y-8581699D01*
X6201346Y-8577153D01*
X6187709Y-8572609D01*
X6146800Y-8572609D01*
X6240437Y-8622609D02*
G01*
X6240437Y-8527153D01*
X6240437Y-8622609D02*
G01*
X6281346Y-8622609D01*
X6294981Y-8618062D01*
X6299527Y-8613518D01*
X6304071Y-8604427D01*
X6304071Y-8595337D01*
X6299527Y-8586246D01*
X6294981Y-8581699D01*
X6281346Y-8577153D01*
X6240437Y-8577153D02*
G01*
X6281346Y-8577153D01*
X6294981Y-8572609D01*
X6299527Y-8568062D01*
X6304071Y-8558971D01*
X6304071Y-8545337D01*
X6299527Y-8536246D01*
X6294981Y-8531699D01*
X6281346Y-8527153D01*
X6240437Y-8527153D01*
X6334071Y-8604427D02*
G01*
X6343162Y-8608971D01*
X6356799Y-8622609D01*
X6356799Y-8527153D01*
X6432252Y-8622609D02*
G01*
X6386799Y-8558971D01*
X6454980Y-8558971D01*
X6432252Y-8622609D02*
G01*
X6432252Y-8527153D01*
X3464481Y-9172486D02*
G01*
X3428118Y-9077030D01*
X3464481Y-9172486D02*
G01*
X3500846Y-9077030D01*
X3441755Y-9108848D02*
G01*
X3487209Y-9108848D01*
X3428118Y-9020086D02*
G01*
X3428118Y-8924630D01*
X3428118Y-9020086D02*
G01*
X3469027Y-9020086D01*
X3482665Y-9015539D01*
X3487209Y-9010995D01*
X3491755Y-9001904D01*
X3491755Y-8992814D01*
X3487209Y-8983723D01*
X3482665Y-8979176D01*
X3469027Y-8974630D01*
X3428118Y-8974630D02*
G01*
X3469027Y-8974630D01*
X3482665Y-8970086D01*
X3487209Y-8965539D01*
X3491755Y-8956448D01*
X3491755Y-8942814D01*
X3487209Y-8933723D01*
X3482665Y-8929176D01*
X3469027Y-8924630D01*
X3428118Y-8924630D01*
X3402718Y-8854986D02*
G01*
X3402718Y-8759530D01*
X3432718Y-8854986D02*
G01*
X3432718Y-8759530D01*
X3432718Y-8854986D02*
G01*
X3496355Y-8759530D01*
X3496355Y-8854986D02*
G01*
X3496355Y-8759530D01*
X3526355Y-8836804D02*
G01*
X3535446Y-8841348D01*
X3549081Y-8854986D01*
X3549081Y-8759530D01*
X3390018Y-8677186D02*
G01*
X3390018Y-8581730D01*
X3420018Y-8677186D02*
G01*
X3420018Y-8581730D01*
X3420018Y-8677186D02*
G01*
X3483655Y-8581730D01*
X3483655Y-8677186D02*
G01*
X3483655Y-8581730D01*
X3518199Y-8654458D02*
G01*
X3518199Y-8659004D01*
X3522746Y-8668095D01*
X3527290Y-8672639D01*
X3536381Y-8677186D01*
X3554564Y-8677186D01*
X3563655Y-8672639D01*
X3568199Y-8668095D01*
X3572746Y-8659004D01*
X3572746Y-8649914D01*
X3568199Y-8640823D01*
X3559108Y-8627186D01*
X3513655Y-8581730D01*
X3577290Y-8581730D01*
X3670300Y-9181409D02*
G01*
X3670300Y-9085953D01*
X3670300Y-9181409D02*
G01*
X3711209Y-9181409D01*
X3724846Y-9176862D01*
X3729390Y-9172318D01*
X3733937Y-9163227D01*
X3733937Y-9149590D01*
X3729390Y-9140499D01*
X3724846Y-9135953D01*
X3711209Y-9131409D01*
X3670300Y-9131409D01*
X3832118Y-9158681D02*
G01*
X3827571Y-9167771D01*
X3818481Y-9176862D01*
X3809390Y-9181409D01*
X3791209Y-9181409D01*
X3782118Y-9176862D01*
X3773027Y-9167771D01*
X3768481Y-9158681D01*
X3763937Y-9145046D01*
X3763937Y-9122318D01*
X3768481Y-9108681D01*
X3773027Y-9099590D01*
X3782118Y-9090499D01*
X3791209Y-9085953D01*
X3809390Y-9085953D01*
X3818481Y-9090499D01*
X3827571Y-9099590D01*
X3832118Y-9108681D01*
X3916662Y-9167771D02*
G01*
X3912118Y-9176862D01*
X3898480Y-9181409D01*
X3889390Y-9181409D01*
X3875752Y-9176862D01*
X3866662Y-9163227D01*
X3862118Y-9140499D01*
X3862118Y-9117771D01*
X3866662Y-9099590D01*
X3875752Y-9090499D01*
X3889390Y-9085953D01*
X3893936Y-9085953D01*
X3907571Y-9090499D01*
X3916662Y-9099590D01*
X3921208Y-9113227D01*
X3921208Y-9117771D01*
X3916662Y-9131409D01*
X3907571Y-9140499D01*
X3893936Y-9145046D01*
X3889390Y-9145046D01*
X3875752Y-9140499D01*
X3866662Y-9131409D01*
X3862118Y-9117771D01*
X3670300Y-9029009D02*
G01*
X3670300Y-8933553D01*
X3670300Y-9029009D02*
G01*
X3711209Y-9029009D01*
X3724846Y-9024462D01*
X3729390Y-9019918D01*
X3733937Y-9010827D01*
X3733937Y-8997190D01*
X3729390Y-8988099D01*
X3724846Y-8983553D01*
X3711209Y-8979009D01*
X3670300Y-8979009D01*
X3832118Y-9006281D02*
G01*
X3827571Y-9015371D01*
X3818481Y-9024462D01*
X3809390Y-9029009D01*
X3791209Y-9029009D01*
X3782118Y-9024462D01*
X3773027Y-9015371D01*
X3768481Y-9006281D01*
X3763937Y-8992646D01*
X3763937Y-8969918D01*
X3768481Y-8956281D01*
X3773027Y-8947190D01*
X3782118Y-8938099D01*
X3791209Y-8933553D01*
X3809390Y-8933553D01*
X3818481Y-8938099D01*
X3827571Y-8947190D01*
X3832118Y-8956281D01*
X3925752Y-9029009D02*
G01*
X3880299Y-8933553D01*
X3862118Y-9029009D02*
G01*
X3925752Y-9029009D01*
X3670300Y-8876609D02*
G01*
X3670300Y-8781153D01*
X3670300Y-8876609D02*
G01*
X3711209Y-8876609D01*
X3724846Y-8872062D01*
X3729390Y-8867518D01*
X3733937Y-8858427D01*
X3733937Y-8844790D01*
X3729390Y-8835699D01*
X3724846Y-8831153D01*
X3711209Y-8826609D01*
X3670300Y-8826609D01*
X3763937Y-8876609D02*
G01*
X3763937Y-8781153D01*
X3763937Y-8876609D02*
G01*
X3804846Y-8876609D01*
X3818481Y-8872062D01*
X3823027Y-8867518D01*
X3827571Y-8858427D01*
X3827571Y-8849337D01*
X3823027Y-8840246D01*
X3818481Y-8835699D01*
X3804846Y-8831153D01*
X3763937Y-8831153D02*
G01*
X3804846Y-8831153D01*
X3818481Y-8826609D01*
X3823027Y-8822062D01*
X3827571Y-8812971D01*
X3827571Y-8799337D01*
X3823027Y-8790246D01*
X3818481Y-8785699D01*
X3804846Y-8781153D01*
X3763937Y-8781153D01*
X3884846Y-8876609D02*
G01*
X3871208Y-8872062D01*
X3862118Y-8858427D01*
X3857571Y-8835699D01*
X3857571Y-8822062D01*
X3862118Y-8799337D01*
X3871208Y-8785699D01*
X3884846Y-8781153D01*
X3893936Y-8781153D01*
X3907571Y-8785699D01*
X3916662Y-8799337D01*
X3921208Y-8822062D01*
X3921208Y-8835699D01*
X3916662Y-8858427D01*
X3907571Y-8872062D01*
X3893936Y-8876609D01*
X3884846Y-8876609D01*
X3670300Y-8673409D02*
G01*
X3670300Y-8577953D01*
X3670300Y-8673409D02*
G01*
X3711209Y-8673409D01*
X3724846Y-8668862D01*
X3729390Y-8664318D01*
X3733937Y-8655227D01*
X3733937Y-8641590D01*
X3729390Y-8632499D01*
X3724846Y-8627953D01*
X3711209Y-8623409D01*
X3670300Y-8623409D01*
X3763937Y-8673409D02*
G01*
X3763937Y-8577953D01*
X3763937Y-8673409D02*
G01*
X3804846Y-8673409D01*
X3818481Y-8668862D01*
X3823027Y-8664318D01*
X3827571Y-8655227D01*
X3827571Y-8646137D01*
X3823027Y-8637046D01*
X3818481Y-8632499D01*
X3804846Y-8627953D01*
X3763937Y-8627953D02*
G01*
X3804846Y-8627953D01*
X3818481Y-8623409D01*
X3823027Y-8618862D01*
X3827571Y-8609771D01*
X3827571Y-8596137D01*
X3823027Y-8587046D01*
X3818481Y-8582499D01*
X3804846Y-8577953D01*
X3763937Y-8577953D01*
X3857571Y-8655227D02*
G01*
X3866662Y-8659771D01*
X3880299Y-8673409D01*
X3880299Y-8577953D01*
X1689100Y-5917509D02*
G01*
X1689100Y-5822053D01*
X1689100Y-5917509D02*
G01*
X1730009Y-5917509D01*
X1743646Y-5912962D01*
X1748190Y-5908418D01*
X1752737Y-5899327D01*
X1752737Y-5885690D01*
X1748190Y-5876599D01*
X1743646Y-5872053D01*
X1730009Y-5867509D01*
X1689100Y-5867509D01*
X1850918Y-5894781D02*
G01*
X1846371Y-5903871D01*
X1837281Y-5912962D01*
X1828190Y-5917509D01*
X1810009Y-5917509D01*
X1800918Y-5912962D01*
X1791827Y-5903871D01*
X1787281Y-5894781D01*
X1782737Y-5881146D01*
X1782737Y-5858418D01*
X1787281Y-5844781D01*
X1791827Y-5835690D01*
X1800918Y-5826599D01*
X1810009Y-5822053D01*
X1828190Y-5822053D01*
X1837281Y-5826599D01*
X1846371Y-5835690D01*
X1850918Y-5844781D01*
X1926371Y-5917509D02*
G01*
X1880918Y-5853871D01*
X1949099Y-5853871D01*
X1926371Y-5917509D02*
G01*
X1926371Y-5822053D01*
X1689100Y-5688909D02*
G01*
X1689100Y-5593453D01*
X1689100Y-5688909D02*
G01*
X1730009Y-5688909D01*
X1743646Y-5684362D01*
X1748190Y-5679818D01*
X1752737Y-5670727D01*
X1752737Y-5657090D01*
X1748190Y-5647999D01*
X1743646Y-5643453D01*
X1730009Y-5638909D01*
X1689100Y-5638909D01*
X1850918Y-5666181D02*
G01*
X1846371Y-5675271D01*
X1837281Y-5684362D01*
X1828190Y-5688909D01*
X1810009Y-5688909D01*
X1800918Y-5684362D01*
X1791827Y-5675271D01*
X1787281Y-5666181D01*
X1782737Y-5652546D01*
X1782737Y-5629818D01*
X1787281Y-5616181D01*
X1791827Y-5607090D01*
X1800918Y-5597999D01*
X1810009Y-5593453D01*
X1828190Y-5593453D01*
X1837281Y-5597999D01*
X1846371Y-5607090D01*
X1850918Y-5616181D01*
X1935462Y-5688909D02*
G01*
X1890008Y-5688909D01*
X1885462Y-5647999D01*
X1890008Y-5652546D01*
X1903646Y-5657090D01*
X1917280Y-5657090D01*
X1930918Y-5652546D01*
X1940008Y-5643453D01*
X1944552Y-5629818D01*
X1944552Y-5620727D01*
X1940008Y-5607090D01*
X1930918Y-5597999D01*
X1917280Y-5593453D01*
X1903646Y-5593453D01*
X1890008Y-5597999D01*
X1885462Y-5602546D01*
X1880918Y-5611637D01*
X1422537Y-5916571D02*
G01*
X1413446Y-5925662D01*
X1399809Y-5930209D01*
X1381627Y-5930209D01*
X1367990Y-5925662D01*
X1358900Y-5916571D01*
X1358900Y-5907481D01*
X1363446Y-5898390D01*
X1367990Y-5893846D01*
X1377081Y-5889299D01*
X1404353Y-5880209D01*
X1413446Y-5875662D01*
X1417990Y-5871118D01*
X1422537Y-5862027D01*
X1422537Y-5848390D01*
X1413446Y-5839299D01*
X1399809Y-5834753D01*
X1381627Y-5834753D01*
X1367990Y-5839299D01*
X1358900Y-5848390D01*
X1452537Y-5930209D02*
G01*
X1452537Y-5834753D01*
X1452537Y-5930209D02*
G01*
X1484353Y-5930209D01*
X1497990Y-5925662D01*
X1507081Y-5916571D01*
X1511627Y-5907481D01*
X1516171Y-5893846D01*
X1516171Y-5871118D01*
X1511627Y-5857481D01*
X1507081Y-5848390D01*
X1497990Y-5839299D01*
X1484353Y-5834753D01*
X1452537Y-5834753D01*
X1582536Y-5930209D02*
G01*
X1546171Y-5834753D01*
X1582536Y-5930209D02*
G01*
X1618899Y-5834753D01*
X1559808Y-5866571D02*
G01*
X1605262Y-5866571D01*
X1422537Y-5675271D02*
G01*
X1413446Y-5684362D01*
X1399809Y-5688909D01*
X1381627Y-5688909D01*
X1367990Y-5684362D01*
X1358900Y-5675271D01*
X1358900Y-5666181D01*
X1363446Y-5657090D01*
X1367990Y-5652546D01*
X1377081Y-5647999D01*
X1404353Y-5638909D01*
X1413446Y-5634362D01*
X1417990Y-5629818D01*
X1422537Y-5620727D01*
X1422537Y-5607090D01*
X1413446Y-5597999D01*
X1399809Y-5593453D01*
X1381627Y-5593453D01*
X1367990Y-5597999D01*
X1358900Y-5607090D01*
X1520718Y-5666181D02*
G01*
X1516171Y-5675271D01*
X1507081Y-5684362D01*
X1497990Y-5688909D01*
X1479809Y-5688909D01*
X1470718Y-5684362D01*
X1461627Y-5675271D01*
X1457081Y-5666181D01*
X1452537Y-5652546D01*
X1452537Y-5629818D01*
X1457081Y-5616181D01*
X1461627Y-5607090D01*
X1470718Y-5597999D01*
X1479809Y-5593453D01*
X1497990Y-5593453D01*
X1507081Y-5597999D01*
X1516171Y-5607090D01*
X1520718Y-5616181D01*
X1550718Y-5688909D02*
G01*
X1550718Y-5593453D01*
X1550718Y-5593453D02*
G01*
X1605262Y-5593453D01*
X1879737Y-8596271D02*
G01*
X1870646Y-8605362D01*
X1857009Y-8609909D01*
X1838827Y-8609909D01*
X1825190Y-8605362D01*
X1816100Y-8596271D01*
X1816100Y-8587181D01*
X1820646Y-8578090D01*
X1825190Y-8573546D01*
X1834281Y-8568999D01*
X1861553Y-8559909D01*
X1870646Y-8555362D01*
X1875190Y-8550818D01*
X1879737Y-8541727D01*
X1879737Y-8528090D01*
X1870646Y-8518999D01*
X1857009Y-8514453D01*
X1838827Y-8514453D01*
X1825190Y-8518999D01*
X1816100Y-8528090D01*
X1977918Y-8587181D02*
G01*
X1973371Y-8596271D01*
X1964281Y-8605362D01*
X1955190Y-8609909D01*
X1937009Y-8609909D01*
X1927918Y-8605362D01*
X1918827Y-8596271D01*
X1914281Y-8587181D01*
X1909737Y-8573546D01*
X1909737Y-8550818D01*
X1914281Y-8537181D01*
X1918827Y-8528090D01*
X1927918Y-8518999D01*
X1937009Y-8514453D01*
X1955190Y-8514453D01*
X1964281Y-8518999D01*
X1973371Y-8528090D01*
X1977918Y-8537181D01*
X2007918Y-8609909D02*
G01*
X2007918Y-8514453D01*
X2007918Y-8514453D02*
G01*
X2062462Y-8514453D01*
X1892437Y-8278771D02*
G01*
X1883346Y-8287862D01*
X1869709Y-8292409D01*
X1851527Y-8292409D01*
X1837890Y-8287862D01*
X1828800Y-8278771D01*
X1828800Y-8269681D01*
X1833346Y-8260590D01*
X1837890Y-8256046D01*
X1846981Y-8251499D01*
X1874253Y-8242409D01*
X1883346Y-8237862D01*
X1887890Y-8233318D01*
X1892437Y-8224227D01*
X1892437Y-8210590D01*
X1883346Y-8201499D01*
X1869709Y-8196953D01*
X1851527Y-8196953D01*
X1837890Y-8201499D01*
X1828800Y-8210590D01*
X1922437Y-8292409D02*
G01*
X1922437Y-8196953D01*
X1922437Y-8292409D02*
G01*
X1954253Y-8292409D01*
X1967890Y-8287862D01*
X1976981Y-8278771D01*
X1981527Y-8269681D01*
X1986071Y-8256046D01*
X1986071Y-8233318D01*
X1981527Y-8219681D01*
X1976981Y-8210590D01*
X1967890Y-8201499D01*
X1954253Y-8196953D01*
X1922437Y-8196953D01*
X2052436Y-8292409D02*
G01*
X2016071Y-8196953D01*
X2052436Y-8292409D02*
G01*
X2088799Y-8196953D01*
X2029708Y-8228771D02*
G01*
X2075162Y-8228771D01*
X2159000Y-8609909D02*
G01*
X2159000Y-8514453D01*
X2159000Y-8609909D02*
G01*
X2199909Y-8609909D01*
X2213546Y-8605362D01*
X2218090Y-8600818D01*
X2222637Y-8591727D01*
X2222637Y-8578090D01*
X2218090Y-8568999D01*
X2213546Y-8564453D01*
X2199909Y-8559909D01*
X2159000Y-8559909D01*
X2252637Y-8609909D02*
G01*
X2252637Y-8514453D01*
X2252637Y-8609909D02*
G01*
X2293546Y-8609909D01*
X2307181Y-8605362D01*
X2311727Y-8600818D01*
X2316271Y-8591727D01*
X2316271Y-8582637D01*
X2311727Y-8573546D01*
X2307181Y-8568999D01*
X2293546Y-8564453D01*
X2252637Y-8564453D02*
G01*
X2293546Y-8564453D01*
X2307181Y-8559909D01*
X2311727Y-8555362D01*
X2316271Y-8546271D01*
X2316271Y-8532637D01*
X2311727Y-8523546D01*
X2307181Y-8518999D01*
X2293546Y-8514453D01*
X2252637Y-8514453D01*
X2346271Y-8591727D02*
G01*
X2355362Y-8596271D01*
X2368999Y-8609909D01*
X2368999Y-8514453D01*
X2403546Y-8587181D02*
G01*
X2403546Y-8591727D01*
X2408090Y-8600818D01*
X2412636Y-8605362D01*
X2421727Y-8609909D01*
X2439908Y-8609909D01*
X2448999Y-8605362D01*
X2453546Y-8600818D01*
X2458090Y-8591727D01*
X2458090Y-8582637D01*
X2453546Y-8573546D01*
X2444452Y-8559909D01*
X2398999Y-8514453D01*
X2462636Y-8514453D01*
X2159000Y-8292409D02*
G01*
X2159000Y-8196953D01*
X2159000Y-8292409D02*
G01*
X2199909Y-8292409D01*
X2213546Y-8287862D01*
X2218090Y-8283318D01*
X2222637Y-8274227D01*
X2222637Y-8260590D01*
X2218090Y-8251499D01*
X2213546Y-8246953D01*
X2199909Y-8242409D01*
X2159000Y-8242409D01*
X2252637Y-8292409D02*
G01*
X2252637Y-8196953D01*
X2252637Y-8292409D02*
G01*
X2293546Y-8292409D01*
X2307181Y-8287862D01*
X2311727Y-8283318D01*
X2316271Y-8274227D01*
X2316271Y-8265137D01*
X2311727Y-8256046D01*
X2307181Y-8251499D01*
X2293546Y-8246953D01*
X2252637Y-8246953D02*
G01*
X2293546Y-8246953D01*
X2307181Y-8242409D01*
X2311727Y-8237862D01*
X2316271Y-8228771D01*
X2316271Y-8215137D01*
X2311727Y-8206046D01*
X2307181Y-8201499D01*
X2293546Y-8196953D01*
X2252637Y-8196953D01*
X2346271Y-8274227D02*
G01*
X2355362Y-8278771D01*
X2368999Y-8292409D01*
X2368999Y-8196953D01*
X2408090Y-8292409D02*
G01*
X2458090Y-8292409D01*
X2430818Y-8256046D01*
X2444452Y-8256046D01*
X2453546Y-8251499D01*
X2458090Y-8246953D01*
X2462636Y-8233318D01*
X2462636Y-8224227D01*
X2458090Y-8210590D01*
X2448999Y-8201499D01*
X2435362Y-8196953D01*
X2421727Y-8196953D01*
X2408090Y-8201499D01*
X2403546Y-8206046D01*
X2398999Y-8215137D01*
M02*
